<?xml version="1.0" encoding="UTF-8"?>
<svg width="74px" height="74px" viewBox="0 0 74 74" version="1.1" xmlns="http://www.w3.org/2000/svg" xmlns:xlink="http://www.w3.org/1999/xlink">
    <!-- Generator: Sketch 42 (36781) - http://www.bohemiancoding.com/sketch -->
    <title>Icon</title>
    <desc>Created with Sketch.</desc>
    <defs></defs>
    <g id="website" stroke="none" stroke-width="1" fill="none" fill-rule="evenodd">
        <g id="1" transform="translate(-1008.000000, -400.000000)">
            <g id="03-PRODUCT" transform="translate(-311.000000, -153.000000)">
                <g id="Icon" transform="translate(1319.000000, 553.000000)">
                    <rect id="Rectangle-9" fill="#FCFDFF" x="0" y="0" width="74" height="74" rx="37"></rect>
                    <g id="File-Icon" transform="translate(27.000000, 24.000000)">
                        <g id="file">
                            <g id="Capa_1">
                                <g id="Group">
                                    <path d="M17.9005125,10.5925926 L5.7130125,10.5925926 C5.4439125,10.5925926 5.2255125,10.8082963 5.2255125,11.0740741 C5.2255125,11.3398519 5.4439125,11.5555556 5.7130125,11.5555556 L17.9005125,11.5555556 C18.1696125,11.5555556 18.3880125,11.3398519 18.3880125,11.0740741 C18.3880125,10.8082963 18.1696125,10.5925926 17.9005125,10.5925926 Z" id="Shape" stroke="#3A5273" stroke-width="0.5" fill="#3A5273"></path>
                                    <path d="M5.7130125,7.7037037 L10.5880125,7.7037037 C10.8571125,7.7037037 11.0755125,7.488 11.0755125,7.22222222 C11.0755125,6.95644444 10.8571125,6.74074074 10.5880125,6.74074074 L5.7130125,6.74074074 C5.4439125,6.74074074 5.2255125,6.95644444 5.2255125,7.22222222 C5.2255125,7.488 5.4439125,7.7037037 5.7130125,7.7037037 Z" id="Shape" stroke="#3A5273" stroke-width="0.5" fill="#3A5273"></path>
                                    <path d="M17.9005125,14.4444444 L5.7130125,14.4444444 C5.4439125,14.4444444 5.2255125,14.6601481 5.2255125,14.9259259 C5.2255125,15.1917037 5.4439125,15.4074074 5.7130125,15.4074074 L17.9005125,15.4074074 C18.1696125,15.4074074 18.3880125,15.1917037 18.3880125,14.9259259 C18.3880125,14.6601481 18.1696125,14.4444444 17.9005125,14.4444444 Z" id="Shape" stroke="#3A5273" stroke-width="0.5" fill="#3A5273"></path>
                                    <path d="M14.0005125,18.2962963 L5.7130125,18.2962963 C5.4439125,18.2962963 5.2255125,18.512 5.2255125,18.7777778 C5.2255125,19.0435556 5.4439125,19.2592593 5.7130125,19.2592593 L14.0005125,19.2592593 C14.2696125,19.2592593 14.4880125,19.0435556 14.4880125,18.7777778 C14.4880125,18.512 14.2696125,18.2962963 14.0005125,18.2962963 Z" id="Shape" stroke="#3A5273" stroke-width="0.5" fill="#3A5273"></path>
                                    <path d="M12.5380125,23.1111111 C12.8071125,23.1111111 13.0255125,22.8954074 13.0255125,22.6296296 C13.0255125,22.3638519 12.8071125,22.1481481 12.5380125,22.1481481 L5.7130125,22.1481481 C5.4439125,22.1481481 5.2255125,22.3638519 5.2255125,22.6296296 C5.2255125,22.8954074 5.4439125,23.1111111 5.7130125,23.1111111 L12.5380125,23.1111111 Z" id="Shape" stroke="#3A5273" stroke-width="0.5" fill="#3A5273"></path>
                                    <path d="M15.4630125,0.962962963 L15.4630125,7.7037037 L22.2880125,7.7037037 C22.2880125,7.7037037 22.2684391,11.5103164 22.2684391,12.1813124 C22.2684391,12.8523085 23.2434391,12.6844618 23.2434391,12.1813124 C23.2434391,11.678163 23.2630125,7.02288889 23.2630125,7.02288889 L16.1523375,0 L0.3505125,0 L0.3505125,28.8888889 L12.2171591,28.9257356 C12.9762037,28.9107448 12.961712,28.0108471 12.2171591,27.9657796 C11.8607683,27.9329659 1.3255125,27.9259259 1.3255125,27.9259259 L1.3255125,0.962962963 L15.4630125,0.962962963 Z M16.4380125,1.64377778 L21.5986875,6.74074074 L16.4380125,6.74074074 L16.4380125,1.64377778 Z" id="Shape" stroke="#3A5273" stroke-width="0.5" fill="#3A5273"></path>
                                    <g id="Group-6" transform="translate(13.500000, 14.444444)" stroke="#82D4BB" stroke-width="1.3">
                                        <path d="M12.1079632,3.07891102 L10.9034972,1.88181403 C10.4266149,1.40801565 9.59545308,1.40801565 9.1185708,1.88181403 L2.61174885,8.34613774 L1.71505796,11.6135825 L1.49564138,11.8315801 C1.33160741,11.9945533 1.33118464,12.2574946 1.49310478,12.4217279 C1.58146328,12.5078349 1.68800081,12.5485782 1.79453834,12.5485782 C1.90276695,12.5485782 2.01099555,12.5074149 2.0934353,12.4255082 L2.31285189,12.2075106 L5.60156399,11.3166184 L12.1079632,4.85187465 C12.3464043,4.61497546 12.4778852,4.30036997 12.4778852,3.96518282 C12.4778852,3.62999566 12.3464043,3.31539018 12.1079632,3.07891102 Z" id="Shape" stroke-linecap="round" stroke-linejoin="round" transform="translate(6.925011, 7.037522) rotate(-11.000000) translate(-6.925011, -7.037522) "></path>
                                        <path d="M7.6641282,3.75149692 L9.68213091,5.12139699" id="Line" stroke-linecap="square"></path>
                                    </g>
                                </g>
                            </g>
                        </g>
                    </g>
                </g>
            </g>
        </g>
    </g>
</svg>