<?xml version="1.0" encoding="UTF-8"?>
<svg width="74px" height="74px" viewBox="0 0 74 74" version="1.1" xmlns="http://www.w3.org/2000/svg" xmlns:xlink="http://www.w3.org/1999/xlink">
    <!-- Generator: Sketch 42 (36781) - http://www.bohemiancoding.com/sketch -->
    <title>Icon</title>
    <desc>Created with Sketch.</desc>
    <defs>
        <polygon id="path-1" points="21.7143 0.125 0.0003 0.125 0.0003 16.4745252 21.7143 16.4745252 21.7143 0.125"></polygon>
    </defs>
    <g id="website" stroke="none" stroke-width="1" fill="none" fill-rule="evenodd">
        <g id="2" transform="translate(-1008.000000, -403.000000)">
            <g id="03-PRODUCT" transform="translate(-311.000000, -183.000000)">
                <g id="Icon" transform="translate(1319.000000, 586.000000)">
                    <rect id="Rectangle-9" fill="#FCFDFF" x="0" y="0" width="74" height="74" rx="37"></rect>
                    <g id="browse-home" transform="translate(22.000000, 21.000000)">
                        <g>
                            <path d="M6.3862,1.6831 L11.2592,1.6831 C11.7182,1.6831 12.0912,2.0281 12.0912,2.4521 C12.0912,2.8761 11.7182,3.2211 11.2592,3.2211 L7.2172,3.2211 L7.2172,6.9601 C7.2172,7.3841 6.8442,7.7291 6.3862,7.7291 C5.9272,7.7291 5.5542,7.3841 5.5542,6.9601 L5.5542,2.4521 C5.5542,2.0281 5.9272,1.6831 6.3862,1.6831" id="Fill-1" fill="#3A5273"></path>
                            <g id="Group-5" transform="translate(0.000000, 0.875200)">
                                <mask id="mask-2" fill="white">
                                    <use xlink:href="#path-1"></use>
                                </mask>
                                <g id="Clip-4"></g>
                                <path d="M21.4893,5.6919 L16.1263,0.3499 C15.8273,0.0489 15.3393,0.0509 15.0383,0.3499 L0.2263,15.1629 C0.0813,15.3079 0.0003,15.5009 0.0003,15.7059 C0.0003,15.9119 0.0813,16.1049 0.2263,16.2499 C0.5263,16.5499 1.0143,16.5489 1.3143,16.2499 L15.5833,1.9809 L20.4013,6.7789 C20.5463,6.9239 20.7393,7.0039 20.9453,7.0039 C21.1503,7.0039 21.3433,6.9239 21.4893,6.7789 C21.6343,6.6339 21.7143,6.4409 21.7143,6.2349 C21.7143,6.0299 21.6343,5.8369 21.4893,5.6919" id="Fill-3" fill="#3A5273" mask="url(#mask-2)"></path>
                            </g>
                            <path d="M26.5313,24.0607 C26.1073,24.0607 25.7623,24.4057 25.7623,24.8297 L25.7623,29.3367 L19.5723,29.3367 L19.5723,21.0897 C19.5723,20.6657 19.2273,20.3207 18.8023,20.3207 L12.3623,20.3207 C11.9383,20.3207 11.5933,20.6657 11.5933,21.0897 L11.5933,29.3367 L5.4033,29.3367 L5.4033,17.2257 C5.4033,16.8017 5.0583,16.4567 4.6343,16.4567 C4.2103,16.4567 3.8653,16.8017 3.8653,17.2257 L3.8653,30.1057 C3.8653,30.5297 4.2103,30.8747 4.6343,30.8747 L12.3623,30.8747 C12.7873,30.8747 13.1323,30.5297 13.1323,30.1057 L13.1323,21.8587 L18.0343,21.8587 L18.0343,30.1057 C18.0343,30.5297 18.3793,30.8747 18.8023,30.8747 L26.5313,30.8747 C26.9543,30.8747 27.3003,30.5307 27.3013,30.1057 L27.3013,24.8297 C27.3013,24.4057 26.9563,24.0607 26.5313,24.0607" id="Fill-6" fill="#3A5273"></path>
                            <path d="M21.2765,15.1444 C21.2765,12.3934 23.5145,10.1564 26.2645,10.1564 C29.0155,10.1564 31.2535,12.3934 31.2535,15.1444 C31.2535,17.8954 29.0155,20.1324 26.2645,20.1324 C23.5145,20.1324 21.2765,17.8954 21.2765,15.1444 M35.1175,23.5054 L31.1595,19.3884 C32.1855,18.2094 32.7455,16.7184 32.7455,15.1444 C32.7455,11.5704 29.8385,8.6634 26.2645,8.6634 C22.6915,8.6634 19.7845,11.5704 19.7845,15.1444 C19.7845,18.7184 22.6915,21.6244 26.2645,21.6244 C27.6255,21.6244 28.9575,21.1914 30.0575,20.3964 L34.0395,24.5374 C34.1785,24.6844 34.3765,24.7694 34.5805,24.7694 C34.7735,24.7694 34.9565,24.6954 35.0955,24.5614 C35.2405,24.4234 35.3215,24.2374 35.3265,24.0374 C35.3305,23.8384 35.2555,23.6494 35.1175,23.5054" id="Fill-8" fill="#82D4BB"></path>
                        </g>
                    </g>
                </g>
            </g>
        </g>
    </g>
</svg>