<?xml version="1.0" encoding="UTF-8"?>
<svg width="63px" height="49px" viewBox="0 0 63 49" version="1.1" xmlns="http://www.w3.org/2000/svg" xmlns:xlink="http://www.w3.org/1999/xlink">
    <!-- Generator: Sketch 41.2 (35397) - http://www.bohemiancoding.com/sketch -->
    <title>Icon-PreListing</title>
    <desc>Created with Sketch.</desc>
    <defs></defs>
    <g id="Page-1" stroke="none" stroke-width="1" fill="none" fill-rule="evenodd">
        <g id="Homepage" transform="translate(-1065.000000, -4535.000000)">
            <g id="04-SECTION" transform="translate(-98.000000, 3342.000000)">
                <g id="02-Section" transform="translate(63.000000, 922.000000)">
                    <g id="Icon-PreListing" transform="translate(1100.000000, 271.000000)">
                        <g id="Icon-PreListinh">
                            <polygon id="Fill-3" fill="#BAC7DB" opacity="0.415228545" points="33.8908737 44.9034671 37.3051895 44.9034671 37.3051895 27.9829884 33.8908737 27.9829884"></polygon>
                            <polygon id="Fill-5" fill="#BAC7DB" opacity="0.415228545" points="32.6473105 7.8431907 37.3052368 7.76950078 52.6744895 23.2647062 52.6744895 27.4685453"></polygon>
                            <polygon id="Fill-6" fill="#BAC7DB" opacity="0.415228545" points="14.0473137 42.0267682 9.32922947 44.3533186 8.88415579 25.0761868 14.0473137 20.0432411"></polygon>
                            <polygon id="Fill-7" fill="#BAC7DB" opacity="0.415228545" points="6.55643368 27.4685074 6.30964421 23.4822244 22.1467074 7.71913333 26.1185495 7.84315271"></polygon>
                            <path d="M17.4377653,47.3343798 L8.54510211,47.3343798 C7.65343895,47.3343798 6.92822842,46.6075465 6.92822842,45.7136764 C6.92822842,44.8198062 7.65343895,44.0930678 8.54510211,44.0930678 C9.29939684,44.0930678 9.96956526,44.5322636 10.2128495,45.1870213 C10.34946,45.5541415 10.7278389,45.7704632 11.1142705,45.7007616 C11.4990916,45.6310601 11.7787547,45.295562 11.7787547,44.9033721 C11.7787547,43.5630891 12.8669021,42.4723643 14.2040179,42.4723643 C15.5411337,42.4723643 16.6292811,43.5630891 16.6292811,44.9033721 C16.6292811,45.3506395 16.99146,45.7136764 17.4376705,45.7136764 C17.8831232,45.7136764 18.24606,46.0774729 18.24606,46.5239806 C18.24606,46.9704884 17.8832179,47.3343798 17.4377653,47.3343798 M18.1871337,44.2113895 C17.8588705,42.3062771 16.1975653,40.8517558 14.2040179,40.8517558 C12.6122495,40.8517558 11.2330705,41.7787674 10.5741758,43.1222791 C10.4440074,43.0291221 10.3049337,42.9464109 10.1618811,42.8718663 L10.1618811,29.5070213 C10.1618811,29.0597539 9.79970211,28.6967171 9.35349158,28.6967171 C8.90728105,28.6967171 8.54510211,29.0597539 8.54510211,29.5070213 L8.54510211,42.4723643 C6.76177579,42.4723643 5.31144947,43.926126 5.31144947,45.7137713 C5.31144947,47.5014167 6.76177579,48.9550833 8.54510211,48.9550833 L17.4377653,48.9550833 C18.7748811,48.9550833 19.8630284,47.8643585 19.8630284,46.5240756 C19.8630284,45.4455058 19.1588495,44.5290349 18.1871337,44.2113895" id="Fill-11" fill="#3A5273"></path>
                            <path d="M53.0083232,6.81764729 L37.64826,6.81764729 C37.2020495,6.81764729 36.8398705,7.18068411 36.8398705,7.62795155 C36.8398705,8.07521899 37.2020495,8.43825581 37.64826,8.43825581 L52.1998389,8.43825581 L52.1998389,25.9302112 L30.1356284,3.81373837 C29.9771337,3.65486822 29.7693758,3.57633527 29.5616179,3.57633527 C29.35386,3.57633527 29.1461021,3.65496318 28.9876074,3.81373837 L6.92832316,25.9293566 L6.92832316,8.43825581 L15.8209863,8.43825581 C16.2671968,8.43825581 16.6293758,8.07521899 16.6293758,7.62795155 L16.6293758,4.38663953 C16.6293758,3.93937209 16.2671968,3.57633527 15.8209863,3.57633527 L15.0125021,3.57633527 L15.0125021,1.95563178 L19.8630284,1.95563178 L19.8630284,3.57633527 L19.0546389,3.57633527 C18.6084284,3.57633527 18.2462495,3.93937209 18.2462495,4.38663953 L18.2462495,7.62795155 C18.2462495,8.07521899 18.6084284,8.43825581 19.0546389,8.43825581 L21.4799021,8.43825581 C21.9261126,8.43825581 22.2882916,8.07521899 22.2882916,7.62795155 C22.2882916,7.18068411 21.9261126,6.81764729 21.4799021,6.81764729 L19.8630284,6.81764729 L19.8630284,5.1969438 L20.6714179,5.1969438 C21.1176284,5.1969438 21.4798074,4.83390698 21.4798074,4.38663953 L21.4798074,1.14523256 C21.4798074,0.697965116 21.1176284,0.334928295 20.6714179,0.334928295 L14.2041126,0.334928295 C13.7579021,0.334928295 13.3957232,0.697965116 13.3957232,1.14523256 L13.3957232,4.38654457 C13.3957232,4.83381202 13.7579021,5.19684884 14.2041126,5.19684884 L15.0125021,5.19684884 L15.0125021,6.81755233 L6.11983895,6.81755233 C5.90563895,6.81755233 5.69949158,6.9026376 5.54829158,7.05495543 C5.39633368,7.20660853 5.31144947,7.41324419 5.31144947,7.62795155 L5.31467053,27.8863178 C5.31467053,28.2145039 5.51191263,28.5094535 5.81431263,28.6350872 C5.91454421,28.6763953 6.01884947,28.6967171 6.12315474,28.6967171 C6.33413368,28.6967171 6.54113368,28.6141008 6.69470211,28.459314 L29.5616179,5.52997287 L52.4366811,28.459219 C52.5911021,28.6140058 52.7980074,28.6966221 53.0082284,28.6966221 C53.1125337,28.6966221 53.2175968,28.6763953 53.3178284,28.6349922 C53.6193758,28.5093585 53.8166179,28.2136492 53.8166179,27.8862229 L53.8166179,7.62795155 C53.8167126,7.18068411 53.4545337,6.81764729 53.0083232,6.81764729" id="Fill-12" fill="#3A5273"></path>
                            <path d="M50.58306,47.3343798 L44.9241442,47.3343798 L41.6903968,47.3343798 C41.2449442,47.3343798 40.8820074,46.9705833 40.8820074,46.5240756 C40.8820074,46.0775678 41.2449442,45.7137713 41.6903968,45.7137713 C42.1366074,45.7137713 42.4987863,45.3507345 42.4987863,44.9034671 C42.4987863,43.5631841 43.5869337,42.4724593 44.9240495,42.4724593 C46.2611653,42.4724593 47.3493126,43.5631841 47.3493126,44.9034671 C47.3493126,45.295657 47.6290705,45.631155 48.0137968,45.7008566 C48.3977653,45.7713178 48.7786074,45.5541415 48.9152179,45.1871163 C49.1585021,44.5323585 49.8287653,44.0931628 50.5829653,44.0931628 C51.4746284,44.0931628 52.1998389,44.8199961 52.1998389,45.7138663 C52.1998389,46.6077364 51.4747232,47.3343798 50.58306,47.3343798 M50.58306,42.4723643 L50.58306,29.5070213 C50.58306,29.0597539 50.2208811,28.6967171 49.7746705,28.6967171 C49.32846,28.6967171 48.9662811,29.0597539 48.9662811,29.5070213 L48.9662811,42.8718663 C48.8232284,42.9464109 48.6841547,43.0290271 48.5539863,43.1222791 C47.8950916,41.7787674 46.5159126,40.8517558 44.9241442,40.8517558 C42.9305968,40.8517558 41.2692916,42.3062771 40.9410284,44.2113895 C39.9693126,44.5290349 39.2651337,45.4455058 39.2651337,46.5240756 C39.2651337,46.8100988 39.3233021,47.0799787 39.4147232,47.3343798 L25.5219442,47.3343798 C25.0757337,47.3343798 24.7135547,47.6974167 24.7135547,48.1446841 C24.7135547,48.5919516 25.0757337,48.9549884 25.5219442,48.9549884 L41.6903968,48.9549884 L44.9240495,48.9549884 L50.5829653,48.9549884 C52.3663863,48.9550833 53.8167126,47.5013217 53.8167126,45.7137713 C53.8167126,43.9262209 52.3663863,42.4723643 50.58306,42.4723643" id="Fill-13" fill="#3A5273"></path>
                            <path d="M27.9472074,16.5416783 C27.9472074,15.6479031 28.6723232,14.9209748 29.5640811,14.9209748 C30.4557442,14.9209748 31.1809547,15.6478081 31.1809547,16.5416783 C31.1809547,17.4354535 30.4558389,18.1623818 29.5640811,18.1623818 C28.6724179,18.1622868 27.9472074,17.4354535 27.9472074,16.5416783 M32.7977337,16.5416783 C32.7977337,14.7540329 31.3474074,13.3003663 29.5640811,13.3003663 C27.78066,13.3003663 26.3304284,14.7541279 26.3304284,16.5416783 C26.3304284,18.3292287 27.78066,19.7829903 29.5640811,19.7829903 C31.3475021,19.7829903 32.7977337,18.3292287 32.7977337,16.5416783" id="Fill-14" fill="#41547D"></path>
                            <path d="M39.2651053,32.7483333 L44.1156316,32.7483333 L44.1156316,29.5070213 L39.2651053,29.5070213 L39.2651053,32.7483333 Z M39.2651053,37.6103488 L44.1156316,37.6103488 L44.1156316,34.3690368 L39.2651053,34.3690368 L39.2651053,37.6103488 Z M44.9240211,27.8863178 L38.4566211,27.8863178 C38.0104105,27.8863178 37.6482316,28.2493547 37.6482316,28.6966221 L37.6482316,37.6103488 L36.8398421,37.6103488 C36.3936316,37.6103488 36.0314526,37.9733857 36.0314526,38.4206531 C36.0314526,38.8679205 36.3936316,39.2309574 36.8398421,39.2309574 L46.5408947,39.2309574 C46.9871053,39.2309574 47.3492842,38.8679205 47.3492842,38.4206531 C47.3492842,37.9733857 46.9871053,37.6103488 46.5408947,37.6103488 L45.7325053,37.6103488 L45.7325053,28.6966221 C45.7325053,28.2493547 45.3703263,27.8863178 44.9240211,27.8863178 L44.9240211,27.8863178 Z" id="Fill-15" fill="#3A5273"></path>
                            <path d="M60.5902453,9.91082926 C60.5902453,14.0645289 57.1591611,17.4318545 52.9266979,17.4318545 C48.6942347,17.4318545 45.2631505,14.0645289 45.2631505,9.91082926 C45.2631505,5.75712965 48.6942347,2.38980407 52.9266979,2.38980407 C57.1591611,2.38980407 60.5902453,5.75712965 60.5902453,9.91082926" id="Fill-16" fill="#82D4BB"></path>
                            <path d="M55.4921811,15.5519638 C51.1204547,15.5519638 47.5764442,12.0982234 47.5764442,7.8377874 C47.5764442,5.97787655 48.2608232,4.5716905 49.3857284,3.2393843 C47.0219495,4.57377965 45.4219389,6.76387074 45.4219389,9.61755097 C45.4219389,13.877987 48.9659495,17.3317273 53.3376758,17.3317273 C55.8008337,17.3317273 57.7446442,16.3160219 59.1620021,14.2841362 C57.9968337,14.9419328 56.9356863,15.5519638 55.4921811,15.5519638" id="Fill-17" fill-opacity="0.061792346" fill="#000000"></path>
                            <path d="M56.6963337,7.22347364 L56.6961442,7.22347364 C56.5062916,7.22347364 56.3279968,7.30343101 56.1940389,7.43808605 L53.2906389,10.3511171 L52.2484389,9.30825271 C51.9716179,9.03115581 51.5211442,9.03182054 51.2443232,9.30910736 C51.1100811,9.44366744 51.0361863,9.62276434 51.0361863,9.81297171 C51.0361863,10.0030841 51.1100811,10.182086 51.2443232,10.3163612 L52.7885337,11.8640395 C52.9226811,11.9985047 53.1009758,12.0726694 53.2906389,12.0726694 C53.4803968,12.0726694 53.6587863,11.9985047 53.7929337,11.8641345 L57.1982495,8.45056279 C57.3325863,8.31609767 57.4066705,8.13728566 57.4066705,7.94698333 C57.4066705,7.75658605 57.3325863,7.57207636 57.1986284,7.43808605 C57.0642916,7.30333605 56.8860916,7.22347364 56.6963337,7.22347364" id="Fill-18" fill="#FFFFFF"></path>
                            <path d="M56.4219474,1.47772035 L56.4219474,1.47772035 C56.4256421,1.74646066 56.5915263,1.98338895 56.8392632,2.08632694 C58.2215684,2.66065252 59.4147789,3.62422422 60.2688316,4.85311764 C60.4649368,5.13534244 60.8415158,5.22384632 61.1404105,5.05481531 C61.4788105,4.86356337 61.5853895,4.42066415 61.3637053,4.10092965 C60.3612947,2.65571453 58.9580526,1.52263702 57.3324632,0.850121512 C56.8946842,0.669030426 56.4155053,1.00300911 56.4219474,1.47772035" id="Fill-19" fill="#3A5273"></path>
                            <path d="M61.9978453,7.90880891 C61.7434768,8.02238256 61.5860242,8.2829562 61.6061084,8.56138256 C61.6190874,8.74019457 61.6260032,8.92062093 61.6260032,9.10266163 C61.6260032,13.4767663 58.0218347,17.0229988 53.6339084,16.9140783 C49.5259295,16.8121849 46.1689295,13.4712585 46.03914,9.35430891 C45.9079295,5.19054341 49.0460874,1.72075465 53.0700347,1.32827984 C53.3898663,1.29713256 53.6413926,1.04121202 53.6673505,0.720243023 C53.7006979,0.30735155 53.3534874,-0.0368829457 52.9422347,0.00309573643 C48.2019821,0.464512403 44.5121716,4.57728372 44.7169926,9.49247752 C44.9142347,14.2260105 48.7454874,18.0547527 53.4684032,18.2389775 C58.6624453,18.4415298 62.9523189,14.2647547 62.9523189,9.10266163 C62.9523189,8.89184767 62.9451189,8.68274302 62.9309084,8.47544264 C62.8992663,8.01241163 62.4208453,7.71993101 61.9978453,7.90880891" id="Fill-20" fill="#3A5273"></path>
                            <path d="M36.8157032,44.0684349 L34.3683663,44.0684349 L34.3683663,28.6966791 C34.3683663,28.270493 34.0237137,27.925024 33.59844,27.925024 L25.5220295,27.925024 C25.0727874,27.925024 24.7052084,28.2934736 24.7052084,28.7437798 L24.7052084,34.1133632 C24.7052084,34.5591112 25.0657768,34.9205337 25.5104716,34.9205337 L25.5104716,34.9205337 C25.9551663,34.9205337 26.3157347,34.5591112 26.3157347,34.1133632 L26.3157347,29.5393651 L32.75784,29.5393651 L32.75784,35.9967295 L32.0135874,35.9967295 C31.5832926,35.9967295 31.2082295,36.3234911 31.1824611,36.7539504 C31.1543242,37.2241035 31.52664,37.6110705 31.9893347,37.6110705 L32.75784,37.6110705 L32.75784,44.0684349 L26.3157347,44.0684349 L26.3157347,37.5635899 C26.3157347,37.1178419 25.9551663,36.7564194 25.5104716,36.7564194 L25.5104716,36.7564194 C25.0657768,36.7564194 24.7052084,37.1178419 24.7052084,37.5635899 L24.7052084,44.0684349 L22.2883768,44.0684349 C21.8442505,44.0684349 21.4841558,44.4293826 21.4841558,44.8745609 L21.4841558,48.120431 C21.4841558,48.551745 21.8101453,48.9276965 22.2396821,48.953526 C22.7086295,48.9817295 23.0946821,48.6084368 23.0946821,48.1446461 L23.0946821,45.682776 L36.8398611,45.682776 C37.3024611,45.682776 37.6747768,45.2959988 37.6467347,44.8259407 C37.6210611,44.3952915 37.2460926,44.0684349 36.8157032,44.0684349" id="Fill-21" fill="#3A5273"></path>
                            <path d="M15.0420316,37.6111085 L19.8736105,37.6111085 L19.8736105,34.3824264 L15.0420316,34.3824264 L15.0420316,37.6111085 Z M22.2641053,37.6111085 L21.4841368,37.6111085 L21.4841368,28.6967171 C21.4841368,28.270531 21.1394842,27.925062 20.7143053,27.925062 L14.5209789,27.925062 C14.0762842,27.925062 13.7157158,28.2863895 13.7157158,28.7322326 L13.7157158,28.7322326 C13.7157158,29.1779806 14.0762842,29.5394031 14.5209789,29.5394031 L19.8736105,29.5394031 L19.8736105,32.7680853 L15.0420316,32.7680853 L15.0420316,31.6917946 C15.0420316,31.2460465 14.6815579,30.884624 14.2367684,30.884624 L14.2367684,30.884624 C13.7920737,30.884624 13.4315053,31.2460465 13.4315053,31.6917946 L13.4315053,37.6111085 L12.6113684,37.6111085 C12.1811684,37.6111085 11.8061053,37.9377752 11.7803368,38.3682345 C11.7522,38.8383876 12.1245158,39.2254496 12.5872105,39.2254496 L22.2882632,39.2254496 C22.7509579,39.2254496 23.1233684,38.8383876 23.0951368,38.3683295 C23.0693684,37.9377752 22.6944,37.6111085 22.2641053,37.6111085 L22.2641053,37.6111085 Z" id="Fill-22" fill="#3A5273"></path>
                            <path d="M57.3944589,48.950962 L43.3734063,48.950962 C42.9548589,48.950962 42.6155116,48.6108109 42.6155116,48.1912721 C42.6155116,47.7717333 42.9548589,47.4315822 43.3734063,47.4315822 L57.3944589,47.4315822 C57.8130063,47.4315822 58.1523537,47.7717333 58.1523537,48.1912721 C58.1523537,48.6108109 57.8130063,48.950962 57.3944589,48.950962" id="Fill-23" fill="#3A5273"></path>
                            <path d="M10.0579358,48.950962 L3.04740947,48.950962 C2.62886211,48.950962 2.28951474,48.6108109 2.28951474,48.1912721 C2.28951474,47.7717333 2.62886211,47.4315822 3.04740947,47.4315822 L10.0579358,47.4315822 C10.4764832,47.4315822 10.8158305,47.7717333 10.8158305,48.1912721 C10.8158305,48.6108109 10.4764832,48.950962 10.0579358,48.950962" id="Fill-24" fill="#3A5273"></path>
                            <path d="M1.44473684,48.1873787 C1.44473684,48.5872605 1.12130526,48.9114581 0.722368421,48.9114581 C0.323431579,48.9114581 0,48.5872605 0,48.1873787 C0,47.7874969 0.323431579,47.4632992 0.722368421,47.4632992 C1.12130526,47.4632992 1.44473684,47.7874969 1.44473684,48.1873787" id="Fill-25" fill="#3A5273"></path>
                        </g>
                    </g>
                </g>
            </g>
        </g>
    </g>
</svg>