<?xml version="1.0" encoding="UTF-8"?>
<svg width="262px" height="139px" viewBox="0 0 262 139" version="1.1" xmlns="http://www.w3.org/2000/svg" xmlns:xlink="http://www.w3.org/1999/xlink">
    <!-- Generator: Sketch 41.2 (35397) - http://www.bohemiancoding.com/sketch -->
    <title>Instalend-Illustration</title>
    <desc>Created with Sketch.</desc>
    <defs></defs>
    <g id="Page-1" stroke="none" stroke-width="1" fill="none" fill-rule="evenodd">
        <g id="Homepage" transform="translate(-842.000000, -1452.000000)">
            <g id="02-ABOUT-US" transform="translate(371.000000, 1097.000000)">
                <g id="2-Instalend" transform="translate(463.000000, 355.000000)">
                    <g id="Instalend-Illustration" transform="translate(8.000000, 0.000000)">
                        <g>
                            <path d="M9.23495868,117.983416 L11.5436983,117.983416 L11.5436983,106.449661 L9.23495868,106.449661 L9.23495868,117.983416 Z M13.852438,117.983416 L16.1611777,117.983416 L16.1611777,106.449661 L13.852438,106.449661 L13.852438,117.983416 Z M8.08031818,120.290167 L17.3158182,120.290167 C18.0081694,120.290167 18.4699174,119.828817 18.4699174,119.136521 L18.4699174,105.296016 C18.4699174,104.604261 18.0081694,104.142911 17.3158182,104.142911 L8.08031818,104.142911 C7.38796694,104.142911 6.92621901,104.604261 6.92621901,105.296016 L6.92621901,119.136521 C6.92621901,119.828817 7.38796694,120.290167 8.08031818,120.290167 L8.08031818,120.290167 Z" id="Fill-1" fill="#EBF1FF"></path>
                            <path d="M66.9536669,99.5291922 L65.7995678,99.5291922 L57.7187083,99.5291922 L57.7187083,96.1380249 L59.4503983,97.1072389 C59.7535388,97.3089782 60.1454562,97.3343984 60.4707909,97.1824179 C60.5232992,97.1651105 60.5698529,97.1418537 60.6044975,97.1072389 C60.9509438,96.8762934 61.1820884,96.5301455 61.1820884,96.0687953 L61.1820884,94.9156903 L65.7995678,94.9156903 L66.9536669,94.9156903 L66.9536669,99.5291922 Z M64.6449273,123.750348 L57.7187083,123.750348 L57.7187083,120.289951 L61.1820884,120.289951 C61.8744397,120.289951 62.3361876,119.828601 62.3361876,119.136846 L62.3361876,105.29634 C62.3361876,104.604044 61.8744397,104.142694 61.1820884,104.142694 L57.7187083,104.142694 L57.7187083,101.835943 L64.6449273,101.835943 L64.6449273,123.750348 Z M57.7187083,128.36385 L64.6449273,128.36385 L64.6449273,126.057099 L57.7187083,126.057099 L57.7187083,128.36385 Z M33.4766711,128.36385 L33.4766711,109.909842 L45.0203694,109.909842 L45.0203694,128.36385 L33.4766711,128.36385 Z M23.0876132,100.682297 L23.0876132,94.8004879 L39.2487909,85.8038887 L55.4099686,94.8464607 L55.4099686,100.682838 L55.4099686,105.29634 L55.4099686,119.136846 L55.4099686,128.36385 L47.3296504,128.36385 L47.3296504,108.756196 C47.3296504,108.064441 46.8679025,107.603091 46.1750099,107.603091 L32.3225719,107.603091 C31.6302207,107.603091 31.1684727,108.064441 31.1684727,108.756196 L31.1684727,128.36385 L23.0876132,128.36385 L23.0876132,100.682297 Z M4.61769587,128.36385 L20.7788736,128.36385 L20.7788736,126.057099 L4.61769587,126.057099 L4.61769587,128.36385 Z M4.61769587,123.750348 L20.7788736,123.750348 L20.7788736,101.835943 L4.61769587,101.835943 L4.61769587,123.750348 Z M2.3089562,94.9156903 L3.46305537,94.9156903 L17.3154934,94.9156903 L17.3154934,96.0687953 C17.3154934,96.5301455 17.546638,96.8762934 17.8930843,96.9920366 C18.2389893,97.2224412 18.7007372,97.2224412 19.0471835,96.9920366 L20.7788736,96.0687953 L20.7788736,99.5291922 L3.46305537,99.5291922 L2.3089562,99.5291922 L2.3089562,94.9156903 Z M38.6717413,83.3819354 L19.6242331,93.9929899 L19.6242331,93.7620444 L19.6242331,90.8787409 L39.2487909,80.0372817 L58.8733488,90.9939432 L58.8733488,93.7620444 L58.8733488,93.9929899 L57.1416587,93.0702895 C57.0961876,93.0400016 57.0490926,93.0140405 57.0003736,92.9918654 L39.8258405,83.4971377 C39.554638,83.3164918 39.2130636,83.2797136 38.9110058,83.3819354 L38.6717413,83.3819354 L38.6717413,83.3819354 Z M57.7187083,117.9832 L60.0274479,117.9832 L60.0274479,106.449445 L57.7187083,106.449445 L57.7187083,117.9832 Z M6.81059256,74.1549315 L62.4514893,74.1549315 L64.5296256,92.6089393 L61.1815471,92.6089393 L61.1815471,90.3021883 C61.1815471,89.8408381 60.9509438,89.4946903 60.6044975,89.2642856 L39.8258405,77.7305307 C39.4793942,77.4995852 39.0176463,77.4995852 38.6717413,77.7305307 L17.8930843,89.2642856 C17.546638,89.4946903 17.3154934,89.8408381 17.3154934,90.3021883 L17.3154934,92.6089393 L4.73299752,92.6089393 L6.81059256,74.1549315 Z M68.1083074,92.6089393 L66.8383653,92.6089393 L64.6449273,72.8860833 C64.5296256,72.3095307 64.0678777,71.8481805 63.4908281,71.8481805 L5.77179504,71.8481805 C5.19474545,71.8481805 4.73299752,72.3095307 4.61769587,72.8860833 L2.42425785,92.6089393 L1.1543157,92.6089393 C0.461964463,92.6089393 0.000216528926,93.0702895 0.000216528926,93.7620444 L0.000216528926,100.682297 C0.000216528926,101.374593 0.461964463,101.835943 1.1543157,101.835943 L2.30841488,101.835943 L2.30841488,129.516955 C2.30841488,130.209251 2.77016281,130.67006 3.46305537,130.67006 L21.9329727,130.67006 L32.3225719,130.67006 L46.1750099,130.67006 L56.5640678,130.67006 L65.7995678,130.67006 C66.491919,130.67006 66.9536669,130.209251 66.9536669,129.516955 L66.9536669,101.835943 L68.1077661,101.835943 C68.8006587,101.835943 69.2624066,101.374593 69.2624066,100.682297 L69.2624066,93.7620444 C69.2624066,93.0702895 68.8006587,92.6089393 68.1083074,92.6089393 L68.1083074,92.6089393 Z" id="Fill-3" fill="#EBF1FF"></path>
                            <path d="M42.7117921,117.983254 L41.557693,117.983254 C40.8648004,117.983254 40.4030525,118.444604 40.4030525,119.136359 C40.4030525,119.828655 40.8648004,120.290005 41.557693,120.290005 L42.7117921,120.290005 C43.4046847,120.290005 43.8658913,119.828655 43.8658913,119.136359 C43.8658913,118.444604 43.4046847,117.983254 42.7117921,117.983254" id="Fill-4" fill="#EBF1FF"></path>
                            <path d="M33.4768876,99.5291922 C33.4768876,96.2997409 36.0162306,93.7620444 39.2490074,93.7620444 C42.481243,93.7620444 45.020586,96.2997409 45.020586,99.5291922 L45.020586,100.682297 L33.4768876,100.682297 L33.4768876,99.5291922 Z M32.3222471,102.989589 L46.1746851,102.989589 C46.8675777,102.989589 47.3293256,102.528239 47.3293256,101.835943 L47.3293256,99.5291922 C47.3293256,95.0308926 43.7506438,91.4558342 39.2484661,91.4558342 C34.7468298,91.4558342 31.1681479,95.0308926 31.1681479,99.5291922 L31.1681479,101.835943 C31.1681479,102.528239 31.6298959,102.989589 32.3222471,102.989589 L32.3222471,102.989589 Z" id="Fill-5" fill="#EBF1FF"></path>
                            <path d="M69.2275455,34.3451693 C68.858905,28.0696167 63.6816983,23.053177 57.4391694,23.053177 C53.6493719,23.053177 49.9797479,24.9104767 47.7067355,27.9398113 C47.6547686,27.9127685 47.5995537,27.8938385 47.5465041,27.8689591 C47.4084669,27.801893 47.2682645,27.7386128 47.124814,27.6812821 C47.0452397,27.6499125 46.9656653,27.6212471 46.8855496,27.5936634 C46.7437231,27.5439047 46.6002727,27.5000953 46.4535744,27.460072 C46.3734587,27.4384377 46.2938843,27.4162626 46.212686,27.3984144 C46.0557025,27.3627179 45.8954711,27.3356751 45.7336157,27.3107957 C45.6627025,27.3005195 45.5939545,27.2864572 45.5225,27.2788852 C45.290814,27.2529241 45.0564215,27.2372393 44.8182397,27.2372393 C41.3548595,27.2372393 38.5372769,30.0518541 38.5372769,33.5127918 C38.5372769,33.6025739 38.5432314,33.6901926 38.549186,33.7783521 C35.6460744,35.3592743 33.6523843,38.6720175 33.6523843,41.987465 C33.6523843,46.9260214 37.6733264,50.9445817 42.6166818,50.9445817 L46.2143099,50.9445817 C46.6002727,50.9445817 46.9120744,50.6330486 46.9120744,50.2474183 C46.9120744,49.8617879 46.6002727,49.5502549 46.2143099,49.5502549 L42.6166818,49.5502549 C38.4430868,49.5502549 35.0479132,46.1580058 35.0479132,41.987465 C35.0479132,39.0906401 36.9360455,36.0840214 39.5376405,34.8378891 L39.9333471,34.6491304 L39.9333471,34.2099553 C39.9333471,34.1261226 39.9387603,34.0412082 39.9436322,33.9552121 L39.9512107,33.8264883 L39.9425496,33.6912743 C39.938219,33.6317802 39.9333471,33.5728268 39.9333471,33.5127918 C39.9333471,30.8220331 42.1251612,28.6315661 44.8182397,28.6315661 C45.0342273,28.6315661 45.2469669,28.6504961 45.458624,28.6786206 C45.5127562,28.6851109 45.5674298,28.6943054 45.6210207,28.7035 C45.8072355,28.7343288 45.9907438,28.7743521 46.1715455,28.8268152 C46.195905,28.8338463 46.2213471,28.838714 46.2457066,28.8457451 C46.4443719,28.906321 46.6387066,28.9831226 46.8281694,29.0696595 C46.8779711,29.0918346 46.9261488,29.1161732 46.9748678,29.1399708 C47.1421364,29.2227218 47.306157,29.3135856 47.4647645,29.4163482 C48.8094091,30.2860447 49.7036736,31.7961148 49.7036736,33.5127918 C49.7036736,33.8984222 50.0154752,34.2099553 50.401438,34.2099553 C50.7874008,34.2099553 51.0992025,33.8984222 51.0992025,33.5127918 C51.0992025,31.5922121 50.2298388,29.8733716 48.8662479,28.7213482 C50.8669752,26.1068502 54.1614628,24.4480447 57.4391694,24.4480447 C62.8442727,24.4480447 67.3334587,28.7256751 67.8017025,34.1315311 C67.0893223,34.0817724 66.0207521,34.0558113 64.9521818,34.2180681 C64.5710909,34.2759397 64.3096322,34.631823 64.3675537,35.0125856 C64.420062,35.3576518 64.7172479,35.6053638 65.0561157,35.6053638 C65.0913017,35.6053638 65.1270289,35.6021187 65.1616736,35.5967101 C66.7158099,35.3619786 68.3354463,35.582107 68.430719,35.5956284 C71.6797355,36.2127451 74.129219,39.2031381 74.129219,42.5575272 C74.129219,46.412749 70.9895496,49.5502549 67.1310041,49.5502549 L64.3588926,49.5502549 C63.9729298,49.5502549 63.6611281,49.8617879 63.6611281,50.2474183 C63.6611281,50.6330486 63.9729298,50.9445817 64.3588926,50.9445817 L67.1310041,50.9445817 C71.7593099,50.9445817 75.5252893,47.1818463 75.5252893,42.5575272 C75.5252893,38.73043 72.854405,35.2976167 69.2275455,34.3451693" id="Fill-6" fill="#EBF1FF"></path>
                            <path d="M64.359055,49.8205747 C64.1230384,49.8205747 63.9319517,50.0120377 63.9319517,50.2473101 C63.9319517,50.4825825 64.1230384,50.6740455 64.359055,50.6740455 L67.1311665,50.6740455 C71.6106087,50.6740455 75.2547905,47.0330027 75.2547905,42.5579599 C75.2547905,38.8785163 72.691088,35.5344035 69.1589599,34.6068354 L68.9694971,34.5565358 L68.957588,34.3612868 C68.5938194,28.1722712 63.5346211,23.3240377 57.4387905,23.3240377 C53.7253194,23.3240377 50.1682905,25.1099444 47.9239682,28.1019599 L47.785931,28.285851 L47.5823938,28.1798432 C47.5591169,28.1679444 47.5347574,28.1582089 47.5109393,28.1484735 L47.4313649,28.1138588 C47.2960343,28.0478743 47.1607037,27.9867576 47.0242905,27.9321311 C46.9501293,27.9034658 46.8738029,27.8753412 46.7974764,27.8488393 C46.6605219,27.801244 46.523026,27.7590572 46.3822822,27.7211973 L46.3303153,27.707135 C46.2718525,27.6909093 46.2133897,27.6752245 46.1533029,27.6617031 C46.002274,27.6276292 45.8485384,27.6016681 45.6926376,27.5778704 L45.6108979,27.5654307 C45.5719227,27.5583996 45.5334888,27.5519093 45.493431,27.5475825 C45.2509186,27.5210805 45.0306004,27.5075591 44.8184021,27.5075591 C41.5044269,27.5075591 38.8081004,30.201563 38.8081004,33.5126837 C38.8081004,33.5959755 38.814055,33.6776447 38.8194682,33.7587732 L38.8319186,33.9323879 L38.6792657,34.0156798 C35.8346169,35.5646914 33.9226665,38.7681817 33.9226665,41.9873568 C33.9226665,46.7771778 37.8228938,50.6740455 42.6168442,50.6740455 L46.213931,50.6740455 C46.4499475,50.6740455 46.6415756,50.4825825 46.6415756,50.2473101 C46.6415756,50.0120377 46.4499475,49.8205747 46.213931,49.8205747 L42.6168442,49.8205747 C38.2943855,49.8205747 34.7779558,46.3066331 34.7779558,41.9873568 C34.7779558,38.9920961 36.7305054,35.8827148 39.4208773,34.5943957 L39.6628483,34.4786525 L39.6628483,34.2098471 C39.6628483,34.1298004 39.6671789,34.0481311 39.6720508,33.965921 L39.6812533,33.8096136 L39.6725921,33.7090144 C39.6671789,33.6332946 39.6628483,33.5732595 39.6628483,33.5126837 C39.6628483,30.6721078 41.9753773,28.36103 44.8184021,28.36103 C45.0235632,28.36103 45.2384682,28.3767148 45.493431,28.4102479 C45.5508112,28.4178198 45.6081913,28.4270144 45.6655715,28.4367498 C45.8615302,28.4686603 46.0558649,28.5119288 46.247493,28.567637 L46.3243607,28.5871078 C46.5224847,28.6476837 46.7238566,28.7250261 46.9403855,28.8234619 L47.0611004,28.8807926 C47.2722161,28.9851778 47.4448979,29.0809093 47.6121665,29.1890805 C49.0910591,30.1463957 49.9744971,31.7624735 49.9744971,33.5126837 C49.9744971,33.747956 50.1655839,33.9394191 50.4016004,33.9394191 C50.6370756,33.9394191 50.8287037,33.747956 50.8287037,33.5126837 C50.8287037,31.7467887 50.0497409,30.0755436 48.6915632,28.9283879 L48.4945219,28.7618043 L48.650964,28.5573607 C50.7188153,25.8557848 54.0852988,24.1775086 57.4387905,24.1775086 C62.9191376,24.1775086 67.5891252,28.5395125 68.0709021,34.108707 L68.0985095,34.4240261 L67.7823773,34.4013101 C67.0851541,34.3520922 66.0349888,34.3272128 64.9929434,34.4851428 C64.8803483,34.5024502 64.780745,34.5630261 64.7130798,34.6544307 C64.6454145,34.7463763 64.6183483,34.8588743 64.6351293,34.9719132 C64.669774,35.1996136 64.883055,35.3651156 65.1190715,35.3299599 C66.6856583,35.0925241 68.2901376,35.3029171 68.4676913,35.3277965 C71.8558277,35.9708743 74.4000426,39.0780922 74.4000426,42.5579599 C74.4000426,46.562458 71.1391169,49.8205747 67.1311665,49.8205747 L64.359055,49.8205747 Z M67.1311665,51.2149016 L64.359055,51.2149016 C63.8253112,51.2149016 63.3906293,50.7805942 63.3906293,50.2473101 C63.3906293,49.7140261 63.8253112,49.2797187 64.359055,49.2797187 L67.1311665,49.2797187 C70.8408483,49.2797187 73.8587202,46.2644463 73.8587202,42.5579599 C73.8587202,39.3333763 71.5034269,36.4543996 68.3799971,35.8610805 C68.3258649,35.8540494 66.7143483,35.6360844 65.2024351,35.8637848 C64.7006293,35.9454541 64.1787946,35.5706409 64.0997616,35.0530416 C64.0607864,34.7977576 64.1235798,34.5419327 64.2773153,34.334244 C64.4305095,34.1260144 64.6556996,33.9897187 64.911745,33.950777 C65.8520219,33.8079911 66.7939227,33.8074502 67.5003483,33.8426058 C66.8978566,28.7012284 62.5375054,24.7183646 57.4387905,24.7183646 C54.3332244,24.7183646 51.2152079,26.2333023 49.2366748,28.687707 C50.5959351,29.9300533 51.370026,31.6737732 51.370026,33.5126837 C51.370026,34.0459677 50.9353442,34.4802751 50.4016004,34.4802751 C49.8673153,34.4802751 49.4331748,34.0459677 49.4331748,33.5126837 C49.4331748,31.9469054 48.6423029,30.5001156 47.3182285,29.6433996 C47.1677409,29.5460455 47.0129227,29.4605903 46.8548566,29.3821661 L46.7168194,29.3156409 C46.5214021,29.2269405 46.3416831,29.1577109 46.166836,29.1041661 L46.1717079,28.8272479 L46.096464,29.0868588 C45.9259475,29.0371 45.7527244,28.9992401 45.577336,28.9700339 L45.4230591,28.9462362 C45.1919145,28.9159482 44.999745,28.901886 44.8184021,28.901886 C42.2741872,28.901886 40.2041707,30.9701195 40.2041707,33.5126837 C40.2041707,33.560279 40.2079599,33.6073335 40.2112079,33.6543879 L40.221493,33.8085319 L40.2139145,33.9718704 C40.2085012,34.0681428 40.2041707,34.1395358 40.2041707,34.2098471 L40.2041707,34.8199327 L39.6541872,35.0822479 C37.1424517,36.2856525 35.3192781,39.1895086 35.3192781,41.9873568 C35.3192781,46.0086214 38.5926541,49.2797187 42.6168442,49.2797187 L46.213931,49.2797187 C46.7482161,49.2797187 47.1828979,49.7140261 47.1828979,50.2473101 C47.1828979,50.7805942 46.7482161,51.2149016 46.213931,51.2149016 L42.6168442,51.2149016 C37.5246252,51.2149016 33.3813442,47.0757304 33.3813442,41.9873568 C33.3813442,38.6335086 35.339307,35.295886 38.2694847,33.6246409 C38.2678607,33.5873218 38.2667781,33.5500027 38.2667781,33.5126837 C38.2667781,29.9030105 41.2061583,26.9667031 44.8184021,26.9667031 C45.0506293,26.9667031 45.2904351,26.9807654 45.5529764,27.0099716 C45.6016955,27.0153802 45.6504145,27.023493 45.6996748,27.0316058 L45.772212,27.0435047 C45.9427285,27.0689249 46.1089145,27.0975903 46.2723938,27.1343685 C46.3395178,27.1495125 46.4055591,27.1668198 46.4716004,27.1846681 L46.5251913,27.1992712 C46.6773029,27.2403763 46.8272492,27.286349 46.9750302,27.3382712 C47.0578525,27.3669366 47.1401335,27.3966837 47.2234971,27.429135 C47.3599103,27.4837615 47.4925343,27.5432556 47.6224517,27.6054541 C49.9750384,24.581528 53.6278814,22.7831817 57.4387905,22.7831817 C63.7571045,22.7831817 69.0117202,27.7541895 69.4853773,34.1357498 C73.1533773,35.1925825 75.7961128,38.7027381 75.7961128,42.5579599 C75.7961128,47.3315553 71.9088773,51.2149016 67.1311665,51.2149016 L67.1311665,51.2149016 Z" id="Fill-7" fill="#EBF1FF"></path>
                            <path d="M165.54719,118.097537 L206.001289,118.097537 L206.001289,95.6422763 L165.54719,95.6422763 L165.54719,118.097537 Z M164.04881,119.594626 L207.499669,119.594626 L207.499669,94.1457276 L164.04881,94.1457276 L164.04881,119.594626 Z" id="Fill-8" fill="#EBF1FF"></path>
                            <path d="M165.54719,120.343171 L206.001289,120.343171 L206.001289,119.594626 L165.54719,119.594626 L165.54719,120.343171 Z M164.04881,121.83972 L207.499669,121.83972 L207.499669,118.096996 L164.04881,118.096996 L164.04881,121.83972 Z" id="Fill-9" fill="#EBF1FF"></path>
                            <path d="M165.54719,122.588265 L206.001289,122.588265 L206.001289,121.83972 L165.54719,121.83972 L165.54719,122.588265 Z M164.04881,124.085354 L207.499669,124.085354 L207.499669,120.34263 L164.04881,120.34263 L164.04881,124.085354 Z" id="Fill-10" fill="#EBF1FF"></path>
                            <path d="M165.54719,124.833899 L206.001289,124.833899 L206.001289,124.085354 L165.54719,124.085354 L165.54719,124.833899 Z M164.04881,126.330988 L207.499669,126.330988 L207.499669,122.588265 L164.04881,122.588265 L164.04881,126.330988 Z" id="Fill-11" fill="#EBF1FF"></path>
                            <path d="M165.54719,127.079533 L206.001289,127.079533 L206.001289,126.330988 L165.54719,126.330988 L165.54719,127.079533 Z M164.04881,128.576623 L207.499669,128.576623 L207.499669,124.833899 L164.04881,124.833899 L164.04881,128.576623 Z" id="Fill-12" fill="#EBF1FF"></path>
                            <path d="M165.54719,129.325167 L206.001289,129.325167 L206.001289,128.576623 L165.54719,128.576623 L165.54719,129.325167 Z M164.04881,130.821716 L207.499669,130.821716 L207.499669,127.078992 L164.04881,127.078992 L164.04881,130.821716 Z" id="Fill-13" fill="#EBF1FF"></path>
                            <path d="M185.77424,97.8878023 C180.829802,97.8878023 176.7845,101.929619 176.7845,106.869798 C176.7845,111.809977 180.829802,115.851795 185.77424,115.851795 C190.718678,115.851795 194.763979,111.809977 194.763979,106.869798 C194.763979,101.929619 190.718678,97.8878023 185.77424,97.8878023 M185.77424,117.348884 C180.005909,117.348884 175.28612,112.63316 175.28612,106.869798 C175.28612,101.106437 180.005909,96.3907128 185.77424,96.3907128 C191.54257,96.3907128 196.26236,101.106437 196.26236,106.869798 C196.26236,112.63316 191.54257,117.348884 185.77424,117.348884" id="Fill-14" fill="#EBF1FF"></path>
                            <path d="M173.787902,114.354867 L178.432448,114.354867 C176.410067,112.408867 175.286282,109.714323 175.286282,106.869961 C175.286282,104.025599 176.410067,101.331054 178.432448,99.3845132 L173.787902,99.3845132 C173.637956,101.779965 171.690278,103.651326 169.292762,103.875782 L169.292762,109.86414 C171.690278,110.088595 173.563253,111.959416 173.787902,114.354867 L173.787902,114.354867 Z M183.226939,115.851957 L172.214819,115.851957 L172.289522,115.028774 L172.289522,114.72914 C172.289522,112.857778 170.791142,111.360688 168.918708,111.360688 L168.618815,111.360688 L167.794923,111.435867 L167.794923,102.304054 L168.618815,102.378692 L168.918708,102.378692 C170.791142,102.378692 172.289522,100.881603 172.289522,99.0107817 L172.289522,98.7111475 L172.214819,97.8879646 L183.226939,97.8879646 L181.054613,99.235237 C178.357745,100.956782 176.784662,103.801144 176.784662,106.869961 C176.784662,109.938778 178.357745,112.78314 180.97991,114.504684 L183.226939,115.851957 Z" id="Fill-15" fill="#EBF1FF"></path>
                            <path d="M193.115869,114.354867 L197.760415,114.354867 C197.910361,111.959416 199.858039,110.088595 202.255555,109.863599 L202.255555,103.875782 C199.858039,103.725965 197.985605,101.779965 197.760415,99.3845132 L193.115869,99.3845132 C195.138791,101.331054 196.262035,104.025599 196.262035,106.869961 C196.262035,109.714323 195.138791,112.408867 193.115869,114.354867 L193.115869,114.354867 Z M199.334039,115.851957 L188.321378,115.851957 L190.493704,114.504684 C193.115869,112.857778 194.688952,110.013416 194.688952,106.869961 C194.688952,103.725965 193.115869,100.956782 190.493704,99.235237 L188.321378,97.8879646 L199.334039,97.8879646 L199.258795,98.7111475 L199.258795,99.0102409 C199.258795,100.881603 200.757175,102.378692 202.63015,102.378692 L202.929502,102.378692 L203.753936,102.304054 L203.753936,111.435867 L202.929502,111.360688 L202.63015,111.360688 C200.757175,111.360688 199.258795,112.857778 199.258795,114.72914 L199.258795,115.028233 L199.334039,115.851957 Z" id="Fill-16" fill="#EBF1FF"></path>
                            <path d="M168.918383,97.8878023 C168.319139,97.8878023 167.794598,98.4118918 167.794598,99.0106195 C167.794598,99.6093471 168.319139,100.133437 168.918383,100.133437 C169.517627,100.133437 170.042168,99.6093471 170.042168,99.0106195 C170.042168,98.4118918 169.517627,97.8878023 168.918383,97.8878023 M168.918383,101.630526 C167.495247,101.630526 166.296218,100.43253 166.296218,99.0106195 C166.296218,97.5881681 167.494705,96.3907128 168.918383,96.3907128 C170.342061,96.3907128 171.540548,97.5881681 171.540548,99.0106195 C171.540548,100.43253 170.342061,101.630526 168.918383,101.630526 M202.630313,97.8878023 C202.030528,97.8878023 201.506528,98.4118918 201.506528,99.0106195 C201.506528,99.6093471 202.030528,100.133437 202.630313,100.133437 C203.229557,100.133437 203.753557,99.6093471 203.753557,99.0106195 C203.753557,98.4118918 203.229557,97.8878023 202.630313,97.8878023 M202.630313,101.630526 C201.206635,101.630526 200.008148,100.43253 200.008148,99.0106195 C200.008148,97.5881681 201.206635,96.3907128 202.630313,96.3907128 C204.053449,96.3907128 205.251937,97.5881681 205.251937,99.0106195 C205.251937,100.43253 204.053449,101.630526 202.630313,101.630526 M168.918383,113.60616 C168.319139,113.60616 167.794598,114.13025 167.794598,114.728977 C167.794598,115.327705 168.319139,115.851795 168.918383,115.851795 C169.517627,115.851795 170.042168,115.327705 170.042168,114.728977 C170.042168,114.13025 169.517627,113.60616 168.918383,113.60616 M168.918383,117.348884 C167.495247,117.348884 166.296218,116.151429 166.296218,114.728977 C166.296218,113.307067 167.494705,112.109071 168.918383,112.109071 C170.342061,112.109071 171.540548,113.307067 171.540548,114.728977 C171.540548,116.151429 170.342061,117.348884 168.918383,117.348884 M202.630313,113.60616 C202.030528,113.60616 201.506528,114.13025 201.506528,114.728977 C201.506528,115.327705 202.030528,115.851795 202.630313,115.851795 C203.229557,115.851795 203.753557,115.327705 203.753557,114.728977 C203.753557,114.13025 203.229557,113.60616 202.630313,113.60616 M202.630313,117.348884 C201.206635,117.348884 200.008148,116.151429 200.008148,114.728977 C200.008148,113.307067 201.206635,112.109071 202.630313,112.109071 C204.053449,112.109071 205.251937,113.307067 205.251937,114.728977 C205.251937,116.151429 204.053449,117.348884 202.630313,117.348884" id="Fill-17" fill="#EBF1FF"></path>
                            <path d="M180.979802,114.429938 C182.402938,115.327759 184.051265,115.851849 185.774294,115.851849 C187.497323,115.851849 189.145649,115.402938 190.568786,114.429938 L188.246513,112.258942 C187.497323,111.585576 187.19743,110.687214 187.347376,109.788853 C187.347376,109.639035 187.42262,109.564397 187.42262,109.41458 C187.497323,109.190125 187.721971,108.96567 188.17181,108.44158 C188.321215,108.217125 188.621108,107.917491 188.771054,107.768214 L188.771054,107.46858 L189.145649,107.318763 C189.669649,107.094308 189.819595,106.795214 189.819595,106.645397 C189.969542,105.747035 188.771054,104.249946 188.17181,103.651218 C186.074186,101.855035 183.601967,102.528401 182.702831,102.902674 C182.777533,103.426763 183.077426,104.249946 183.302075,104.474401 L184.351157,104.848674 L183.526724,105.597218 C183.002724,106.121308 182.777533,106.869853 182.777533,107.618397 C182.777533,108.067308 183.077426,108.366942 183.526724,108.741214 C183.751914,108.96567 184.051265,109.190125 184.126509,109.489759 C184.201211,109.714214 184.275914,110.013308 184.275914,110.312942 C184.275914,111.061487 183.976562,111.810032 183.302075,112.33358 L180.979802,114.429938 Z M185.774294,117.348938 C183.376777,117.348938 181.204451,116.600393 179.331476,115.103304 L178.657529,114.579214 L182.402938,111.211304 C182.702831,110.91167 182.852777,110.612576 182.852777,110.312942 L182.852777,110.088487 C182.777533,110.013308 182.702831,110.013308 182.628129,109.93867 C182.17829,109.564397 181.354397,108.890491 181.354397,107.693035 C181.354397,106.795214 181.579046,105.971491 182.103587,105.222946 C181.504343,104.325125 181.204451,102.902674 181.4291,102.229308 L181.504343,101.929674 L181.803695,101.779856 C181.953641,101.705218 185.998943,99.6840393 189.370298,102.603039 C189.67019,102.902674 191.842517,105.073129 191.467922,106.944491 C191.393219,107.46858 191.093327,108.141946 190.119488,108.591397 C189.969542,108.815853 189.744893,109.040308 189.370298,109.489759 C189.220352,109.639035 188.995703,109.864032 188.920459,110.013308 L188.920459,110.088487 C188.845757,110.462759 188.995703,110.91167 189.370298,111.211304 L193.041005,114.579214 L192.217112,115.103304 C190.344137,116.600393 188.171269,117.348938 185.774294,117.348938 L185.774294,117.348938 Z" id="Fill-18" fill="#EBF1FF"></path>
                            <path d="M148.766198,81.8742451 L189.220298,81.8742451 L189.220298,59.4189844 L148.766198,59.4189844 L148.766198,81.8742451 Z M147.267818,83.3713346 L190.718678,83.3713346 L190.718678,57.9224358 L147.267818,57.9224358 L147.267818,83.3713346 Z" id="Fill-19" fill="#EBF1FF"></path>
                            <path d="M148.766198,84.1198794 L189.220298,84.1198794 L189.220298,83.3713346 L148.766198,83.3713346 L148.766198,84.1198794 Z M147.267818,85.6169689 L190.718678,85.6169689 L190.718678,81.8742451 L147.267818,81.8742451 L147.267818,85.6169689 Z" id="Fill-20" fill="#EBF1FF"></path>
                            <path d="M148.766198,86.3655136 L189.220298,86.3655136 L189.220298,85.6169689 L148.766198,85.6169689 L148.766198,86.3655136 Z M147.267818,87.8626031 L190.718678,87.8626031 L190.718678,84.1198794 L147.267818,84.1198794 L147.267818,87.8626031 Z" id="Fill-21" fill="#EBF1FF"></path>
                            <path d="M148.766198,88.6111479 L189.220298,88.6111479 L189.220298,87.8626031 L148.766198,87.8626031 L148.766198,88.6111479 Z M147.267818,90.1082374 L190.718678,90.1082374 L190.718678,86.3655136 L147.267818,86.3655136 L147.267818,90.1082374 Z" id="Fill-22" fill="#EBF1FF"></path>
                            <path d="M148.766198,90.8567821 L189.220298,90.8567821 L189.220298,90.1082374 L148.766198,90.1082374 L148.766198,90.8567821 Z M147.267818,92.3533307 L190.718678,92.3533307 L190.718678,88.610607 L147.267818,88.610607 L147.267818,92.3533307 Z" id="Fill-23" fill="#EBF1FF"></path>
                            <path d="M148.766198,93.1018755 L189.220298,93.1018755 L189.220298,92.3533307 L148.766198,92.3533307 L148.766198,93.1018755 Z M147.267818,94.598965 L190.718678,94.598965 L190.718678,90.8562412 L147.267818,90.8562412 L147.267818,94.598965 Z" id="Fill-24" fill="#EBF1FF"></path>
                            <path d="M168.993302,61.6648891 C164.048864,61.6648891 160.003562,65.7067062 160.003562,70.6468852 C160.003562,75.5870642 164.048864,79.6288813 168.993302,79.6288813 C173.93774,79.6288813 177.983042,75.5870642 177.983042,70.6468852 C177.983042,65.7067062 173.93774,61.6648891 168.993302,61.6648891 M168.993302,81.1259708 C163.224971,81.1259708 158.505182,76.4102471 158.505182,70.6468852 C158.505182,64.8835233 163.224971,60.1677996 168.993302,60.1677996 C174.761633,60.1677996 179.481422,64.8835233 179.481422,70.6468852 C179.481422,76.4102471 174.761633,81.1259708 168.993302,81.1259708" id="Fill-25" fill="#EBF1FF"></path>
                            <path d="M157.006964,78.1319541 L161.65151,78.1319541 C159.62913,76.1859541 158.505345,73.4914093 158.505345,70.6470475 C158.505345,67.8026856 159.62913,65.1081409 161.65151,63.1621409 L157.006964,63.1621409 C156.857018,65.5570514 154.90934,67.4284132 152.511824,67.6528685 L152.511824,73.6412265 C154.90934,73.8656817 156.782316,75.7365027 157.006964,78.1319541 L157.006964,78.1319541 Z M166.446002,79.6290436 L155.433882,79.6290436 L155.508584,78.8058607 L155.508584,78.5062265 C155.508584,76.6348646 154.010204,75.1377751 152.13777,75.1377751 L151.837878,75.1377751 L151.013985,75.2129541 L151.013985,66.0811409 L151.837878,66.155779 L152.13777,66.155779 C154.010204,66.155779 155.508584,64.6586895 155.508584,62.7878685 L155.508584,62.4882342 L155.433882,61.6650514 L166.446002,61.6650514 L164.273675,63.0123237 C161.576807,64.7338685 160.003725,67.5782304 160.003725,70.6470475 C160.003725,73.7158646 161.576807,76.5602265 164.198973,78.2817712 L166.446002,79.6290436 Z" id="Fill-26" fill="#EBF1FF"></path>
                            <path d="M176.334932,78.1319541 L180.979477,78.1319541 C181.129424,75.7365027 183.077101,73.8656817 185.474618,73.6406856 L185.474618,67.6528685 C183.077101,67.5030514 181.204667,65.5570514 180.979477,63.1616 L176.334932,63.1616 C178.357853,65.1081409 179.481097,67.8026856 179.481097,70.6470475 C179.481097,73.4914093 178.357853,76.1859541 176.334932,78.1319541 L176.334932,78.1319541 Z M182.553101,79.6290436 L171.54044,79.6290436 L173.712767,78.2817712 C176.334932,76.6348646 177.908014,73.7905027 177.908014,70.6470475 C177.908014,67.5030514 176.334932,64.7338685 173.712767,63.0123237 L171.54044,61.6650514 L182.553101,61.6650514 L182.477857,62.4882342 L182.477857,62.7878685 C182.477857,64.6586895 183.976238,66.155779 185.849213,66.155779 L186.149105,66.155779 L186.972998,66.0811409 L186.972998,75.2129541 L186.149105,75.1377751 L185.849213,75.1377751 C183.976238,75.1377751 182.477857,76.6348646 182.477857,78.5062265 L182.477857,78.8053198 L182.553101,79.6290436 Z" id="Fill-27" fill="#EBF1FF"></path>
                            <path d="M152.137445,61.6648891 C151.538202,61.6648891 151.01366,62.1889786 151.01366,62.7877062 C151.01366,63.3864339 151.538202,63.9105233 152.137445,63.9105233 C152.736689,63.9105233 153.261231,63.3864339 153.261231,62.7877062 C153.261231,62.1889786 152.736689,61.6648891 152.137445,61.6648891 M152.137445,65.4076128 C150.714309,65.4076128 149.51528,64.2096167 149.51528,62.7877062 C149.51528,61.3652549 150.713768,60.1677996 152.137445,60.1677996 C153.561123,60.1677996 154.759611,61.3652549 154.759611,62.7877062 C154.759611,64.2096167 153.561123,65.4076128 152.137445,65.4076128 M185.849375,61.6648891 C185.24959,61.6648891 184.72559,62.1889786 184.72559,62.7877062 C184.72559,63.3864339 185.24959,63.9105233 185.849375,63.9105233 C186.448619,63.9105233 186.972619,63.3864339 186.972619,62.7877062 C186.972619,62.1889786 186.448619,61.6648891 185.849375,61.6648891 M185.849375,65.4076128 C184.425698,65.4076128 183.22721,64.2096167 183.22721,62.7877062 C183.22721,61.3652549 184.425698,60.1677996 185.849375,60.1677996 C187.272512,60.1677996 188.470999,61.3652549 188.470999,62.7877062 C188.470999,64.2096167 187.272512,65.4076128 185.849375,65.4076128 M152.137445,77.3832471 C151.538202,77.3832471 151.01366,77.9073366 151.01366,78.5060642 C151.01366,79.1047918 151.538202,79.6288813 152.137445,79.6288813 C152.736689,79.6288813 153.261231,79.1047918 153.261231,78.5060642 C153.261231,77.9073366 152.736689,77.3832471 152.137445,77.3832471 M152.137445,81.1259708 C150.714309,81.1259708 149.51528,79.9285156 149.51528,78.5060642 C149.51528,77.0841537 150.713768,75.8861576 152.137445,75.8861576 C153.561123,75.8861576 154.759611,77.0841537 154.759611,78.5060642 C154.759611,79.9285156 153.561123,81.1259708 152.137445,81.1259708 M185.849375,77.3832471 C185.24959,77.3832471 184.72559,77.9073366 184.72559,78.5060642 C184.72559,79.1047918 185.24959,79.6288813 185.849375,79.6288813 C186.448619,79.6288813 186.972619,79.1047918 186.972619,78.5060642 C186.972619,77.9073366 186.448619,77.3832471 185.849375,77.3832471 M185.849375,81.1259708 C184.425698,81.1259708 183.22721,79.9285156 183.22721,78.5060642 C183.22721,77.0841537 184.425698,75.8861576 185.849375,75.8861576 C187.272512,75.8861576 188.470999,77.0841537 188.470999,78.5060642 C188.470999,79.9285156 187.272512,81.1259708 185.849375,81.1259708" id="Fill-28" fill="#EBF1FF"></path>
                            <path d="M164.198864,78.207079 C165.622001,79.1049 167.270327,79.6289895 168.993356,79.6289895 C170.716385,79.6289895 172.364712,79.180079 173.787848,78.207079 L171.465575,76.0360829 C170.716385,75.3627171 170.416493,74.4643553 170.566439,73.5659934 C170.566439,73.4161763 170.641683,73.3415381 170.641683,73.191721 C170.716385,72.9672658 170.941034,72.7428105 171.390873,72.218721 C171.540278,71.9942658 171.84017,71.6946315 171.990117,71.5453553 L171.990117,71.245721 L172.364712,71.0959039 C172.888712,70.8714486 173.038658,70.5718144 173.038658,70.4225381 C173.188604,69.5241763 171.990117,68.0270868 171.390873,67.4283591 C169.293249,65.6321763 166.82103,66.305542 165.921893,66.6798144 C165.996596,67.2039039 166.296488,68.0270868 166.521137,68.251542 L167.57022,68.6258144 L166.745786,69.3743591 C166.221786,69.8984486 165.996596,70.6469934 165.996596,71.3955381 C165.996596,71.8444486 166.296488,72.1440829 166.745786,72.5183553 C166.970976,72.7428105 167.270327,72.9672658 167.345571,73.2669 C167.420274,73.4913553 167.494976,73.7904486 167.494976,74.0900829 C167.494976,74.8386276 167.195625,75.5871724 166.521137,76.110721 L164.198864,78.207079 Z M168.993356,81.126079 C166.59584,81.126079 164.423513,80.3775342 162.550538,78.8804447 L161.876592,78.3563553 L165.622001,74.9884447 C165.921893,74.6888105 166.07184,74.3897171 166.07184,74.0900829 L166.07184,73.8656276 C165.996596,73.7904486 165.921893,73.7904486 165.847191,73.7158105 C165.397352,73.3415381 164.57346,72.6676315 164.57346,71.4701763 C164.57346,70.5723553 164.798108,69.7486315 165.32265,69.0000868 C164.723406,68.1022658 164.423513,66.6798144 164.648162,66.0064486 L164.723406,65.7068144 L165.022757,65.5569973 C165.172703,65.4823591 169.218005,63.4611802 172.58936,66.3801802 C172.889253,66.6798144 175.061579,68.8502696 174.686984,70.7216315 C174.612282,71.245721 174.312389,71.9190868 173.33855,72.3685381 C173.188604,72.5929934 172.963955,72.8174486 172.58936,73.2669 C172.439414,73.4161763 172.214765,73.6411724 172.139521,73.7904486 L172.139521,73.8656276 C172.064819,74.2399 172.214765,74.6888105 172.58936,74.9884447 L176.260067,78.3563553 L175.436174,78.8804447 C173.563199,80.3775342 171.390331,81.126079 168.993356,81.126079 L168.993356,81.126079 Z" id="Fill-29" fill="#EBF1FF"></path>
                            <path d="M196.277787,48.629123 L232.960494,31.5872903 L223.484105,11.2256833 L186.80194,28.267516 L196.277787,48.629123 Z M234.950395,32.3136599 L195.550791,50.6178506 L184.811498,27.5411463 L224.211101,9.23695564 L234.950395,32.3136599 Z" id="Fill-30" fill="#EBF1FF"></path>
                            <path d="M206.09077,21.7827603 C201.607538,23.8655969 199.644704,29.2346747 201.729336,33.7145852 C203.813968,38.1939549 209.188216,40.1550988 213.671448,38.0722623 C218.154679,35.9888848 220.117514,30.619807 218.032881,26.1404374 C215.948249,21.6605268 210.574001,19.6999237 206.09077,21.7827603 M214.303171,39.42927 C209.072373,41.8593362 202.802778,39.5715152 200.370617,34.3457642 C197.938997,29.1194724 200.228249,22.8552778 205.459047,20.4252117 C210.689844,17.9951455 216.959439,20.2829665 219.3916,25.5092584 C221.82322,30.7350093 219.533968,36.9992039 214.303171,39.42927" id="Fill-31" fill="#EBF1FF"></path>
                            <path d="M202.170893,41.7639833 L206.38238,39.8071661 C203.727194,38.894742 201.571107,36.9249444 200.370996,34.3456019 C199.170343,31.7662595 199.052335,28.8499638 200.065149,26.2327615 L195.853661,28.1895786 C196.728438,30.4243957 195.751893,32.9420805 193.673215,34.1552206 L196.200107,39.5854152 C198.468248,38.7789988 200.956165,39.6865553 202.170893,41.7639833 L202.170893,41.7639833 Z M211.362004,39.1451584 L201.376231,43.7840805 L201.096368,43.0057887 C201.064971,42.9381817 201.001636,42.8024268 200.97024,42.734279 C200.18045,41.0376136 198.190008,40.311244 196.49188,41.1003529 C196.424215,41.1322634 196.288343,41.1950027 196.220136,41.2269132 L195.504508,41.6417498 L191.651376,33.361244 L192.429798,33.0821623 C192.498004,33.0502518 192.633876,32.9875125 192.701541,32.9556019 C194.399669,32.1670339 195.126665,30.1783062 194.337417,28.4816409 C194.305479,28.413493 194.242145,28.2777381 194.210748,28.2101311 L193.795554,27.4951195 L203.781326,22.8556564 L202.379843,24.9925786 C200.660603,27.6898276 200.434331,30.9317187 201.729715,33.714423 C203.024558,36.4971272 205.651595,38.4133802 208.755537,38.8698626 L211.362004,39.1451584 Z" id="Fill-32" fill="#EBF1FF"></path>
                            <path d="M219.696906,33.6218284 L223.908394,31.6650113 C223.033617,29.4301942 224.010162,26.9130502 226.089381,25.6993693 L223.562489,20.2697156 C221.325204,21.1437389 218.80589,20.1680346 217.591162,18.0906066 L213.379675,20.0474237 C216.034861,20.9598479 218.190948,22.9301864 219.3916,25.5089879 C220.591712,28.0883304 220.70972,31.0051669 219.696906,33.6218284 L219.696906,33.6218284 Z M225.967043,32.3600113 L215.98127,36.9989335 L217.382753,34.8620113 C219.065183,32.2642798 219.291456,29.0223887 217.964675,26.1720774 C216.638435,23.3212253 214.042795,21.4725794 210.938852,21.0160969 L208.400592,20.7099724 L218.386365,16.0705093 L218.665687,16.8488012 C218.697084,16.9164082 218.760419,17.052163 218.791815,17.1203109 C219.581605,18.8169763 221.572047,19.5433459 223.270175,18.754237 C223.338381,18.7228673 223.474253,18.6595872 223.541919,18.6282175 L224.257547,18.2128401 L228.11122,26.4933459 L227.332257,26.7724276 C227.264592,26.8043381 227.12872,26.8670774 227.060514,26.8989879 C225.362386,27.6880969 224.63539,29.6762837 225.425179,31.3734899 C225.456576,31.4410969 225.51991,31.5768518 225.551307,31.6449996 L225.967043,32.3600113 Z" id="Fill-33" fill="#EBF1FF"></path>
                            <path d="M190.806372,28.883551 C190.262884,29.1361307 190.008463,29.8322125 190.26126,30.3752319 C190.514058,30.9177105 191.21074,31.1719128 191.753686,30.9198739 C192.297174,30.6672942 192.551595,29.9712125 192.299339,29.428193 C192.046541,28.8851735 191.34986,28.6309712 190.806372,28.883551 M192.38595,32.2774226 C191.094897,32.8766911 189.502868,32.2958117 188.902541,31.0064109 C188.302215,29.7164693 188.884136,28.1258117 190.174649,27.5260023 C191.465161,26.926193 193.057731,27.5076132 193.657517,28.797014 C194.257843,30.0864148 193.676463,31.6776132 192.38595,32.2774226 M221.375384,14.6817533 C220.831897,14.9343331 220.577475,15.6304148 220.829731,16.1734342 C221.082529,16.7164537 221.779211,16.970656 222.322698,16.7180763 C222.866186,16.4654965 223.120607,15.7694148 222.86781,15.2269362 C222.615012,14.6839167 221.918331,14.4297144 221.375384,14.6817533 M222.954421,18.0756249 C221.663909,18.6754342 220.071339,18.094014 219.471554,16.8046132 C218.871227,15.5152125 219.452607,13.924014 220.74312,13.3247455 C222.034174,12.7249362 223.626202,13.3058156 224.226529,14.5952163 C224.826855,15.885158 224.244934,17.4758156 222.954421,18.0756249 M197.439194,43.13673 C196.896248,43.3893097 196.641826,44.0848506 196.894083,44.62787 C197.14688,45.1708895 197.843562,45.4250918 198.38705,45.1725121 C198.930537,44.9204732 199.184959,44.2243914 198.932161,43.681372 C198.679364,43.1383525 197.982682,42.8841502 197.439194,43.13673 M199.018773,46.5300607 C197.72826,47.12987 196.13569,46.5489907 195.535905,45.259049 C194.935579,43.9696482 195.516959,42.3789907 196.807471,41.7791813 C198.098525,41.179372 199.690554,41.7602514 200.29088,43.050193 C200.891207,44.3395938 200.309285,45.9307922 199.018773,46.5300607 M228.008207,28.9349323 C227.464719,29.1875121 227.210298,29.8835938 227.463095,30.4266132 C227.715893,30.9696327 228.412574,31.223835 228.955521,30.9712553 C229.499008,30.7186755 229.75343,30.0225938 229.501174,29.4795743 C229.248376,28.9365549 228.551694,28.6823525 228.008207,28.9349323 M229.587785,32.3288039 C228.296731,32.9280724 226.704702,32.347193 226.104376,31.0577922 C225.50405,29.7678506 226.085971,28.177193 227.376483,27.5773837 C228.666996,26.9781152 230.259566,27.5589946 230.859351,28.8483953 C231.459678,30.138337 230.878298,31.7289946 229.587785,32.3288039" id="Fill-34" fill="#EBF1FF"></path>
                            <path d="M208.723978,38.8021475 C210.393416,39.0168673 212.108867,38.7978206 213.671664,38.0719918 C215.23392,37.346163 216.539048,36.2444393 217.418697,34.7624938 L214.397036,33.7727272 C213.433482,33.4774198 212.782813,32.789451 212.539759,31.9116416 C212.476424,31.7758868 212.512693,31.6763693 212.449358,31.5406144 C212.422833,31.305342 212.531639,31.0073304 212.718395,30.3426183 C212.759536,30.0759763 212.90461,29.6784471 212.977148,29.4794121 L212.851019,29.2079023 L213.127635,28.9142175 C213.508185,28.4896455 213.517929,28.1553965 213.454594,28.0196416 C213.21154,27.1418323 211.492842,26.2894432 210.696557,25.9990035 C208.036499,25.2537039 206.079077,26.9060191 205.421912,27.623735 C205.710978,28.067237 206.330251,28.6881397 206.628519,28.7968518 L207.737689,28.69463 L207.306255,29.720093 C207.051833,30.4161747 207.163887,31.1895988 207.480019,31.8683732 C207.669482,32.2756377 208.067354,32.421128 208.633036,32.5709451 C208.931305,32.6796572 209.29778,32.7569996 209.492114,32.9971397 C209.655052,33.1691319 209.849387,33.409272 209.975515,33.6807817 C210.291648,34.3590152 210.335495,35.1643498 209.945201,35.9231708 L208.723978,38.8021475 Z M214.303387,39.4295405 C212.129437,40.4393187 209.843433,40.6756728 207.513581,40.1072331 L206.681028,39.9163109 L208.656313,35.283879 C208.801387,34.8863498 208.811131,34.5515599 208.685003,34.2800502 C208.653065,34.2124432 208.621668,34.1442953 208.590271,34.0766883 C208.490668,34.040451 208.422462,34.0718206 208.3234,34.0355833 C207.757718,33.8857661 206.725957,33.6218284 206.220904,32.5357895 C205.841437,31.7212603 205.697986,30.8802292 205.857676,29.9807856 C204.935263,29.4182953 204.063193,28.254914 203.983077,27.5496377 L203.924614,27.2467584 L204.133024,26.9844432 C204.237499,26.853556 207.052916,23.3168984 211.341271,24.5435599 C211.739685,24.6890502 214.625474,25.7420969 215.075313,27.5966922 C215.228507,28.1034743 215.240957,28.8406611 214.547524,29.6578946 C214.506383,29.9245366 214.397577,30.2230891 214.24709,30.7882837 C214.174552,30.9867778 214.065747,31.2853304 214.060875,31.4524549 L214.092271,31.5206027 C214.182131,31.8910891 214.508007,32.2356144 214.973544,32.3491942 L219.723648,33.8571008 L219.197482,34.6792019 C218.131077,36.8258595 216.476796,38.4197623 214.303387,39.4295405 L214.303387,39.4295405 Z" id="Fill-35" fill="#EBF1FF"></path>
                            <path d="M209.40442,79.4905844 L250.640189,95.9201681 L259.775544,73.0311409 L218.539776,56.6015572 L209.40442,79.4905844 Z M251.558271,98.054386 L207.268362,80.4078763 L217.621693,54.4673393 L261.911602,72.1133082 L251.558271,98.054386 Z" id="Fill-36" fill="#EBF1FF"></path>
                            <path d="M238.244124,67.1050895 C233.204414,65.0968911 227.436083,67.5740117 225.426695,72.6099222 C223.416765,77.6452918 225.896021,83.4081128 230.935732,85.4163113 C235.975984,87.4245097 241.743773,84.9473891 243.753703,79.9114786 C245.763091,74.8761089 243.283835,69.1132879 238.244124,67.1050895 M230.326744,86.9420661 C224.446901,84.5996187 221.554616,77.8762374 223.899083,72.0014591 C226.244091,66.1266809 232.973269,63.2363463 238.853112,65.5793346 C244.732955,67.9217821 247.62524,74.6451634 245.280773,80.5199416 C242.936306,86.3947198 236.206587,89.2850545 230.326744,86.9420661" id="Fill-37" fill="#EBF1FF"></path>
                            <path d="M219.326912,79.0224735 L224.061317,80.9089794 C222.791375,78.1035591 222.742115,74.9006097 223.899462,72.0010805 C225.056268,69.1020922 227.297883,66.8115669 230.151735,65.6492673 L225.41733,63.7633023 C224.289755,66.1436097 221.543086,67.2599366 219.008074,66.5151778 L216.572123,72.619279 C218.924169,73.8216019 220.072313,76.4896447 219.326912,79.0224735 L219.326912,79.0224735 Z M228.339388,84.381816 L217.114528,79.9094774 L217.525392,79.1008977 C217.556247,79.0240961 217.616875,78.8715747 217.647189,78.795314 C218.40883,76.8882556 217.490206,74.7534969 215.581503,73.9930533 C215.505177,73.9627654 215.352524,73.9016486 215.276198,73.8713607 L214.405751,73.6128315 L218.120305,64.3046992 L218.930123,64.7157498 C219.00645,64.7460377 219.159102,64.8071545 219.235429,64.8374424 C221.144673,65.597886 223.280731,64.6805942 224.042371,62.7729949 C224.072685,62.6967342 224.133313,62.5442128 224.164169,62.4679521 L224.422379,61.5982556 L235.64778,66.0705942 L232.885412,66.5616914 C229.435565,67.2215358 226.674821,69.4817732 225.426532,72.6100844 C224.178243,75.7378549 224.624293,79.276135 226.596871,82.0961584 L228.339388,84.381816 Z" id="Fill-38" fill="#EBF1FF"></path>
                            <path d="M239.028392,86.8720253 L243.762797,88.7585311 C244.88983,86.3776829 247.6365,85.261356 250.171512,86.0061148 L252.608004,79.9020136 C250.225103,78.7759514 249.107814,76.0316479 249.853214,73.4988191 L245.11881,71.6123132 C246.388752,74.4177335 246.438012,77.6206829 245.280665,80.5202121 C244.123859,83.4192004 241.881702,85.7097257 239.028392,86.8720253 L239.028392,86.8720253 Z M244.757748,90.923037 L233.532347,86.4506984 L236.294714,85.9596012 C239.63738,85.3462704 242.398124,83.0854922 243.677268,79.8814611 C244.955871,76.6768891 244.478967,73.2148696 242.506929,70.3953872 L240.840198,68.1394767 L252.065599,72.6118152 L251.654735,73.4209358 C251.62388,73.4971965 251.563252,73.6497179 251.532938,73.7259786 C250.771297,75.6335778 251.68938,77.7677957 253.598624,78.5282393 C253.67495,78.5590681 253.827603,78.619644 253.903929,78.6499319 L254.774376,78.9084611 L251.059281,88.2165934 L250.250004,87.8055428 C250.173677,87.7752549 250.021024,87.714679 249.944698,87.6838502 C248.035454,86.9234066 245.899396,87.8406984 245.137756,89.7482977 C245.107442,89.8245584 245.046814,89.9770798 245.015958,90.0533405 L244.757748,90.923037 Z" id="Fill-39" fill="#EBF1FF"></path>
                            <path d="M221.0625,60.2595288 C220.451347,60.0161436 219.703781,60.3374121 219.460186,60.9474977 C219.216591,61.5581241 219.538136,62.3050463 220.148748,62.5484315 C220.759901,62.7918167 221.507467,62.4705482 221.751062,61.8604626 C221.994657,61.2498362 221.673653,60.502914 221.0625,60.2595288 M219.53976,64.0741864 C218.089017,63.4965521 217.354442,61.7885288 217.933116,60.3390346 C218.511789,58.8895405 220.220744,58.1555988 221.671488,58.7337739 C223.122231,59.3114082 223.856806,61.0188907 223.278674,62.4689257 C222.7,63.9184198 220.991045,64.6523615 219.53976,64.0741864 M255.42564,73.9507584 C254.815029,73.7073732 254.066921,74.0286416 253.823326,74.6387272 C253.579731,75.2493537 253.901277,75.9962759 254.51243,76.2396611 C255.123041,76.4830463 255.870607,76.1617778 256.114202,75.5516922 C256.357798,74.9410658 256.036793,74.1941436 255.42564,73.9507584 M253.903442,77.765416 C252.452157,77.1872409 251.717583,75.4797584 252.296256,74.0302642 C252.87493,72.58077 254.583884,71.8468284 256.034628,72.4244626 C257.485913,73.0026377 258.220488,74.7101202 257.641814,76.1601553 C257.06314,77.6096494 255.354186,78.3435911 253.903442,77.765416 M214.66786,76.2818479 C214.056707,76.0384626 213.30914,76.3597311 213.065545,76.9698167 C212.82195,77.5804432 213.143496,78.3273654 213.754107,78.5707506 C214.36526,78.8141358 215.112826,78.4928673 215.356421,77.8827817 C215.600017,77.2721553 215.278471,76.5252331 214.66786,76.2818479 M213.14512,80.0965054 C211.694376,79.5188712 210.959802,77.8108479 211.538475,76.3613537 C212.117149,74.9118595 213.826103,74.1779179 215.276847,74.756093 C216.727591,75.3337272 217.462165,77.0412097 216.884033,78.4912447 C216.30536,79.9407389 214.596405,80.6746805 213.14512,80.0965054 M249.031,89.9730774 C248.420388,89.7296922 247.672281,90.0504198 247.428686,90.6610463 C247.185091,91.2716728 247.506636,92.0185949 248.117789,92.2619802 C248.728401,92.5053654 249.475967,92.1840969 249.719562,91.5740113 C249.963157,90.9633848 249.642153,90.2164626 249.031,89.9730774 M247.50826,93.787735 C246.057517,93.2095599 245.322942,91.5020774 245.901616,90.0525833 C246.480289,88.6030891 248.189244,87.8691475 249.639988,88.4467817 C251.091273,89.0249568 251.825847,90.7324393 251.247174,92.1824743 C250.6685,93.6319685 248.959545,94.3659101 247.50826,93.787735" id="Fill-40" fill="#EBF1FF"></path>
                            <path d="M226.627348,82.0192486 C227.712699,83.513093 229.179682,84.7164977 230.935732,85.4163654 C232.692323,86.1162331 234.555013,86.3277078 236.401463,85.9139529 L234.917699,82.758058 C234.427802,81.7672097 234.487889,80.7298479 235.005934,79.8752953 C235.067104,79.7227739 235.173744,79.6768012 235.234914,79.5242798 C235.402182,79.3257856 235.722645,79.1878673 236.394426,78.8363109 C236.638562,78.6686455 237.065666,78.4852953 237.278947,78.3933498 L237.400744,78.088307 L237.843546,78.0877661 C238.469314,78.0715405 238.744306,77.8276144 238.804934,77.6745521 C239.32298,76.8199996 238.710203,74.8074743 238.343186,73.9534626 C236.935748,71.2702759 234.141984,70.9533342 233.073414,70.9695599 C232.936459,71.5342136 232.906686,72.4947739 233.044724,72.8149607 L233.961182,73.6224588 L232.816827,74.0508167 C232.069261,74.3720852 231.535517,75.0438284 231.231294,75.8064354 C231.048327,76.2645405 231.231835,76.6912759 231.538224,77.2553887 C231.675719,77.5755755 231.890083,77.9260502 231.844612,78.2619218 C231.829455,78.5209918 231.783984,78.8568634 231.662186,79.1619062 C231.357963,79.9250541 230.747893,80.5659685 229.847133,80.8261202 L226.627348,82.0192486 Z M230.326744,86.9421202 C227.883215,85.9685794 225.97343,84.3232953 224.673174,82.036556 L224.198976,81.229058 L229.38755,79.3165911 C229.814653,79.1332409 230.089104,78.8887739 230.211443,78.5837311 C230.241757,78.5074704 230.272071,78.4312097 230.302385,78.354949 C230.256372,78.2484004 230.180046,78.2175716 230.134575,78.111023 C229.828186,77.5469101 229.262505,76.5257739 229.749695,75.3050619 C230.115087,74.3893926 230.679145,73.6413887 231.518195,73.0913381 C231.272976,71.9322837 231.545802,70.3610969 232.049232,69.7656144 L232.247356,69.4908595 L232.613831,69.4600307 C232.796798,69.4443459 237.742319,69.0273459 239.991513,73.3720424 C240.175021,73.7987778 241.506133,76.8940969 240.363401,78.6491747 C240.073794,79.1527117 239.494038,79.7179062 238.318827,79.7801047 C238.07469,79.9483109 237.754228,80.0856883 237.189629,80.391272 C236.975806,80.4832175 236.655885,80.6205949 236.518389,80.7428284 L236.488075,80.8190891 C236.259095,81.1701047 236.229323,81.6887856 236.489157,82.1463498 L238.86069,87.0703031 L237.807819,87.269879 C235.289587,88.0351903 232.770273,87.9156611 230.326744,86.9421202 L230.326744,86.9421202 Z" id="Fill-41" fill="#EBF1FF"></path>
                            <path d="M134.324314,47.4285307 L167.598856,61.0894724 L175.19469,42.6197798 L141.92069,28.9588381 L134.324314,47.4285307 Z M168.324769,62.8272428 L132.585587,48.1538187 L141.194236,27.2216086 L176.933418,41.8944918 L168.324769,62.8272428 Z" id="Fill-42" fill="#EBF1FF"></path>
                            <path d="M157.797945,37.6363323 C153.73099,35.9667097 149.036102,37.9251494 147.36504,41.9886008 C145.693978,46.0515113 147.654106,50.7423556 151.72106,52.4119782 C155.788015,54.0816008 160.482903,52.1231611 162.153965,48.0602506 C163.825027,43.9967992 161.864899,39.3059549 157.797945,37.6363323 M151.214924,53.6435074 C146.470234,51.695344 144.183147,46.2229626 146.13299,41.4823595 C148.082292,36.7417564 153.559932,34.4571805 158.304081,36.4048031 C163.048771,38.3529665 165.335858,43.8253479 163.386015,48.565951 C161.436713,53.3065541 155.959073,55.5916708 151.214924,53.6435074" id="Fill-43" fill="#EBF1FF"></path>
                            <path d="M142.368472,47.1330611 L146.188584,48.7015436 C145.183348,46.4180494 145.170898,43.8219405 146.132828,41.4821973 C147.095299,39.1429949 148.930923,37.3062479 151.253195,36.3884152 L147.432543,34.8199327 C146.498762,36.7394307 144.264183,37.6204852 142.216361,36.9957965 L140.190733,41.9213724 C142.086443,42.9154658 142.9937,45.0870027 142.368472,47.1330611 L142.368472,47.1330611 Z M149.625981,51.5518549 L140.568034,47.8329288 L140.907985,47.1811973 C140.933427,47.1195397 140.984311,46.9967654 141.009753,46.9351078 C141.642559,45.3958315 140.916646,43.6586019 139.376043,43.0258004 C139.314332,43.000921 139.191452,42.9500805 139.129741,42.9246603 L138.426563,42.7083179 L141.515348,35.1969093 L142.168183,35.5371078 C142.229894,35.5619872 142.352774,35.6128276 142.414485,35.6382479 C143.955088,36.2705086 145.693815,35.5452206 146.326621,34.0059444 C146.352063,33.9442868 146.402948,33.8215125 146.427848,33.7598549 L146.644919,33.0572829 L155.702865,36.7762089 L153.460167,37.1510222 C150.659365,37.6561817 148.403675,39.4642634 147.365419,41.9884385 C146.327162,44.5126136 146.658993,47.3834774 148.233158,49.6848198 L149.625981,51.5518549 Z" id="Fill-44" fill="#EBF1FF"></path>
                            <path d="M158.26608,53.6600576 L162.086192,55.2285401 C163.019973,53.309042 165.255093,52.4274467 167.302915,53.0526763 L169.328543,48.1271004 C167.40739,47.1946646 166.525035,44.96147 167.150803,42.9154117 L163.33015,41.3469292 C164.335386,43.6304233 164.348378,46.2265323 163.385907,48.5657346 C162.423977,50.9054778 160.588353,52.7422249 158.26608,53.6600576 L158.26608,53.6600576 Z M162.873816,56.9911899 L153.815869,53.2722638 L156.058568,52.8974506 C158.772758,52.4285284 161.028448,50.6204467 162.092146,48.034614 C163.155303,45.4487813 162.798572,42.6395751 161.224407,40.3382327 L159.892754,38.4966179 L168.951241,42.215544 L168.61075,42.8672755 C168.585307,42.9289331 168.534964,43.0517074 168.509522,43.113365 C167.876717,44.6526412 168.60263,46.3898708 170.143233,47.0221315 C170.204402,47.0475518 170.327824,47.0983922 170.389535,47.1238125 L171.092712,47.3401549 L168.003386,54.8515634 L167.351093,54.511365 C167.289382,54.4859447 167.16596,54.4356451 167.104791,54.4102249 C165.564188,53.7779642 163.82546,54.5032521 163.192113,56.0425284 C163.167212,56.1036451 163.116328,56.2269603 163.090886,56.2886179 L162.873816,56.9911899 Z" id="Fill-45" fill="#EBF1FF"></path>
                            <path d="M143.933652,31.9441471 C143.440507,31.7418669 142.832061,31.9955284 142.629606,32.4882482 C142.427152,32.9804272 142.681032,33.5888903 143.174176,33.7911704 C143.66678,33.9934506 144.275767,33.7397891 144.478222,33.2470693 C144.680676,32.7543494 144.426796,32.1464272 143.933652,31.9441471 M142.667499,35.0226996 C141.49716,34.5418786 140.916321,33.1518786 141.397015,31.982007 C141.878251,30.8121354 143.269449,30.2323377 144.440329,30.7126179 C145.610668,31.1934389 146.191507,32.5834389 145.710813,33.7533105 C145.229577,34.9226412 143.838379,35.5029798 142.667499,35.0226996 M171.662346,43.3286257 C171.169201,43.1263455 170.560755,43.380007 170.3583,43.8727268 C170.155846,44.3649058 170.409726,44.972828 170.902871,45.175649 C171.395474,45.3779292 172.00392,45.1237268 172.206916,44.6315479 C172.409371,44.138828 172.154949,43.5309058 171.662346,43.3286257 M170.396193,46.4066374 C169.225313,45.9263572 168.644474,44.5363572 169.12571,43.3664856 C169.606945,42.196614 170.998143,41.6162755 172.168482,42.0970965 C173.339362,42.5779175 173.920201,43.9673767 173.438966,45.1372482 C172.958271,46.3071198 171.567073,46.8874584 170.396193,46.4066374 M138.616243,44.8727696 C138.123639,44.6704895 137.514652,44.9246918 137.312197,45.4168708 C137.109743,45.9095907 137.363623,46.5175128 137.856767,46.719793 C138.349912,46.9220732 138.958358,46.6684117 139.160813,46.1756918 C139.363267,45.6835128 139.109387,45.0755907 138.616243,44.8727696 M137.350631,47.9513222 C136.179751,47.4705012 135.598912,46.0805012 136.080148,44.9111704 C136.560842,43.7412988 137.95204,43.1609603 139.12292,43.6417813 C140.2938,44.1220615 140.874639,45.5120615 140.393404,46.6819331 C139.912168,47.8518047 138.52097,48.4321432 137.350631,47.9513222 M166.344937,56.2572482 C165.851792,56.0549681 165.243346,56.3086296 165.040891,56.8013494 C164.838437,57.2940693 165.092317,57.9019914 165.585462,58.1042716 C166.078606,58.3065518 166.687052,58.0528903 166.889507,57.5601704 C167.091962,57.0679914 166.838081,56.4595284 166.344937,56.2572482 M165.078784,59.3358008 C163.908445,58.8549798 163.327606,57.4649798 163.8083,56.2951082 C164.289536,55.1257774 165.680734,54.5454389 166.851614,55.0257191 C168.022495,55.5065401 168.602792,56.8965401 168.122098,58.0664117 C167.640862,59.2362833 166.249664,59.8160809 165.078784,59.3358008" id="Fill-46" fill="#EBF1FF"></path>
                            <path d="M148.258384,49.6235409 C149.125582,50.8426304 150.304041,51.8302335 151.721223,52.4121946 C153.138405,52.9941556 154.645987,53.1812918 156.145991,52.8616459 L154.969698,50.2920389 C154.58157,49.4845409 154.63895,48.6445914 155.066053,47.9566226 C155.116938,47.8333074 155.203549,47.79707 155.254433,47.6742957 C155.391929,47.5147432 155.652847,47.4060311 156.199582,47.1264086 C156.398789,46.9928171 156.746859,46.8473268 156.920624,46.7748521 L157.021851,46.5287626 L157.380748,46.5320078 C157.887967,46.5244358 158.112615,46.3286459 158.162958,46.2058716 C158.590062,45.5173619 158.11045,43.8812724 157.820301,43.1862724 C156.702471,41.0006732 154.441367,40.7199689 153.575252,40.7237549 C153.459409,41.1802374 153.427471,41.9585292 153.536276,42.2192218 L154.272475,42.8812296 L153.3414,43.2187237 C152.732954,43.4723852 152.295024,44.0121595 152.041686,44.6276537 C151.889574,44.9975992 152.03519,45.3448288 152.278243,45.8045564 C152.387049,46.0647082 152.557566,46.350821 152.518049,46.6223307 C152.503433,46.8321829 152.463917,47.1042335 152.36269,47.350323 C152.109351,47.9658171 151.60971,48.4801712 150.877843,48.6835331 L148.258384,49.6235409 Z M151.214545,53.6431829 C149.243049,52.8340623 147.708942,51.4846265 146.675016,49.6208366 L146.297714,48.9620739 L150.517863,47.4568716 C150.865933,47.3113813 151.090582,47.1161323 151.19181,46.8695019 C151.217252,46.8078444 151.242152,46.7467276 151.267595,46.68507 C151.231326,46.5979922 151.169615,46.572572 151.133347,46.486035 C150.890293,46.0263074 150.440454,45.19393 150.845363,44.2090311 C151.149586,43.4702218 151.612958,42.8687899 152.29719,42.4301556 C152.108268,41.4890661 152.342661,40.2180545 152.75569,39.7399377 L152.918628,39.5187276 L153.215814,39.4970934 C153.364136,39.4857354 157.375334,39.1898872 159.160615,42.729249 C159.30569,43.0764786 160.358562,45.595786 159.417202,47.0085019 C159.178479,47.414144 158.704281,47.8668405 157.751012,47.9074047 C157.551805,48.041537 157.290888,48.150249 156.831305,48.3930934 C156.657,48.4661089 156.396624,48.574821 156.284029,48.672716 L156.258586,48.7338327 C156.070748,49.0167004 156.042057,49.4364047 156.248843,49.8090545 L158.128855,53.8195019 L157.273566,53.9720233 C155.226826,54.570751 153.186582,54.4528444 151.214545,53.6431829 L151.214545,53.6431829 Z" id="Fill-47" fill="#EBF1FF"></path>
                            <path d="M157.517161,43.8093385 L149.797905,43.8093385 L149.797905,63.2801556 L74.5541029,63.2801556 L74.5541029,43.8093385 L66.9290368,43.8093385 C64.0464955,43.8093385 61.5623674,46.2967354 61.5623674,49.1767938 L61.5623674,117.906615 L162.78964,117.906615 L162.78964,49.1767938 C162.78964,46.2967354 160.399702,43.8093385 157.517161,43.8093385" id="Fill-48" fill="#D9E3ED"></path>
                            <path d="M166.097282,130.88716 L58.3486992,130.88716 C53.3544595,130.88716 49.3059099,126.842097 49.3059099,121.85216 L49.3059099,117.816833 L175.140071,117.816833 L175.140071,121.85216 C175.140071,126.842097 171.091521,130.88716 166.097282,130.88716" id="Fill-49" fill="#D9E3ED"></path>
                            <path d="M172.43281,127.101167 L64.6842273,127.101167 C59.6899876,127.101167 55.607876,123.191319 55.607876,118.201381 L55.607876,117.365759 L50.1946529,117.365759 L50.1946529,121.626623 C50.1946529,126.61656 54.0737686,130.88716 59.0680083,130.88716 L166.816591,130.88716 C169.752723,130.88716 172.354318,129.302451 174.006434,127.135782 C173.494343,127.225564 172.970343,127.101167 172.43281,127.101167" id="Fill-50" fill="#BFCADB"></path>
                            <path d="M62.6449037,49.5731331 L62.6449037,117.365651 L75.6366393,117.365651 L74.5539946,49.5731331 L74.5539946,45.4317984 L65.0131888,45.4317984 C63.7259244,45.4317984 62.6449037,47.3572459 62.6449037,49.5731331" id="Fill-51" fill="#BFCADB"></path>
                            <polygon id="Fill-52" fill="#FFFFFF" points="68.0090289 111.924206 156.436736 111.924206 156.436736 50.7355409 68.0090289 50.7355409"></polygon>
                            <path d="M35.1463256,131.842095 L35.1382058,131.842095 L8.58851157,131.649009 C7.99089174,131.644142 7.5096562,131.156289 7.51398678,130.559184 C7.51831736,129.964243 8.0022595,129.485585 8.5966314,129.485585 L8.60475124,129.485585 L35.1544455,129.678671 C35.7520653,129.682998 36.2333008,130.17085 36.2289702,130.768496 C36.2246397,131.362896 35.7406975,131.842095 35.1463256,131.842095" id="Fill-53" fill="#3B434F"></path>
                            <path d="M195.415298,131.968872 L45.3721207,131.968872 C44.7745008,131.968872 44.289476,131.484265 44.289476,130.88716 C44.289476,130.290054 44.7745008,129.805447 45.3721207,129.805447 L195.415298,129.805447 C196.012918,129.805447 196.497943,130.290054 196.497943,130.88716 C196.497943,131.484265 196.012918,131.968872 195.415298,131.968872" id="Fill-54" fill="#3B434F"></path>
                            <path d="M126.96022,138.583541 L50.5298397,138.583541 C49.9316785,138.583541 49.447195,138.098934 49.447195,137.501829 C49.447195,136.904724 49.9316785,136.420117 50.5298397,136.420117 L126.96022,136.420117 C127.55784,136.420117 128.042864,136.904724 128.042864,137.501829 C128.042864,138.098934 127.55784,138.583541 126.96022,138.583541" id="Fill-55" fill="#3B434F"></path>
                            <path d="M157.098773,138.583541 L133.532306,138.583541 C132.934145,138.583541 132.449661,138.098934 132.449661,137.501829 C132.449661,136.904724 132.934145,136.420117 133.532306,136.420117 L157.098773,136.420117 C157.696393,136.420117 158.181417,136.904724 158.181417,137.501829 C158.181417,138.098934 157.696393,138.583541 157.098773,138.583541" id="Fill-56" fill="#3B434F"></path>
                            <path d="M50.0253273,118.898274 L50.0253273,121.851889 C50.0253273,126.237691 53.5964306,129.805718 57.9854719,129.805718 L165.734055,129.805718 C170.123096,129.805718 173.694199,126.237691 173.694199,121.851889 L173.694199,118.898274 L50.0253273,118.898274 Z M165.734055,131.969142 L57.9854719,131.969142 C52.4022736,131.969142 47.860038,127.430278 47.860038,121.851889 L47.860038,116.73485 L175.859488,116.73485 L175.859488,121.851889 C175.859488,127.430278 171.317253,131.969142 165.734055,131.969142 L165.734055,131.969142 Z" id="Fill-57" fill="#3B434F"></path>
                            <path d="M142.279912,78.4551696 L82.7479905,78.4551696 C82.5569037,78.4551696 82.4015442,78.299944 82.4015442,78.1090218 L82.4015442,1.5297572 C82.4015442,1.33883502 82.5569037,1.18360934 82.7479905,1.18360934 L126.522019,1.18360934 L128.971503,4.00904125 C129.163131,4.00904125 135.430019,10.1077339 135.430019,10.298656 L142.626358,18.1529673 L142.626358,78.1090218 C142.626358,78.299944 142.47154,78.4551696 142.279912,78.4551696" id="Fill-58" fill="#82D4BB"></path>
                            <path d="M89.7110194,2.16342412 L83.7770442,2.16342412 C83.6027384,2.16342412 83.2151517,2.291607 83.2151517,2.47766148 L83.2151517,76.9145953 C83.2151517,77.1006498 83.6027384,77.3424125 83.7770442,77.3424125 L89.7110194,77.3424125 L89.7110194,2.16342412 Z" id="Fill-59" fill="#74BAA3" opacity="0.23385028"></path>
                            <path d="M98.2790149,42.8628405 L105.992858,42.8628405" id="Fill-60" fill="#82D4BB"></path>
                            <path d="M105.992966,43.9445525 L98.2791231,43.9445525 C97.6815033,43.9445525 97.1964785,43.4599455 97.1964785,42.8628405 C97.1964785,42.2657354 97.6815033,41.7811284 98.2791231,41.7811284 L105.992966,41.7811284 C106.590586,41.7811284 107.075611,42.2657354 107.075611,42.8628405 C107.075611,43.4599455 106.590586,43.9445525 105.992966,43.9445525" id="Fill-61" fill="#3B434F"></path>
                            <path d="M117.910393,42.8628405 L125.624236,42.8628405" id="Fill-62" fill="#82D4BB"></path>
                            <path d="M125.624345,43.9445525 L117.910502,43.9445525 C117.312882,43.9445525 116.827857,43.4599455 116.827857,42.8628405 C116.827857,42.2657354 117.312882,41.7811284 117.910502,41.7811284 L125.624345,41.7811284 C126.221964,41.7811284 126.706989,42.2657354 126.706989,42.8628405 C126.706989,43.4599455 126.221964,43.9445525 125.624345,43.9445525" id="Fill-63" fill="#3B434F"></path>
                            <path d="M110.451405,42.8628405 L113.451955,42.8628405" id="Fill-64" fill="#82D4BB"></path>
                            <path d="M113.452009,43.9445525 L110.451459,43.9445525 C109.853839,43.9445525 109.368814,43.4599455 109.368814,42.8628405 C109.368814,42.2657354 109.853839,41.7811284 110.451459,41.7811284 L113.452009,41.7811284 C114.049629,41.7811284 114.534653,42.2657354 114.534653,42.8628405 C114.534653,43.4599455 114.049629,43.9445525 113.452009,43.9445525" id="Fill-65" fill="#3B434F"></path>
                            <path d="M98.2790149,52.3282537 L105.992858,52.3282537" id="Fill-66" fill="#82D4BB"></path>
                            <path d="M105.992966,53.4100739 L98.2791231,53.4100739 C97.6815033,53.4100739 97.1964785,52.9254669 97.1964785,52.3283619 C97.1964785,51.7312568 97.6815033,51.2466498 98.2791231,51.2466498 L105.992966,51.2466498 C106.590586,51.2466498 107.075611,51.7312568 107.075611,52.3283619 C107.075611,52.9254669 106.590586,53.4100739 105.992966,53.4100739" id="Fill-67" fill="#3B434F"></path>
                            <path d="M117.910393,52.3282537 L125.624236,52.3282537" id="Fill-68" fill="#82D4BB"></path>
                            <path d="M125.624345,53.4100739 L117.910502,53.4100739 C117.312882,53.4100739 116.827857,52.9254669 116.827857,52.3283619 C116.827857,51.7312568 117.312882,51.2466498 117.910502,51.2466498 L125.624345,51.2466498 C126.221964,51.2466498 126.706989,51.7312568 126.706989,52.3283619 C126.706989,52.9254669 126.221964,53.4100739 125.624345,53.4100739" id="Fill-69" fill="#3B434F"></path>
                            <path d="M110.451405,52.3282537 L113.451955,52.3282537" id="Fill-70" fill="#82D4BB"></path>
                            <path d="M113.452009,53.4100739 L110.451459,53.4100739 C109.853839,53.4100739 109.368814,52.9254669 109.368814,52.3283619 C109.368814,51.7312568 109.853839,51.2466498 110.451459,51.2466498 L113.452009,51.2466498 C114.049629,51.2466498 114.534653,51.7312568 114.534653,52.3283619 C114.534653,52.9254669 114.049629,53.4100739 113.452009,53.4100739" id="Fill-71" fill="#3B434F"></path>
                            <path d="M102.135936,47.8657588 L109.849779,47.8657588" id="Fill-72" fill="#82D4BB"></path>
                            <path d="M109.849888,48.9474708 L102.136045,48.9474708 C101.538425,48.9474708 101.0534,48.4628638 101.0534,47.8657588 C101.0534,47.2686537 101.538425,46.7840467 102.136045,46.7840467 L109.849888,46.7840467 C110.447507,46.7840467 110.932532,47.2686537 110.932532,47.8657588 C110.932532,48.4628638 110.447507,48.9474708 109.849888,48.9474708" id="Fill-73" fill="#3B434F"></path>
                            <path d="M114.053472,47.8657588 L121.767315,47.8657588" id="Fill-74" fill="#82D4BB"></path>
                            <path d="M121.767423,48.9474708 L114.05358,48.9474708 C113.45596,48.9474708 112.970936,48.4628638 112.970936,47.8657588 C112.970936,47.2686537 113.45596,46.7840467 114.05358,46.7840467 L121.767423,46.7840467 C122.365043,46.7840467 122.850068,47.2686537 122.850068,47.8657588 C122.850068,48.4628638 122.365043,48.9474708 121.767423,48.9474708" id="Fill-75" fill="#3B434F"></path>
                            <polyline id="Fill-76" points="103.085795 29.927349 111.972683 21.0032245 120.684724 29.5665981"></polyline>
                            <path d="M103.086011,31.0091693 C102.809937,31.0091693 102.533321,30.9042432 102.322205,30.6943911 C101.898891,30.2730642 101.896726,29.5883405 102.318416,29.1643093 L111.205305,20.2401848 C111.624829,19.818858 112.307978,19.8156128 112.731833,20.232072 L121.443875,28.7954455 C121.870437,29.2146089 121.87585,29.8993327 121.456867,30.3255272 C121.037342,30.7511809 120.352569,30.7571304 119.925466,30.3379669 L111.981019,22.5285467 L103.853606,30.6906051 C103.641949,30.9026206 103.364251,31.0091693 103.086011,31.0091693" id="Fill-77" fill="#3B434F"></path>
                            <path d="M107.145712,32.7217899 L107.145712,26.4051323" id="Fill-78" fill="#82D4BB"></path>
                            <path d="M107.145929,33.8035019 C106.548309,33.8035019 106.063284,33.3188949 106.063284,32.7217899 L106.063284,26.4051323 C106.063284,25.8074864 106.548309,25.3234202 107.145929,25.3234202 C107.743548,25.3234202 108.228573,25.8074864 108.228573,26.4051323 L108.228573,32.7217899 C108.228573,33.3188949 107.743548,33.8035019 107.145929,33.8035019" id="Fill-79" fill="#3B434F"></path>
                            <path d="M116.827749,32.7217899 L116.827749,26.4051323" id="Fill-80" fill="#82D4BB"></path>
                            <path d="M116.827857,33.8035019 C116.230237,33.8035019 115.745212,33.3188949 115.745212,32.7217899 L115.745212,26.4051323 C115.745212,25.8074864 116.230237,25.3234202 116.827857,25.3234202 C117.425477,25.3234202 117.910502,25.8074864 117.910502,26.4051323 L117.910502,32.7217899 C117.910502,33.3188949 117.425477,33.8035019 116.827857,33.8035019" id="Fill-81" fill="#3B434F"></path>
                            <path d="M91.8763087,116.824903 L91.8763087,117.765992 C91.8763087,121.129576 94.6051145,123.856031 97.9715979,123.856031 L102.161433,123.856031 C102.759594,123.856031 103.244077,123.371965 103.244077,122.774319 L103.244077,122.774319 C103.244077,122.176673 102.759594,121.692607 102.161433,121.692607 L98.0473831,121.692607 C96.2480277,121.692607 94.7263707,120.610895 94.2548789,118.988327 L129.464648,118.988327 C128.993156,120.610895 127.471499,121.692607 125.672143,121.692607 L106.40161,121.692607 C105.80399,121.692607 105.318966,122.176673 105.318966,122.774319 L105.318966,122.774319 C105.318966,123.371965 105.80399,123.856031 106.40161,123.856031 L125.672143,123.856031 C129.116036,123.856031 131.93416,121.040335 131.93416,117.599409 L131.93416,116.824903 L91.8763087,116.824903 Z" id="Fill-82" fill="#3B434F"></path>
                            <path d="M138.430028,77.3424125 L83.2151517,77.3424125 L83.2151517,2.16342412 L127.671247,2.16342412 C126.860346,1.30941245 127.285284,0.574929961 126.758036,0 L82.7479905,0 C81.8142095,0 81.0498624,0.76314786 81.0498624,1.69666537 L81.0498624,78.1088054 C81.0498624,78.880607 81.675631,79.5058366 82.4480979,79.5058366 L138.430028,79.5058366 C139.027648,79.5058366 139.512672,79.0212296 139.512672,78.4241245 C139.512672,77.8270195 139.027648,77.3424125 138.430028,77.3424125" id="Fill-83" fill="#3B434F"></path>
                            <path d="M141.677907,16.6169362 L141.677907,75.1792047 C141.677907,75.7763097 142.162932,76.2609167 142.760552,76.2609167 C143.358172,76.2609167 143.843197,75.7763097 143.843197,75.1792047 L143.843197,17.2059284 C143.160048,16.5093058 142.433593,17.3892786 141.677907,16.6169362" id="Fill-84" fill="#3B434F"></path>
                            <polygon id="Fill-85" fill="#74BAA3" opacity="0.23385028" points="141.136585 17.307393 126.520883 17.307393 126.520883 11.3579767 136.670676 11.3579767"></polygon>
                            <path d="M127.614679,16.2256809 L140.035319,16.2256809 L127.744055,3.79085992 L127.614679,16.2256809 Z M142.626088,18.3891051 L142.624464,18.3891051 L126.520666,18.3891051 C126.2316,18.3891051 125.954984,18.2739027 125.751447,18.0683774 C125.548451,17.8628521 125.435315,17.5848521 125.438021,17.296035 L125.605831,1.17203502 C125.610703,0.735564202 125.877575,0.344525292 126.282484,0.180645914 C126.686311,0.017307393 127.151848,0.112498054 127.458778,0.423490272 L143.150088,16.2976148 C143.555538,16.4539222 143.84298,16.8471245 143.84298,17.307393 C143.84298,17.9044981 143.358497,18.3891051 142.760336,18.3891051 L142.628794,18.3891051 L142.626088,18.3891051 Z" id="Fill-86" fill="#3B434F"></path>
                            <path d="M158.363789,42.7276265 L149.606818,42.7276265 C148.89931,42.7276265 148.252971,43.2349494 148.180975,43.9380623 C148.098152,44.7471829 148.734206,45.4319066 149.527243,45.4319066 L158.363789,45.4319066 C160.066248,45.4319066 161.165673,46.8451634 161.165673,49.0323852 L161.165673,116.284047 L63.1863343,116.284047 L63.1863343,49.0323852 C63.1863343,46.9463035 64.4519459,45.4319066 66.1950037,45.4319066 L74.2834417,45.4319066 C75.0310079,45.4319066 75.6367475,44.8266887 75.6367475,44.0797665 C75.6367475,43.3328444 75.0310079,42.7276265 74.2834417,42.7276265 L66.1950037,42.7276265 C63.0434252,42.7276265 60.4797227,45.5557626 60.4797227,49.0323852 L60.4797227,118.988327 L163.872285,118.988327 L163.872285,49.0323852 C163.872285,45.4968093 161.452574,42.7276265 158.363789,42.7276265" id="Fill-87" fill="#3B434F"></path>
                            <path d="M148.173775,51.1108949 L148.173775,51.1108949 C148.173775,51.8578171 148.779515,52.463035 149.527081,52.463035 L154.669643,52.463035 L154.669643,110.33463 L69.6820397,110.33463 L69.6820397,52.463035 L74.2832793,52.463035 C75.0308455,52.463035 75.6365851,51.8578171 75.6365851,51.1108949 C75.6365851,50.3639728 75.0308455,49.7587549 74.2832793,49.7587549 L66.9754281,49.7587549 L66.9754281,113.038911 L157.376255,113.038911 L157.376255,49.7587549 L149.527081,49.7587549 C148.779515,49.7587549 148.173775,50.3639728 148.173775,51.1108949" id="Fill-88" fill="#3B434F"></path>
                            <path d="M79.8313459,107.765564 C79.5823376,107.765564 79.3322467,107.680109 79.1287095,107.506494 L72.9468087,102.22828 C72.4920979,101.839946 72.438507,101.157385 72.8271764,100.703066 C73.2153045,100.248747 73.899536,100.195743 74.353164,100.583537 L80.5350649,105.86121 C80.9897756,106.249545 81.0433665,106.932105 80.6546971,107.386424 C80.4408748,107.63684 80.1366517,107.765564 79.8313459,107.765564" id="Fill-89" fill="#3B434F"></path>
                            <path d="M89.3044864,106.413424 C89.0690112,106.413424 88.8324533,106.337163 88.633788,106.180315 L73.0491186,93.8677276 C72.5797921,93.4972412 72.5002178,92.8168444 72.8715649,92.3479222 C73.2423707,91.879 73.9233541,91.800035 74.3915979,92.1705214 L89.9762674,104.483109 C90.4450525,104.853595 90.5251682,105.533992 90.1538211,106.002914 C89.9405401,106.272802 89.6238665,106.413424 89.3044864,106.413424" id="Fill-90" fill="#3B434F"></path>
                            <path d="M24.9357959,50.8613981 C24.7322587,47.3928883 21.8702876,44.6199195 18.4198992,44.6199195 C16.3249818,44.6199195 14.2966471,45.6464642 13.040238,47.3209545 C13.0115479,47.3058105 12.9806926,47.2955342 12.9514612,47.281472 C12.8751347,47.2446938 12.7977256,47.2095381 12.7186926,47.1781685 C12.6748455,47.1608611 12.630457,47.1446354 12.5860686,47.1294914 C12.5081182,47.1019078 12.4285438,47.0775693 12.3473455,47.055935 C12.302957,47.0440362 12.2591099,47.0315965 12.2141802,47.0213202 C12.1275686,47.0018494 12.0387917,46.9867054 11.9494736,46.973184 C11.9104983,46.9672346 11.8720645,46.9596626 11.8330893,46.9553358 C11.7047959,46.9412735 11.5754198,46.9326198 11.4438785,46.9326198 C9.52922149,46.9326198 7.97183719,48.4881218 7.97183719,50.4011296 C7.97183719,50.4508883 7.97508512,50.4995654 7.97833306,50.5482424 C6.37385372,51.4217249 5.27172149,53.2530634 5.27172149,55.0854837 C5.27172149,57.8157249 7.49439091,60.0364798 10.2264446,60.0364798 L12.2152628,60.0364798 C12.4285438,60.0364798 12.6012256,59.8644875 12.6012256,59.6513903 C12.6012256,59.438293 12.4285438,59.2657599 12.2152628,59.2657599 L10.2264446,59.2657599 C7.91987025,59.2657599 6.04310579,57.3906121 6.04310579,55.0854837 C6.04310579,53.4845498 7.08677521,51.8224992 8.52452727,51.1339895 L8.74322149,51.0296043 L8.74322149,50.7867599 C8.74322149,50.7402463 8.74646942,50.6931918 8.74917603,50.6461374 L8.75350661,50.5747444 L8.74863471,50.5001062 C8.7459281,50.467114 8.74322149,50.4341218 8.74322149,50.4011296 C8.74322149,48.9137755 9.95524215,47.7033397 11.4438785,47.7033397 C11.5629694,47.7033397 11.6804364,47.713616 11.797362,47.7293008 C11.827676,47.7330868 11.8574488,47.7379545 11.8872215,47.7428222 C11.9900727,47.7601296 12.0918413,47.7823047 12.1914446,47.81097 C12.2049777,47.8152969 12.2190521,47.8180012 12.2325851,47.8217872 C12.3424736,47.8553202 12.4496554,47.897507 12.5546719,47.9451023 C12.5822793,47.957542 12.6088041,47.9710634 12.6358702,47.984044 C12.7284364,48.0300167 12.8188372,48.0803163 12.9065314,48.1371062 C13.6497669,48.6179272 14.1439942,49.4524681 14.1439942,50.4011296 C14.1439942,50.6142268 14.3161347,50.7867599 14.529957,50.7867599 C14.743238,50.7867599 14.9153785,50.6142268 14.9153785,50.4011296 C14.9153785,49.33997 14.4346843,48.389686 13.6811636,47.7530984 C14.7870851,46.3073903 16.6080934,45.3906393 18.4198992,45.3906393 C21.407457,45.3906393 23.8888785,47.7552619 24.1476306,50.7434914 C23.7540893,50.7159078 23.1635066,50.7013047 22.572924,50.7910868 C22.3618083,50.8229973 22.2172752,51.0198689 22.2492132,51.2302619 C22.2784446,51.421184 22.4424653,51.5580206 22.6303041,51.5580206 C22.6492504,51.5580206 22.6692793,51.5563981 22.6882256,51.5531529 C23.5473041,51.4233475 24.4426512,51.5450401 24.4951595,51.5526121 C26.2912669,51.8933514 27.645114,53.5467482 27.645114,55.4008027 C27.645114,57.5317755 25.9096347,59.2657599 23.7768248,59.2657599 L22.2448826,59.2657599 C22.0316017,59.2657599 21.8589198,59.438293 21.8589198,59.6513903 C21.8589198,59.8644875 22.0316017,60.0364798 22.2448826,60.0364798 L23.7768248,60.0364798 C26.335114,60.0364798 28.4170397,57.9568883 28.4170397,55.4008027 C28.4170397,53.2855148 26.9403124,51.387651 24.9357959,50.8613981" id="Fill-91" fill="#EBF1FF"></path>
                            <path d="M22.2447744,59.4693922 C22.1440884,59.4693922 22.0623488,59.5510615 22.0623488,59.6516607 C22.0623488,59.7517191 22.1440884,59.8333883 22.2447744,59.8333883 L23.7767165,59.8333883 C26.2229521,59.8333883 28.2128529,57.8446607 28.2128529,55.4010732 C28.2128529,53.3912521 26.8129934,51.5647813 24.884262,51.0579992 L24.7413529,51.0206802 L24.7326917,50.8735673 C24.5334851,47.4807774 21.7602909,44.8235518 18.4192496,44.8235518 C16.3838777,44.8235518 14.4340347,45.8025012 13.2030678,47.4429175 L13.0991339,47.5819175 L12.8642,47.4656335 C12.7905802,47.429937 12.7175017,47.3964039 12.6427992,47.3666568 C12.6022,47.350972 12.5605182,47.335828 12.5188364,47.3212249 C12.4457579,47.2958047 12.370514,47.2730887 12.2941876,47.2525362 C12.2460099,47.2390148 12.2081174,47.2287385 12.1696835,47.2200848 C12.0874025,47.2011549 12.0034975,47.1870926 11.9195926,47.1746529 L11.8102455,47.1578864 C11.6900719,47.144365 11.5677331,47.1357113 11.4437702,47.1357113 C9.64170826,47.1357113 8.17580744,48.6008903 8.17580744,50.4014 C8.17580744,50.4462911 8.17851405,50.4901004 8.18176198,50.5339097 L8.18988182,50.6637152 L8.07566281,50.7264545 C6.5204438,51.5739759 5.47515041,53.3252677 5.47515041,55.0857541 C5.47515041,57.7034973 7.60687769,59.8333883 10.2268777,59.8333883 L12.2151545,59.8333883 C12.3158405,59.8333883 12.3975802,59.7517191 12.3975802,59.6516607 C12.3975802,59.5510615 12.3158405,59.4693922 12.2151545,59.4693922 L10.2268777,59.4693922 C7.80770826,59.4693922 5.83946033,57.5028397 5.83946033,55.0857541 C5.83946033,53.4101821 6.93184876,51.67133 8.43672479,50.9503689 L8.54011736,50.901151 L8.54011736,50.7864895 C8.54011736,50.7459253 8.54174132,50.7053611 8.54444793,50.664256 L8.55040248,50.5620342 L8.54498926,50.5138981 C8.54174132,50.4619759 8.54011736,50.4316879 8.54011736,50.4014 C8.54011736,48.8015479 9.84253884,47.4997074 11.4437702,47.4997074 C11.5720636,47.4997074 11.6987331,47.5110654 11.8237785,47.5272911 L11.9206752,47.542435 C12.031105,47.5602833 12.1404521,47.5846218 12.2481752,47.6154506 L12.291481,47.6273494 C12.4105719,47.6630459 12.5258736,47.7090187 12.6390099,47.7604 L12.698014,47.7879837 C12.8257661,47.8512638 12.9232041,47.9053494 13.0173942,47.9664661 C13.8504893,48.5051588 14.3474231,49.4154195 14.3474231,50.4014 C14.3474231,50.5014584 14.4291628,50.5831276 14.5298488,50.5831276 C14.6305347,50.5831276 14.7117331,50.5014584 14.7117331,50.4014 C14.7117331,49.4402988 14.288419,48.5322016 13.549514,47.9085946 L13.4011917,47.7836568 L13.5192,47.6295128 C14.6716752,46.1232288 16.5495223,45.1875479 18.4192496,45.1875479 C21.476638,45.1875479 24.0820223,47.6203183 24.3505182,50.7259136 L24.3710884,50.9628086 L24.1334479,50.946042 C23.7507331,50.9195401 23.1736835,50.9054778 22.6031298,50.9925556 C22.5549521,50.9995868 22.5127289,51.0255479 22.4840388,51.0644895 C22.4553488,51.1034311 22.4434397,51.1515673 22.4510182,51.1991626 C22.4645512,51.287863 22.5408777,51.3543883 22.6301959,51.3543883 C23.5320388,51.2197152 24.424138,51.3370809 24.5232,51.3511432 C26.4232413,51.7118942 27.848543,53.451828 27.848543,55.4010732 C27.848543,57.644544 26.0221215,59.4693922 23.7767165,59.4693922 L22.2447744,59.4693922 Z M23.7767165,60.2401121 L22.2447744,60.2401121 C21.919981,60.2401121 21.6552744,59.9761743 21.6552744,59.6516607 C21.6552744,59.3266062 21.919981,59.0626685 22.2447744,59.0626685 L23.7767165,59.0626685 C25.7974727,59.0626685 27.4414686,57.4200887 27.4414686,55.4010732 C27.4414686,53.6443728 26.1585347,52.0753494 24.4571587,51.7524584 C24.4300926,51.7486724 23.5499025,51.6291432 22.7189727,51.7540809 C22.4077124,51.8038397 22.0953694,51.5750576 22.0482744,51.2602794 C22.0244562,51.1055946 22.0623488,50.949828 22.1559975,50.8232677 C22.249105,50.6967074 22.3866008,50.6139564 22.5419603,50.5901588 C23.0372702,50.5144389 23.5336628,50.5106529 23.9196256,50.5268786 C23.5618116,47.7425518 21.1897372,45.5942716 18.4192496,45.5942716 C16.7351959,45.5942716 15.044105,46.4077191 13.9598364,47.7290304 C14.6987413,48.4229486 15.1193488,49.3862132 15.1193488,50.4014 C15.1193488,50.7259136 14.8546421,50.9903922 14.5298488,50.9903922 C14.204514,50.9903922 13.9403488,50.7259136 13.9403488,50.4014 C13.9403488,49.5538786 13.5121628,48.7712599 12.7959934,48.3077463 C12.714795,48.2547424 12.6308901,48.2087696 12.5453612,48.1665829 L12.4712,48.1308864 C12.3732207,48.0865362 12.2747,48.0470537 12.1729314,48.0162249 C12.0424727,47.9799875 11.9493653,47.959435 11.8535512,47.9437502 L11.7707289,47.9307696 C11.6630058,47.9167074 11.5542,47.9064311 11.4437702,47.9064311 C10.0671876,47.9064311 8.94719174,49.0254623 8.94719174,50.4014 C8.94719174,50.4224934 8.9488157,50.4441276 8.94989835,50.465221 L8.95693554,50.5609525 L8.95206364,50.6583066 C8.94935702,50.7199642 8.94719174,50.7534973 8.94719174,50.7864895 L8.94719174,51.1580576 L8.61265455,51.3176101 C7.24202645,51.9736685 6.24707603,53.5589175 6.24707603,55.0857541 C6.24707603,57.2783844 8.03235702,59.0626685 10.2268777,59.0626685 L12.2151545,59.0626685 C12.5399479,59.0626685 12.8046545,59.3266062 12.8046545,59.6516607 C12.8046545,59.9761743 12.5399479,60.2401121 12.2151545,60.2401121 L10.2268777,60.2401121 C7.38222893,60.2401121 5.06807603,57.9279525 5.06807603,55.0857541 C5.06807603,53.2235868 6.14855537,51.370614 7.76873306,50.4322288 C7.76819174,50.4219525 7.76819174,50.4116763 7.76819174,50.4014 C7.76819174,48.376435 9.4170595,46.7289875 11.4437702,46.7289875 C11.5828901,46.7289875 11.7198446,46.7381821 11.8557165,46.7533261 C11.8844066,46.7565712 11.9125554,46.7608981 11.9407041,46.7657658 C12.0744107,46.7863183 12.1680595,46.802544 12.259543,46.8230965 C12.3033901,46.8328319 12.3472372,46.8447307 12.3916256,46.8571704 C12.486357,46.8825907 12.570262,46.9080109 12.6536256,46.9372171 C12.7007207,46.9539837 12.7472744,46.9702093 12.7932868,46.9885984 C12.8555388,47.0134778 12.9167083,47.0405206 12.9773364,47.0686451 C14.2889603,45.404972 16.3107992,44.4162872 18.4192496,44.4162872 C21.9275595,44.4162872 24.8474521,47.1665401 25.1289397,50.7042794 C27.1605223,51.3073339 28.6204686,53.2587424 28.6204686,55.4010732 C28.6204686,58.069116 26.4476008,60.2401121 23.7767165,60.2401121 L23.7767165,60.2401121 Z" id="Fill-92" fill="#EBF1FF"></path>
                        </g>
                    </g>
                </g>
            </g>
        </g>
    </g>
</svg>