<?xml version="1.0" encoding="UTF-8"?>
<svg width="184px" height="160px" viewBox="0 0 184 160" version="1.1" xmlns="http://www.w3.org/2000/svg" xmlns:xlink="http://www.w3.org/1999/xlink">
    <!-- Generator: Sketch 41.2 (35397) - http://www.bohemiancoding.com/sketch -->
    <title>borrower-Illustration</title>
    <desc>Created with Sketch.</desc>
    <defs>
        <polygon id="path-1" points="0 159.595583 183.632981 159.595583 183.632981 0 0 0"></polygon>
    </defs>
    <g id="Page-1" stroke="none" stroke-width="1" fill="none" fill-rule="evenodd">
        <g id="Homepage" transform="translate(-420.000000, -1431.000000)">
            <g id="02-ABOUT-US" transform="translate(371.000000, 1097.000000)">
                <g id="1-Borrower" transform="translate(0.000000, 334.000000)">
                    <g id="borrower-Illustration" transform="translate(49.000000, 0.000000)">
                        <g>
                            <path d="M141.422989,102.075288 L140.369037,102.075288 C139.736567,102.075288 139.315085,102.496883 139.315085,103.129521 C139.315085,103.76216 139.736567,104.183755 140.369037,104.183755 L141.422989,104.183755 C142.055458,104.183755 142.476941,103.76216 142.476941,103.129521 C142.476941,102.496883 142.055458,102.075288 141.422989,102.075288 Z" id="Fill-1" fill="#EBF1FF"></path>
                            <path d="M169.880429,87.3155828 L168.826477,87.3155828 L149.85485,87.3155828 L149.85485,84.1528834 L151.435778,85.1015951 C151.467671,85.1334969 151.509869,85.155092 151.558445,85.1703067 C151.855298,85.3092025 152.212994,85.286135 152.48973,85.1015951 C152.80621,84.8905521 153.016706,84.5744785 153.016706,84.1528834 L153.016706,83.0986503 L169.880429,83.0986503 L169.880429,87.3155828 Z M167.772525,113.672393 L165.664621,113.672393 L165.664621,93.6409816 C165.664621,93.0083436 165.243138,92.5867485 164.610669,92.5867485 L149.85485,92.5867485 L149.85485,89.4240491 L167.772525,89.4240491 L167.772525,113.672393 Z M149.85485,113.671902 L163.556717,113.671902 L163.556717,111.563436 L149.85485,111.563436 L149.85485,113.671902 Z M132.991127,113.672393 L132.991127,92.5867485 L143.531138,92.5867485 L143.531138,113.672393 L132.991127,113.672393 Z M114.019501,113.671902 L130.883223,113.671902 L130.883223,111.563436 L114.019501,111.563436 L114.019501,113.671902 Z M147.746946,82.8876074 L147.746946,88.369816 L147.746946,93.6409816 L147.746946,109.454969 L145.639042,109.454969 L145.639042,91.5325153 C145.639042,90.9003681 145.217559,90.4782822 144.58509,90.4782822 L131.937175,90.4782822 C131.304706,90.4782822 130.883223,90.9003681 130.883223,91.5325153 L130.883223,109.454969 L114.019501,109.454969 L114.019501,82.8876074 L130.883223,72.7668712 L147.746946,82.8876074 Z M110.857645,79.5143558 L130.883223,67.4957055 L150.908802,79.4088344 L150.908802,82.0444172 L150.908802,82.2554601 L131.410199,70.5528834 C131.378306,70.5209816 131.336109,70.4998773 131.287533,70.4841718 C131.032877,70.364908 130.73357,70.364908 130.478423,70.4841718 C130.430338,70.4998773 130.388141,70.5209816 130.356247,70.5528834 L112.438573,81.3062577 C112.319831,81.3857669 112.21581,81.48 112.132397,81.5884663 L110.857645,82.3604908 L110.857645,79.5143558 Z M149.85485,96.803681 L163.556717,96.803681 L163.556717,94.6952147 L149.85485,94.6952147 L149.85485,96.803681 Z M149.85485,109.454969 L163.556717,109.454969 L163.556717,107.346503 L149.85485,107.346503 L149.85485,109.454969 Z M149.85485,101.021104 L163.556717,101.021104 L163.556717,98.912638 L149.85485,98.912638 L149.85485,101.021104 Z M149.85485,105.238037 L163.556717,105.238037 L163.556717,103.129571 L149.85485,103.129571 L149.85485,105.238037 Z M145.639042,113.671902 L147.746946,113.671902 L147.746946,111.563436 L145.639042,111.563436 L145.639042,113.671902 Z M170.934381,80.990184 L153.016706,80.990184 L153.016706,78.881227 C153.016706,78.4596319 152.80621,78.1435583 152.48973,77.9325153 L131.410199,65.2817178 C131.09421,65.0706748 130.672237,65.0706748 130.356247,65.2817178 L109.276717,77.9325153 C108.960727,78.1435583 108.749741,78.4596319 108.749741,78.8817178 L108.749741,84.1528834 C108.749741,84.5744785 108.960727,84.8910429 109.276717,85.1015951 C109.592706,85.312638 110.014679,85.312638 110.330669,85.1015951 L111.911597,84.1528834 L111.911597,114.726135 C111.911597,115.358773 112.333079,115.780368 112.965549,115.780368 L131.937175,115.780368 L144.58509,115.780368 L148.800898,115.780368 L164.610669,115.780368 L168.826477,115.780368 C169.458946,115.780368 169.880429,115.358773 169.880429,114.726135 L169.880429,89.4240491 L170.934381,89.4240491 C171.56685,89.4240491 171.988333,89.002454 171.988333,88.369816 L171.988333,82.0444172 C171.988333,81.4117791 171.56685,80.990184 170.934381,80.990184 L170.934381,80.990184 Z" id="Fill-3" fill="#EBF1FF"></path>
                            <mask id="mask-2" fill="white">
                                <use xlink:href="#path-1"></use>
                            </mask>
                            <g id="Clip-6"></g>
                            <path d="M118.235456,101.020859 L121.397312,101.020859 L121.397312,97.8581595 L118.235456,97.8581595 L118.235456,101.020859 Z M118.235456,95.7496933 L121.397312,95.7496933 L121.397312,92.5869939 L118.235456,92.5869939 L118.235456,95.7496933 Z M123.505707,95.7496933 L126.667563,95.7496933 L126.667563,92.5869939 L123.505707,92.5869939 L123.505707,95.7496933 Z M123.505216,101.020859 L126.667072,101.020859 L126.667072,97.8581595 L123.505216,97.8581595 L123.505216,101.020859 Z M116.127552,103.129325 L117.181504,103.129325 L127.721515,103.129325 L128.775467,103.129325 C129.407445,103.129325 129.829419,102.70773 129.829419,102.075092 C129.829419,101.442945 129.407445,101.020859 128.775467,101.020859 L128.775467,91.5327607 C128.775467,90.9001227 128.353493,90.4785276 127.721515,90.4785276 L117.181504,90.4785276 C116.549035,90.4785276 116.127552,90.9001227 116.127552,91.5327607 L116.127552,101.020859 C115.495083,101.020859 115.0736,101.442945 115.0736,102.075092 C115.0736,102.70773 115.495083,103.129325 116.127552,103.129325 L116.127552,103.129325 Z" id="Fill-5" fill="#EBF1FF" mask="url(#mask-2)"></path>
                            <path d="M20.8322347,140.08638 L22.3690027,140.08638 L22.3690027,132.399509 L20.8322347,132.399509 L20.8322347,140.08638 Z M23.9062613,140.08638 L25.4430293,140.08638 L25.4430293,132.399509 L23.9062613,132.399509 L23.9062613,140.08638 Z M20.06336,141.623558 L26.2114133,141.623558 C26.67264,141.623558 26.9797973,141.316319 26.9797973,140.854969 L26.9797973,131.63092 C26.9797973,131.170061 26.67264,130.862331 26.2114133,130.862331 L20.06336,130.862331 C19.602624,130.862331 19.294976,131.170061 19.294976,131.63092 L19.294976,140.854969 C19.294976,141.316319 19.602624,141.623558 20.06336,141.623558 L20.06336,141.623558 Z" id="Fill-7" fill="#EBF1FF" mask="url(#mask-2)"></path>
                            <path d="M59.2552619,127.78773 L58.4868779,127.78773 L53.1076992,127.78773 L53.1076992,125.527607 L54.2602752,126.173497 C54.4624299,126.307975 54.7229739,126.324663 54.9393579,126.223558 C54.9746859,126.21227 55.0055979,126.196564 55.0286592,126.173497 C55.2592725,126.019877 55.4128512,125.789202 55.4128512,125.481963 L55.4128512,124.712883 L58.4868779,124.712883 L59.2552619,124.712883 L59.2552619,127.78773 Z M57.7184939,143.929571 L53.1076992,143.929571 L53.1076992,141.623804 L55.4128512,141.623804 C55.8740779,141.623804 56.1812352,141.316564 56.1812352,140.855215 L56.1812352,131.631166 C56.1812352,131.169816 55.8740779,130.862577 55.4128512,130.862577 L53.1076992,130.862577 L53.1076992,129.324908 L57.7184939,129.324908 L57.7184939,143.929571 Z M53.1076992,147.004417 L57.7184939,147.004417 L57.7184939,145.467239 L53.1076992,145.467239 L53.1076992,147.004417 Z M36.9696725,147.004417 L36.9696725,134.705521 L44.6544939,134.705521 L44.6544939,147.004417 L36.9696725,147.004417 Z M30.0537259,128.556319 L30.0537259,124.636319 L40.8120832,118.640736 L51.5704405,124.666748 L51.5704405,128.556319 L51.5704405,131.631166 L51.5704405,140.855215 L51.5704405,147.004417 L46.1912619,147.004417 L46.1912619,133.936933 C46.1912619,133.476074 45.8841045,133.168344 45.4228779,133.168344 L36.2012885,133.168344 C35.7405525,133.168344 35.4329045,133.476074 35.4329045,133.936933 L35.4329045,147.004417 L30.0537259,147.004417 L30.0537259,128.556319 Z M17.7581099,147.004417 L28.5164672,147.004417 L28.5164672,145.467239 L17.7581099,145.467239 L17.7581099,147.004417 Z M17.7586005,143.929571 L28.5169579,143.929571 L28.5169579,129.324908 L17.7586005,129.324908 L17.7586005,143.929571 Z M16.2213419,124.712883 L16.9897259,124.712883 L26.2113152,124.712883 L26.2113152,125.481963 C26.2113152,125.789202 26.3648939,126.019877 26.5955072,126.096933 C26.8261205,126.250552 27.1332779,126.250552 27.3638912,126.096933 L28.5169579,125.481963 L28.5169579,127.78773 L16.9897259,127.78773 L16.2213419,127.78773 L16.2213419,124.712883 Z M40.4278912,117.026503 L27.7480832,124.097914 L27.7480832,123.944294 L27.7480832,122.022822 L40.8120832,114.797301 L53.8760832,122.099387 L53.8760832,123.944294 L53.8760832,124.097914 L52.7235072,123.482945 C52.6930859,123.462822 52.6616832,123.445644 52.6292992,123.43092 L41.1962752,117.103067 C41.0157099,116.982822 40.7885312,116.958282 40.5873579,117.026503 L40.4278912,117.026503 L40.4278912,117.026503 Z M53.1076992,140.086626 L54.6444672,140.086626 L54.6444672,132.399755 L53.1076992,132.399755 L53.1076992,140.086626 Z M19.2183339,110.87681 L56.2582699,110.87681 L57.6414592,123.175706 L55.4128512,123.175706 L55.4128512,121.638528 C55.4128512,121.330798 55.2592725,121.100123 55.0286592,120.946503 L41.1962752,113.260123 C40.9656619,113.106012 40.6585045,113.106012 40.4278912,113.260123 L26.5955072,120.946503 C26.3648939,121.100123 26.2113152,121.330798 26.2113152,121.638528 L26.2113152,123.175706 L17.8351445,123.175706 L19.2183339,110.87681 Z M60.0236459,123.175706 L59.1782272,123.175706 L57.7184939,110.031656 C57.6414592,109.646871 57.3343019,109.339632 56.9501099,109.339632 L18.5264939,109.339632 C18.1423019,109.339632 17.8351445,109.646871 17.7581099,110.031656 L16.2983765,123.175706 L15.4529579,123.175706 C14.9917312,123.175706 14.6845739,123.482945 14.6845739,123.944294 L14.6845739,128.556319 C14.6845739,129.017669 14.9917312,129.324908 15.4529579,129.324908 L16.2213419,129.324908 L16.2213419,147.773006 C16.2213419,148.234356 16.5284992,148.541595 16.9897259,148.541595 L29.2848512,148.541595 L36.2012885,148.541595 L45.4228779,148.541595 L52.3388245,148.541595 L58.4868779,148.541595 C58.9481045,148.541595 59.2552619,148.234356 59.2552619,147.773006 L59.2552619,129.324908 L60.0236459,129.324908 C60.4848725,129.324908 60.7920299,129.017669 60.7920299,128.556319 L60.7920299,123.944294 C60.7920299,123.482945 60.4848725,123.175706 60.0236459,123.175706 L60.0236459,123.175706 Z" id="Fill-8" fill="#EBF1FF" mask="url(#mask-2)"></path>
                            <path d="M43.1175296,140.08638 L42.3491456,140.08638 C41.8879189,140.08638 41.5807616,140.39362 41.5807616,140.854969 C41.5807616,141.316319 41.8879189,141.623558 42.3491456,141.623558 L43.1175296,141.623558 C43.5787563,141.623558 43.8859136,141.316319 43.8859136,140.854969 C43.8859136,140.39362 43.5787563,140.08638 43.1175296,140.08638" id="Fill-9" fill="#EBF1FF" mask="url(#mask-2)"></path>
                            <path d="M36.9698688,127.78773 C36.9698688,125.635583 38.6602155,123.944294 40.8122795,123.944294 C42.9638528,123.944294 44.6546901,125.635583 44.6546901,127.78773 L44.6546901,128.556319 L36.9698688,128.556319 L36.9698688,127.78773 Z M36.2014848,130.093497 L45.4230741,130.093497 C45.8838101,130.093497 46.1914581,129.786258 46.1914581,129.324908 L46.1914581,127.78773 C46.1914581,124.789939 43.8092715,122.407117 40.8122795,122.407117 C37.8152875,122.407117 35.4331008,124.789939 35.4331008,127.78773 L35.4331008,129.324908 C35.4331008,129.786258 35.7402581,130.093497 36.2014848,130.093497 L36.2014848,130.093497 Z" id="Fill-10" fill="#EBF1FF" mask="url(#mask-2)"></path>
                            <path d="M65.0752064,30.7818896 C64.8485184,26.9188221 61.6650731,23.8312147 57.8270784,23.8312147 C55.4969024,23.8312147 53.2408171,24.9742822 51.8433984,26.8393129 C51.8110144,26.8226258 51.7771584,26.8108466 51.7442837,26.7951411 C51.6593984,26.7544049 51.5730411,26.7151411 51.4852117,26.6798037 C51.4366357,26.6606626 51.3875691,26.6429939 51.3380117,26.625816 C51.2511637,26.5953865 51.1628437,26.5683926 51.0725611,26.5438528 C51.0230037,26.5306012 50.9744277,26.5168589 50.9243797,26.5055706 C50.8277184,26.4839755 50.7290944,26.4667975 50.6294891,26.4520736 C50.5863104,26.4456933 50.5441131,26.4368589 50.4999531,26.4324417 C50.3576597,26.4162454 50.2134037,26.4064294 50.0671851,26.4064294 C47.9376917,26.4064294 46.2051477,28.1394356 46.2051477,30.2694969 C46.2051477,30.3249571 46.2085824,30.3789448 46.2125077,30.4329325 C44.4274624,31.406184 43.2017771,33.4449571 43.2017771,35.486184 C43.2017771,38.526184 45.6742464,40.9998037 48.7134357,40.9998037 L50.9253611,40.9998037 C51.1628437,40.9998037 51.3542037,40.8079018 51.3542037,40.5703558 C51.3542037,40.3333006 51.1628437,40.1413988 50.9253611,40.1413988 L48.7134357,40.1413988 C46.1472491,40.1413988 44.0599531,38.0530552 44.0599531,35.486184 C44.0599531,33.7031166 45.2203797,31.852319 46.8199531,31.0852025 L47.0633237,30.9688834 L47.0633237,30.698454 C47.0633237,30.6469202 47.0667584,30.5948957 47.0697024,30.5418896 L47.0746091,30.4623804 L47.0692117,30.3794356 C47.0662677,30.3426258 47.0633237,30.3063067 47.0633237,30.2694969 C47.0633237,28.6130552 48.4111851,27.2648344 50.0671851,27.2648344 C50.1996651,27.2648344 50.3306731,27.2766135 50.4606997,27.2937914 C50.4940651,27.2982086 50.5274304,27.3036074 50.5607957,27.3090061 C50.6751211,27.3281472 50.7879744,27.3526871 50.8993557,27.3850798 C50.9140757,27.3894969 50.9297771,27.3924417 50.9444971,27.3968589 C51.0671637,27.4341595 51.1863957,27.4812761 51.3031744,27.5342822 C51.3335957,27.5480245 51.3630357,27.5632393 51.3929664,27.5779632 C51.4960064,27.6290061 51.5970837,27.6844663 51.6942357,27.7477791 C52.5210091,28.2832393 53.0710464,29.2128098 53.0710464,30.2694969 C53.0710464,30.5065521 53.2624064,30.698454 53.4998891,30.698454 C53.7373717,30.698454 53.9292224,30.5065521 53.9292224,30.2694969 C53.9292224,29.0871656 53.3943957,28.0294969 52.5558464,27.3202945 C53.7859477,25.7109693 55.8119104,24.6896196 57.8270784,24.6896196 C61.1503637,24.6896196 63.9108544,27.3227485 64.1983851,30.6503558 C63.7602197,30.6194356 63.1037077,30.6037301 62.4467051,30.7038528 C62.2121664,30.7391902 62.0512277,30.9580859 62.0870464,31.1926871 C62.1189397,31.4052025 62.3019584,31.5573497 62.5104917,31.5573497 C62.5320811,31.5573497 62.5536704,31.5558773 62.5752597,31.5524417 C63.5310784,31.4076564 64.5266411,31.5431166 64.5850304,31.5514601 C66.5830251,31.9313374 68.0893717,33.772319 68.0893717,35.8371043 C68.0893717,38.2101104 66.1585984,40.1413988 63.7862251,40.1413988 L62.0816491,40.1413988 C61.8446571,40.1413988 61.6528064,40.3333006 61.6528064,40.5703558 C61.6528064,40.8079018 61.8446571,40.9998037 62.0816491,40.9998037 L63.7862251,40.9998037 C66.6320917,40.9998037 68.9475477,38.6837301 68.9475477,35.8371043 C68.9475477,33.4812761 67.3052864,31.3683926 65.0752064,30.7818896" id="Fill-11" fill="#EBF1FF" mask="url(#mask-2)"></path>
                            <path d="M62.0817963,40.3866994 C61.9807189,40.3866994 61.8982869,40.4691534 61.8982869,40.5707485 C61.8982869,40.6718528 61.9807189,40.7543067 62.0817963,40.7543067 L63.7863723,40.7543067 C66.4968149,40.7543067 68.7018709,38.5486626 68.7018709,35.8370061 C68.7018709,33.6078037 67.1503829,31.5813006 65.0130389,31.0193374 L64.8408149,30.9736933 L64.8305109,30.7960245 C64.6087296,27.0281718 61.5327403,24.0765153 57.8267349,24.0765153 C55.5686869,24.0765153 53.4048469,25.1641227 52.0393216,26.986454 L51.9142016,27.1533252 L51.6399189,27.0173742 C51.5574869,26.9776196 51.4765269,26.9408098 51.3940949,26.9074356 C51.3504256,26.8902577 51.3043029,26.8740613 51.2576896,26.857865 C51.1752576,26.828908 51.0928256,26.8038773 51.0084309,26.7808098 C50.9500416,26.7651043 50.9102976,26.7543067 50.8700629,26.7449816 C50.7797803,26.7243681 50.6865536,26.7086626 50.5928363,26.6944294 L50.4736043,26.6762699 C50.3391616,26.661546 50.2042283,26.6522209 50.0673323,26.6522209 C48.0727723,26.6522209 46.4506283,28.2747975 46.4506283,30.2693988 C46.4506283,30.3189693 46.4540629,30.3665767 46.4574976,30.4151656 L46.4687829,30.5722209 L46.3299243,30.6482945 C44.6057216,31.5881718 43.4467669,33.5322209 43.4467669,35.4860859 C43.4467669,38.3911166 45.8098176,40.7543067 48.7135829,40.7543067 L50.9255083,40.7543067 C51.0265856,40.7543067 51.1090176,40.6718528 51.1090176,40.5707485 C51.1090176,40.4691534 51.0265856,40.3866994 50.9255083,40.3866994 L48.7135829,40.3866994 C46.0119723,40.3866994 43.8147669,38.1884172 43.8147669,35.4860859 C43.8147669,33.6136933 45.0340736,31.6696442 46.7146069,30.8642454 L46.8181376,30.8146748 L46.8181376,30.6988466 C46.8181376,30.6527117 46.8201003,30.6065767 46.8230443,30.5599509 L46.8299136,30.4480491 L46.8240256,30.3960245 C46.8201003,30.3386012 46.8181376,30.3042454 46.8181376,30.2693988 C46.8181376,28.4774969 48.2754176,27.0198282 50.0673323,27.0198282 C50.2110976,27.0198282 50.3524096,27.0320982 50.4927403,27.0507485 L50.5923456,27.0654724 C50.7248256,27.0875583 50.8470016,27.1145521 50.9672149,27.1493988 L51.0162816,27.1621595 C51.1487616,27.2024049 51.2778069,27.2534479 51.4043989,27.3108712 L51.4745643,27.3442454 C51.6129323,27.4129571 51.7218603,27.4733252 51.8273536,27.541546 C52.7596203,28.1457178 53.3160363,29.1655951 53.3160363,30.2693988 C53.3160363,30.3709939 53.3984683,30.4534479 53.5000363,30.4534479 C53.6011136,30.4534479 53.6835456,30.3709939 53.6835456,30.2693988 C53.6835456,29.2053497 53.2149589,28.1987239 52.3979989,27.507681 L52.2189056,27.3570061 L52.3607083,27.1714847 C53.6467456,25.4890307 55.7409109,24.4441227 57.8267349,24.4441227 C61.2363776,24.4441227 64.1430869,27.1611779 64.4428843,30.6296442 L64.4679083,30.9157791 L64.1813589,30.8951656 C63.7569323,30.8657178 63.1171029,30.8500123 62.4831616,30.9462086 C62.4350763,30.9535706 62.3923883,30.9795828 62.3629483,31.0193374 C62.3339989,31.0586012 62.3222229,31.1071902 62.3295829,31.1552883 C62.3433216,31.2460859 62.4193749,31.3118528 62.5106389,31.3118528 C63.5326976,31.1582331 64.5748736,31.3020368 64.6190336,31.3084172 C66.7421483,31.7118528 68.3343616,33.657865 68.3343616,35.8370061 C68.3343616,38.3459632 66.2941696,40.3866994 63.7863723,40.3866994 L62.0817963,40.3866994 Z M63.7863723,41.2451043 L62.0817963,41.2451043 C61.7098709,41.2451043 61.4076203,40.9422822 61.4076203,40.5707485 C61.4076203,40.1987239 61.7098709,39.8959018 62.0817963,39.8959018 L63.7863723,39.8959018 C66.0233216,39.8959018 67.8436949,38.0755337 67.8436949,35.8370061 C67.8436949,33.8895215 66.4232149,32.1506258 64.5390549,31.7923436 C64.5096149,31.7884172 63.5351509,31.655411 62.6122069,31.7947975 C62.2422443,31.8527117 61.8992683,31.5945521 61.8448043,31.2293988 C61.8173269,31.0517301 61.8609963,30.8735706 61.9679616,30.7282945 C62.0744363,30.5830184 62.2314496,30.4882945 62.4095616,30.4613006 C62.9527296,30.3783558 63.4973696,30.3729571 63.9237589,30.3896442 C63.5174869,27.308908 60.8914389,24.9349202 57.8267349,24.9349202 C55.9646549,24.9349202 54.0952149,25.8330798 52.8921003,27.2917301 C53.7100416,28.067681 54.1742123,29.1395828 54.1742123,30.2693988 C54.1742123,30.6414233 53.8719616,30.9442454 53.5000363,30.9442454 C53.1281109,30.9442454 52.8253696,30.6414233 52.8253696,30.2693988 C52.8253696,29.3324663 52.3528576,28.4666994 51.5614123,27.9533252 C51.4716203,27.8959018 51.3793749,27.8448589 51.2841856,27.7977423 L51.2017536,27.7579877 C51.0938069,27.708908 50.9848789,27.6657178 50.8725163,27.631362 C50.7287509,27.5916074 50.6257109,27.5685399 50.5207083,27.551362 L50.4309163,27.5376196 C50.3092309,27.5214233 50.1890176,27.5106258 50.0673323,27.5106258 C48.5462656,27.5106258 47.3088043,28.7484172 47.3088043,30.2693988 L47.3195989,30.4460859 L47.3146923,30.5570061 C47.3107669,30.6257178 47.3088043,30.6625276 47.3088043,30.6988466 L47.3088043,31.1233865 L46.9260843,31.3069448 C45.4079616,32.0347975 44.3054336,33.7923436 44.3054336,35.4860859 C44.3054336,37.9174969 46.2828203,39.8959018 48.7135829,39.8959018 L50.9255083,39.8959018 C51.2974336,39.8959018 51.5996843,40.1987239 51.5996843,40.5707485 C51.5996843,40.9422822 51.2974336,41.2451043 50.9255083,41.2451043 L48.7135829,41.2451043 C45.5389696,41.2451043 42.9561003,38.661546 42.9561003,35.4860859 C42.9561003,33.4095215 44.1577429,31.3432638 45.9599616,30.2939387 L45.9599616,30.2693988 C45.9599616,28.0043681 47.8019243,26.1614233 50.0673323,26.1614233 C50.2223829,26.1614233 50.3759616,26.1717301 50.5270869,26.1884172 C50.5594709,26.1918528 50.5913643,26.1972515 50.6237483,26.2026503 C50.7719296,26.225227 50.8764416,26.2433865 50.9785003,26.266454 C51.0256043,26.2767607 51.0722176,26.2895215 51.1188309,26.3022822 C51.2326656,26.3332025 51.3268736,26.3621595 51.4191189,26.3945521 C51.4701483,26.4117301 51.5221589,26.4308712 51.5741696,26.4509939 C51.6404096,26.4774969 51.7046869,26.5054724 51.7674923,26.5349202 C53.2301696,24.6846135 55.4803669,23.5857178 57.8267349,23.5857178 C61.7348949,23.5857178 64.9880149,26.6492761 65.3079296,30.5923436 C67.5694123,31.2711166 69.1925376,33.4478037 69.1925376,35.8370061 C69.1925376,38.819092 66.7671723,41.2451043 63.7863723,41.2451043 L63.7863723,41.2451043 Z" id="Fill-12" fill="#EBF1FF" mask="url(#mask-2)"></path>
                            <path d="M143.596151,143.828172 C144.223714,143.828172 144.732535,143.319215 144.732535,142.691485 L144.732535,102.998724 C144.732535,102.370994 144.223714,101.862037 143.596151,101.862037 C142.968589,101.862037 142.459767,102.370994 142.459767,102.998724 L142.459767,142.691485 C142.459767,143.319215 142.968589,143.828172 143.596151,143.828172" id="Fill-13" fill="#EBF1FF" mask="url(#mask-2)"></path>
                            <path d="M148.141884,143.828172 C148.769446,143.828172 149.278268,143.319215 149.278268,142.691485 L149.278268,102.998724 C149.278268,102.370994 148.769446,101.862037 148.141884,101.862037 C147.514321,101.862037 147.0055,102.370994 147.0055,102.998724 L147.0055,142.691485 C147.0055,143.319215 147.514321,143.828172 148.141884,143.828172" id="Fill-14" fill="#EBF1FF" mask="url(#mask-2)"></path>
                            <path d="M152.687469,143.828172 C153.315031,143.828172 153.823853,143.319215 153.823853,142.691485 L153.823853,102.998724 C153.823853,102.370994 153.315031,101.862037 152.687469,101.862037 C152.059906,101.862037 151.551085,102.370994 151.551085,102.998724 L151.551085,142.691485 C151.551085,143.319215 152.059906,143.828172 152.687469,143.828172" id="Fill-15" fill="#EBF1FF" mask="url(#mask-2)"></path>
                            <path d="M122.382914,95.0415215 C123.010477,95.0415215 123.519298,94.5325644 123.519298,93.9048344 L123.519298,92.3892515 C123.519298,91.7610307 123.010477,91.2525644 122.382914,91.2525644 C121.755351,91.2525644 121.24653,91.7610307 121.24653,92.3892515 L121.24653,93.9048344 C121.24653,94.5325644 121.755351,95.0415215 122.382914,95.0415215" id="Fill-16" fill="#EBF1FF" mask="url(#mask-2)"></path>
                            <path d="M126.928597,95.0415215 C127.55616,95.0415215 128.064981,94.5325644 128.064981,93.9048344 L128.064981,92.3892515 C128.064981,91.7610307 127.55616,91.2525644 126.928597,91.2525644 C126.301035,91.2525644 125.792213,91.7610307 125.792213,92.3892515 L125.792213,93.9048344 C125.792213,94.5325644 126.301035,95.0415215 126.928597,95.0415215" id="Fill-17" fill="#EBF1FF" mask="url(#mask-2)"></path>
                            <path d="M122.382914,102.619681 C123.010477,102.619681 123.519298,102.110724 123.519298,101.482994 L123.519298,99.967411 C123.519298,99.3391902 123.010477,98.8307239 122.382914,98.8307239 C121.755351,98.8307239 121.24653,99.3391902 121.24653,99.967411 L121.24653,101.482994 C121.24653,102.110724 121.755351,102.619681 122.382914,102.619681" id="Fill-18" fill="#EBF1FF" mask="url(#mask-2)"></path>
                            <path d="M126.928597,102.619681 C127.55616,102.619681 128.064981,102.110724 128.064981,101.482994 L128.064981,99.967411 C128.064981,99.3391902 127.55616,98.8307239 126.928597,98.8307239 C126.301035,98.8307239 125.792213,99.3391902 125.792213,99.967411 L125.792213,101.482994 C125.792213,102.110724 126.301035,102.619681 126.928597,102.619681" id="Fill-19" fill="#EBF1FF" mask="url(#mask-2)"></path>
                            <path d="M131.47433,102.619681 C132.101892,102.619681 132.610714,102.110724 132.610714,101.482994 L132.610714,99.967411 C132.610714,99.3391902 132.101892,98.8307239 131.47433,98.8307239 C130.846767,98.8307239 130.337946,99.3391902 130.337946,99.967411 L130.337946,101.482994 C130.337946,102.110724 130.846767,102.619681 131.47433,102.619681" id="Fill-20" fill="#EBF1FF" mask="url(#mask-2)"></path>
                            <path d="M122.382914,110.19784 C123.010477,110.19784 123.519298,109.688883 123.519298,109.061153 L123.519298,107.545571 C123.519298,106.91735 123.010477,106.408883 122.382914,106.408883 C121.755351,106.408883 121.24653,106.91735 121.24653,107.545571 L121.24653,109.061153 C121.24653,109.688883 121.755351,110.19784 122.382914,110.19784" id="Fill-21" fill="#EBF1FF" mask="url(#mask-2)"></path>
                            <path d="M126.928597,110.19784 C127.55616,110.19784 128.064981,109.688883 128.064981,109.061153 L128.064981,107.545571 C128.064981,106.91735 127.55616,106.408883 126.928597,106.408883 C126.301035,106.408883 125.792213,106.91735 125.792213,107.545571 L125.792213,109.061153 C125.792213,109.688883 126.301035,110.19784 126.928597,110.19784" id="Fill-22" fill="#EBF1FF" mask="url(#mask-2)"></path>
                            <path d="M131.47433,110.19784 C132.101892,110.19784 132.610714,109.688883 132.610714,109.061153 L132.610714,107.545571 C132.610714,106.91735 132.101892,106.408883 131.47433,106.408883 C130.846767,106.408883 130.337946,106.91735 130.337946,107.545571 L130.337946,109.061153 C130.337946,109.688883 130.846767,110.19784 131.47433,110.19784" id="Fill-23" fill="#EBF1FF" mask="url(#mask-2)"></path>
                            <path d="M122.382914,117.776 C123.010477,117.776 123.519298,117.267043 123.519298,116.639313 L123.519298,115.12373 C123.519298,114.495509 123.010477,113.987043 122.382914,113.987043 C121.755351,113.987043 121.24653,114.495509 121.24653,115.12373 L121.24653,116.639313 C121.24653,117.267043 121.755351,117.776 122.382914,117.776" id="Fill-24" fill="#EBF1FF" mask="url(#mask-2)"></path>
                            <path d="M126.928597,117.776 C127.55616,117.776 128.064981,117.267043 128.064981,116.639313 L128.064981,115.12373 C128.064981,114.495509 127.55616,113.987043 126.928597,113.987043 C126.301035,113.987043 125.792213,114.495509 125.792213,115.12373 L125.792213,116.639313 C125.792213,117.267043 126.301035,117.776 126.928597,117.776" id="Fill-25" fill="#EBF1FF" mask="url(#mask-2)"></path>
                            <path d="M131.47433,117.776 C132.101892,117.776 132.610714,117.267043 132.610714,116.639313 L132.610714,115.12373 C132.610714,114.495509 132.101892,113.987043 131.47433,113.987043 C130.846767,113.987043 130.337946,114.495509 130.337946,115.12373 L130.337946,116.639313 C130.337946,117.267043 130.846767,117.776 131.47433,117.776" id="Fill-26" fill="#EBF1FF" mask="url(#mask-2)"></path>
                            <path d="M163.294161,107.166577 C163.921724,107.166577 164.430545,106.65762 164.430545,106.02989 L164.430545,104.514307 C164.430545,103.886086 163.921724,103.37762 163.294161,103.37762 C162.666598,103.37762 162.157777,103.886086 162.157777,104.514307 L162.157777,106.02989 C162.157777,106.65762 162.666598,107.166577 163.294161,107.166577" id="Fill-27" fill="#EBF1FF" mask="url(#mask-2)"></path>
                            <path d="M163.294161,114.744785 C163.921724,114.744785 164.430545,114.235828 164.430545,113.608098 L164.430545,112.092515 C164.430545,111.464294 163.921724,110.955828 163.294161,110.955828 C162.666598,110.955828 162.157777,111.464294 162.157777,112.092515 L162.157777,113.608098 C162.157777,114.235828 162.666598,114.744785 163.294161,114.744785" id="Fill-28" fill="#EBF1FF" mask="url(#mask-2)"></path>
                            <path d="M163.294161,122.322896 C163.921724,122.322896 164.430545,121.813939 164.430545,121.186209 L164.430545,119.670626 C164.430545,119.042405 163.921724,118.533939 163.294161,118.533939 C162.666598,118.533939 162.157777,119.042405 162.157777,119.670626 L162.157777,121.186209 C162.157777,121.813939 162.666598,122.322896 163.294161,122.322896" id="Fill-29" fill="#EBF1FF" mask="url(#mask-2)"></path>
                            <path d="M163.294161,129.877988 C163.921724,129.877988 164.430545,129.369031 164.430545,128.741301 L164.430545,127.225718 C164.430545,126.597497 163.921724,126.089031 163.294161,126.089031 C162.666598,126.089031 162.157777,126.597497 162.157777,127.225718 L162.157777,128.741301 C162.157777,129.369031 162.666598,129.877988 163.294161,129.877988" id="Fill-30" fill="#EBF1FF" mask="url(#mask-2)"></path>
                            <path d="M163.294161,137.456147 C163.921724,137.456147 164.430545,136.94719 164.430545,136.31946 L164.430545,134.803877 C164.430545,134.175656 163.921724,133.66719 163.294161,133.66719 C162.666598,133.66719 162.157777,134.175656 162.157777,134.803877 L162.157777,136.31946 C162.157777,136.94719 162.666598,137.456147 163.294161,137.456147" id="Fill-31" fill="#EBF1FF" mask="url(#mask-2)"></path>
                            <path d="M163.294161,145.034307 C163.921724,145.034307 164.430545,144.52535 164.430545,143.89762 L164.430545,142.382037 C164.430545,141.753816 163.921724,141.24535 163.294161,141.24535 C162.666598,141.24535 162.157777,141.753816 162.157777,142.382037 L162.157777,143.89762 C162.157777,144.52535 162.666598,145.034307 163.294161,145.034307" id="Fill-32" fill="#EBF1FF" mask="url(#mask-2)"></path>
                            <path d="M70.0484565,129.43146 L53.1302699,129.43146 L53.1302699,109.827043 C53.1302699,109.827043 52.1852459,98.129865 62.4073045,93.0579632 C72.6293632,87.9865521 83.3195179,85.4506012 83.3195179,85.4506012 C83.3195179,85.4506012 84.3558059,92.8557546 92.1554432,94.7040982 C92.6304085,94.8169816 94.2903339,97.4766135 95.0763819,97.5109693 C95.6313259,97.5355092 96.9340459,95.063362 97.4350165,95.0447117 C105.351433,94.7512147 105.758195,89.3745276 106.681139,85.4506012 L126.39171,92.4856933 C126.39171,92.4856933 136.941534,96.6437301 136.860083,108.831706 C136.778142,121.019681 136.861555,129.43146 136.861555,129.43146 L119.115123,129.43146 L119.016499,148.572564 L70.3747499,148.572564 L70.0484565,129.43146 Z" id="Fill-33" fill="#E5EDFD" mask="url(#mask-2)"></path>
                            <path d="M100.78313,103.684417 C99.7595989,103.66184 106.493508,104.660613 108.68826,104.041718 C111.775535,103.171534 113.717594,99.7045399 115.68026,95.7781595 C117.642927,91.8517791 129.660826,96.2223313 133.834927,99.6431902 C133.834927,99.6431902 132.60826,96.084908 131.87226,95.7168098 C131.13626,95.3487117 118.450074,88.715092 114.244079,87.798773 C110.037594,86.882454 110.055258,86.2645399 110.055258,86.2645399 C110.055258,86.2645399 112.858927,92.1791411 112.490927,93.3958282 C112.122927,94.6125153 110.407556,103.895951 100.78313,103.684417" id="Fill-34" fill="#BFCADB" mask="url(#mask-2)"></path>
                            <path d="M120.996977,43.5644172 C120.99943,43.5644172 121.203548,43.3970552 121.589212,43.2723926 C121.781553,43.2105521 122.021489,43.1590184 122.2943,43.1467485 C122.362502,43.1433129 122.432668,43.1428221 122.504305,43.1447853 C122.575942,43.1467485 122.649542,43.1516564 122.724124,43.16 C122.873286,43.1761963 123.027846,43.2056442 123.182897,43.2517791 C123.804081,43.4348466 124.437532,43.8804908 124.809948,44.8002454 C124.996401,45.2601227 125.120049,45.8382822 125.152433,46.5622086 C125.160774,46.7433129 125.163228,46.9332515 125.159302,47.1325153 C125.155868,47.3322699 125.146054,47.5413497 125.130353,47.7602454 C125.097969,48.1980368 125.03958,48.6755828 124.953222,49.1958282 C124.955185,49.1953374 125.033692,50.7683436 124.486108,52.5759509 C123.971398,54.3433129 122.734918,56.5141104 120.451846,57.1344785 C120.714353,52.6456442 120.722204,48.0728834 120.996977,43.5644172" id="Fill-35" fill="#FFFFFF" mask="url(#mask-2)"></path>
                            <path d="M120.481679,58.4170307 L120.001316,56.513227 C122.220111,55.9537178 123.83097,55.0437791 124.355492,48.3885644 C124.504164,46.4989939 124.16217,45.1286871 123.366308,44.4263558 C122.364858,43.5424294 120.8433,43.8442699 120.82809,43.8467239 L120.413967,41.9281963 C120.513572,41.9056196 122.891343,41.4074601 124.645967,42.9372761 C125.954084,44.0783804 126.514916,45.9645153 126.312271,48.5431656 C125.746532,55.7142086 123.746084,57.5939632 120.481679,58.4170307" id="Fill-36" fill="#3B434F" mask="url(#mask-2)"></path>
                            <path d="M70.3525227,43.4789693 C70.3500693,43.4789693 70.1410453,43.3307485 69.74704,43.220319 C69.549792,43.1653497 69.3044587,43.1197055 69.0252693,43.1084172 C68.9555947,43.1059632 68.8839573,43.1049816 68.8103573,43.1069448 C68.737248,43.108908 68.6616853,43.1133252 68.585632,43.1206871 C68.4330347,43.1349202 68.27504,43.1609325 68.1165547,43.2016687 C67.4811413,43.3641227 66.8329707,43.7592147 66.4522133,44.5744294 C66.2608533,44.9817914 66.134752,45.4946748 66.1013867,46.1361472 C66.0930453,46.2961472 66.090592,46.4644908 66.0945173,46.6416687 C66.097952,46.8183558 66.1077653,47.0038773 66.124448,47.1977423 C66.1573227,47.5859632 66.2166933,48.0090307 66.305504,48.4703804 C66.3035413,48.4698896 66.2225813,49.8637546 66.7829227,51.4657178 C67.3098987,53.0323436 68.5748373,54.9562699 70.9104107,55.5059632 C70.6415253,51.5275583 70.633184,47.4745521 70.3525227,43.4789693" id="Fill-37" fill="#FFFFFF" mask="url(#mask-2)"></path>
                            <path d="M84.1079211,78.7102822 C84.1079211,78.7102822 83.2144171,83.8965399 83.8689664,85.4508957 C84.5230251,87.0047607 88.2766251,93.5554356 91.8923477,94.945865 C95.5085611,96.3367853 94.8643157,97.8327362 95.5816704,97.510773 C96.2990251,97.1888098 97.0708437,95.156908 99.1998464,94.945865 C101.328358,94.7348221 107.486225,91.8508957 107.339025,88.1326135 C107.191825,84.4143313 107.339025,78.7102822 107.339025,78.7102822 C107.339025,78.7102822 101.898513,83.3502822 97.3814357,83.0302822 C92.8643584,82.7102822 85.1648171,80.5998528 84.1079211,78.7102822" id="Fill-38" fill="#FFFFFF" mask="url(#mask-2)"></path>
                            <polygon id="Fill-39" fill="#FFFFFF" mask="url(#mask-2)" points="57.2912213 148.600245 70.8655147 148.600245 70.8655147 129.459141 57.2912213 129.459141"></polygon>
                            <polygon id="Fill-40" fill="#FFFFFF" mask="url(#mask-2)" points="119.605888 148.600245 133.344555 148.600245 133.344555 129.459141 119.605888 129.459141"></polygon>
                            <polygon id="Fill-41" fill="#3B434F" mask="url(#mask-2)" points="56.074368 148.572761 58.0370347 148.572761 58.0370347 130.413252 56.074368 130.413252"></polygon>
                            <polygon id="Fill-42" fill="#3B434F" mask="url(#mask-2)" points="132.127701 148.572761 134.090368 148.572761 134.090368 129.431656 132.127701 129.431656"></polygon>
                            <path d="M70.5391232,129.949742 L70.5391232,129.949742 C69.9969365,129.949742 69.5577899,129.510479 69.5577899,128.968147 L69.5577899,121.606184 C69.5577899,121.063853 69.9969365,120.624589 70.5391232,120.624589 C71.0813099,120.624589 71.5204565,121.063853 71.5204565,121.606184 L71.5204565,128.968147 C71.5204565,129.510479 71.0813099,129.949742 70.5391232,129.949742" id="Fill-43" fill="#3B434F" mask="url(#mask-2)"></path>
                            <path d="M119.60579,129.949742 L119.60579,129.949742 C119.063603,129.949742 118.624457,129.510479 118.624457,128.968147 L118.624457,122.096982 C118.624457,121.55465 119.063603,121.115387 119.60579,121.115387 C120.147977,121.115387 120.587123,121.55465 120.587123,122.096982 L120.587123,128.968147 C120.587123,129.510479 120.147977,129.949742 119.60579,129.949742" id="Fill-44" fill="#3B434F" mask="url(#mask-2)"></path>
                            <polygon id="Fill-45" fill="#BFCADB" mask="url(#mask-2)" points="75.4457899 121.578699 71.5621632 121.578699 71.8467499 148.572564 75.7303765 148.572564"></polygon>
                            <path d="M58.0371328,129.922258 L58.0371328,112.771828 C58.0371328,112.771828 57.0916181,101.07465 67.3136768,96.0027485 C74.3061675,92.5337914 75.6579541,92.103362 79.4993835,91.0069202 C78.6093141,89.2361227 84.3299968,85.9413988 84.3299968,85.9413988 C84.3299968,85.9413988 73.5961728,88.4773497 63.3736235,93.5487607 C53.1515648,98.6206626 54.1117995,110.31784 54.1117995,110.31784 L54.1117995,129.922258 L58.0371328,129.922258 Z" id="Fill-46" fill="#BFCADB" mask="url(#mask-2)"></path>
                            <path d="M71.8301163,147.590969 L118.530788,147.590969 L118.629412,128.449865 L136.362596,128.449865 C136.344442,125.995877 136.305188,118.507288 136.370447,108.824834 C136.4465,97.4407853 126.622372,93.4304785 126.523258,93.3912147 L107.892154,86.7453252 C107.07961,90.4999264 105.958927,95.6125644 98.2343616,96.0120736 C98.0680256,96.1961227 97.8069909,96.5509693 97.6225003,96.8012761 C96.8835563,97.8029939 96.3462763,98.5254479 95.5391296,98.491092 C94.7020523,98.454773 94.0102123,97.6827485 92.9695083,96.4155092 C92.7438016,96.139681 92.4449856,95.7764908 92.2850283,95.6194356 C85.9034176,94.0287607 83.7763776,88.8950184 83.1409643,86.6501104 C80.3171776,87.3961227 71.6991083,89.8456933 63.4514923,93.9374724 C53.9413909,98.6555092 54.7063403,109.627779 54.7161536,109.738209 L54.6023189,109.827043 L54.6023189,128.449865 L71.5038229,128.449865 L71.8301163,147.590969 Z M120.483642,149.55416 L69.9003243,149.55416 L69.5745216,130.413055 L52.6396523,130.413055 L52.6396523,109.86189 C52.6396523,108.96373 52.1249429,97.3072883 62.4618176,92.1789448 C72.6662123,87.1163681 83.4751083,84.5215215 83.5825643,84.496 L84.6659563,84.2447117 L84.8264043,85.3185767 C84.8651669,85.5914601 85.8710336,92.0847117 92.8944363,93.7490061 C93.3929536,93.8667975 93.7437803,94.2697423 94.4827243,95.169865 C94.7496469,95.494773 95.1878123,96.0263067 95.5067456,96.3369816 C95.6833856,96.1215215 95.8943723,95.8373497 96.0425536,95.6361227 C96.7289963,94.7055706 97.1833536,94.0906012 97.8958016,94.0640982 C104.351994,93.824589 105.178767,90.0056933 105.978554,86.3119509 C106.058532,85.9413988 106.13753,85.5782086 106.220452,85.225816 L106.471674,84.1573497 L127.213626,91.5610307 C127.35641,91.6164908 138.417999,96.1386994 138.333114,108.851828 C138.252154,120.893055 138.332623,129.35146 138.333604,129.435387 L138.342927,130.413055 L120.582266,130.413055 L120.483642,149.55416 Z" id="Fill-47" fill="#3B434F" mask="url(#mask-2)"></path>
                            <polygon id="Fill-48" fill="#3B434F" mask="url(#mask-2)" points="82.570368 85.7506748 84.5330347 85.7506748 84.5330347 77.8979141 82.570368 77.8979141"></polygon>
                            <polygon id="Fill-49" fill="#3B434F" mask="url(#mask-2)" points="106.122368 86.2414724 108.085035 86.2414724 108.085035 78.3887117 106.122368 78.3887117"></polygon>
                            <path d="M83.4017536,87.0672883 C80.9847296,89.5094969 79.3360896,91.3931779 81.8743083,96.2452025 C84.7555029,101.751951 88.7873109,101.940908 89.6567723,101.760294 C90.0787456,101.064344 90.8638123,98.3472883 91.4820523,95.7578405 C88.6985003,95.1394356 86.3835349,93.2533006 84.7417643,90.2471656 C84.1097856,89.0893742 83.6809429,87.9561227 83.4017536,87.0672883 L83.4017536,87.0672883 Z M89.1548203,103.760785 C88.5243136,103.760785 87.7706496,103.657227 86.9492736,103.402994 C85.0194816,102.805202 82.2707669,101.236613 80.1353856,97.1551411 C76.8528256,90.8802945 79.7119403,87.9983313 82.2349483,85.456 C82.5573163,85.131092 82.8831189,84.8027485 83.2020523,84.4636074 L84.5489323,83.0304785 L84.8840576,84.9681472 C84.8987776,85.0506012 86.4291669,93.3450798 92.7729963,93.9791902 L93.8755243,94.0896196 L93.6326443,95.1708466 C91.9187456,102.807656 91.0424149,103.273914 90.6680363,103.473178 C90.3407616,103.64692 89.8152576,103.760785 89.1548203,103.760785 L89.1548203,103.760785 Z" id="Fill-50" fill="#3B434F" mask="url(#mask-2)"></path>
                            <path d="M96.8306624,101.442601 C96.8306624,102.120393 96.2816064,102.669595 95.6039957,102.669595 C94.9263851,102.669595 94.3773291,102.120393 94.3773291,101.442601 C94.3773291,100.76481 94.9263851,100.215607 95.6039957,100.215607 C96.2816064,100.215607 96.8306624,100.76481 96.8306624,101.442601" id="Fill-51" fill="#3B434F" mask="url(#mask-2)"></path>
                            <path d="M96.8306624,105.85816 C96.8306624,106.535951 96.2816064,107.085153 95.6039957,107.085153 C94.9263851,107.085153 94.3773291,106.535951 94.3773291,105.85816 C94.3773291,105.180368 94.9263851,104.631166 95.6039957,104.631166 C96.2816064,104.631166 96.8306624,105.180368 96.8306624,105.85816" id="Fill-52" fill="#3B434F" mask="url(#mask-2)"></path>
                            <path d="M95.7200384,11.0046135 C109.629948,11.0046135 120.609596,24.0073129 120.25239,39.6298896 L119.873105,56.2340613 C119.536508,70.9520982 108.72663,82.586454 95.7200384,82.586454 C82.7134464,82.586454 71.9035691,70.9520982 71.5669717,56.2340613 L71.1876864,39.6298896 C70.8304811,24.0073129 81.8101291,11.0046135 95.7200384,11.0046135" id="Fill-53" fill="#FFFFFF" mask="url(#mask-2)"></path>
                            <path d="M102.829504,81.8033374 C88.241984,81.8033374 76.118592,70.1694724 75.7412693,55.4509448 L75.3158613,38.846773 C74.979264,25.7179387 83.6233387,14.4423558 95.6500693,11.176589 C81.5277013,12.7417423 70.814976,25.0416196 71.188864,39.6295951 L71.614272,56.2342577 C71.991104,70.9522945 84.1149867,82.5861595 98.7025067,82.5861595 C101.149952,82.5861595 103.52576,82.2519264 105.790677,81.6369571 C104.816704,81.7434601 103.829973,81.8033374 102.829504,81.8033374" id="Fill-54" fill="#E6E7E8" mask="url(#mask-2)"></path>
                            <path d="M95.5696981,10.5572025 C81.8496768,10.5572025 71.0206635,23.4583067 71.3724715,38.9586748 L71.7468501,55.4332761 C72.0785408,70.0364663 82.7407275,81.5795337 95.5696981,81.5795337 C108.398669,81.5795337 119.060855,70.0364663 119.392546,55.4332761 L119.766925,38.9586748 C120.118733,23.4583067 109.289719,10.5572025 95.5696981,10.5572025 M121.331661,38.5557301 L120.93373,55.8347485 C120.581431,71.1505767 109.254391,83.2575706 95.6256341,83.2575706 C81.9963861,83.2575706 70.6698368,71.1505767 70.3170475,55.8347485 L69.9196075,38.5557301 C69.5457195,22.2985521 81.0498901,8.7677546 95.6256341,8.7677546 C110.200887,8.7677546 121.705549,22.2985521 121.331661,38.5557301" id="Fill-55" fill="#3B434F" mask="url(#mask-2)"></path>
                            <path d="M95.5697963,10.8027485 C89.6587349,10.8027485 83.9905536,13.2719509 79.6089003,17.7553865 C74.3469909,23.1399264 71.4343936,30.8660613 71.6183936,38.9534233 L71.9922816,55.4280245 C72.1507669,62.4130552 74.6938923,68.9436074 79.1525803,73.817227 C83.5882069,78.6648344 89.4187989,81.3342822 95.5697963,81.3342822 C101.720794,81.3342822 107.551386,78.6648344 111.986522,73.817227 C116.4457,68.9436074 118.988826,62.4130552 119.147311,55.4280245 L119.521199,38.9534233 C119.705199,30.8660613 116.792602,23.1399264 111.530692,17.7553865 C107.149039,13.2719509 101.480858,10.8027485 95.5697963,10.8027485 M95.5697963,81.8250798 C89.2794496,81.8250798 83.3203029,79.0986994 78.7909589,74.1485153 C74.2518016,69.1875337 71.6630443,62.5431166 71.5016149,55.4388221 L71.1277269,38.9642209 C70.9407829,30.7463067 73.9044096,22.8906012 79.2580736,17.412319 C83.7329536,12.8336687 89.5257643,10.3119509 95.5697963,10.3119509 C101.613828,10.3119509 107.406639,12.8336687 111.881519,17.412319 C117.235183,22.8906012 120.19881,30.7463067 120.011866,38.9642209 L119.637978,55.4388221 C119.476548,62.5431166 116.887791,69.1875337 112.348634,74.1485153 C107.81929,79.0986994 101.860143,81.8250798 95.5697963,81.8250798 M95.6252416,9.01330061 C89.2799403,9.01330061 83.2099029,11.6493742 78.5333589,16.4361227 C73.0212096,22.0778405 69.9712256,30.1382086 70.1650389,38.5499877 L70.5624789,55.8290061 C70.7312683,63.1575951 73.4338603,70.0096196 78.1722283,75.1227485 C82.8870443,80.2103558 89.0856363,83.0118282 95.6252416,83.0118282 C102.164847,83.0118282 108.363439,80.2103558 113.078746,75.1227485 C117.817114,70.0096196 120.520196,63.1575951 120.688495,55.8290061 L121.085935,38.5499877 C121.279258,30.1382086 118.229764,22.0778405 112.717124,16.4361227 C108.041071,11.6493742 101.971034,9.01330061 95.6252416,9.01330061 M95.6252416,83.5026258 C88.9477589,83.5026258 82.6211029,80.6452025 77.8130603,75.4564908 C72.9922603,70.2550184 70.2435456,63.288638 70.0718123,55.8402945 L69.6743723,38.5617669 C69.4776149,30.0179632 72.5791189,21.8285153 78.1820416,16.0930552 C82.9518123,11.211092 89.1464789,8.52250307 95.6252416,8.52250307 C102.104004,8.52250307 108.298671,11.211092 113.068442,16.0925644 C118.671855,21.8285153 121.772868,30.0179632 121.576602,38.5617669 L121.179162,55.8402945 C121.007919,63.288638 118.258714,70.2550184 113.438404,75.4564908 C108.62938,80.6452025 102.303215,83.5026258 95.6252416,83.5026258" id="Fill-56" fill="#3B434F" mask="url(#mask-2)"></path>
                            <path d="M103.669035,67.6272393 C102.153856,68.9430675 98.7319467,70.195092 94.7501867,70.195092 C90.7684267,70.195092 87.3460267,68.9430675 85.830848,67.6272393 C85.830848,67.6272393 85.6757973,67.2007362 85.9034667,66.9730061 C86.1350613,66.7413497 86.497664,66.7919018 86.497664,66.7919018 C88.0113707,68.1087117 90.766464,69.1948466 94.7501867,69.1948466 C98.7334187,69.1948466 101.488512,68.1087117 103.002219,66.7919018 C103.002219,66.7919018 103.372181,66.6544785 103.552256,66.8341104 C103.898667,67.1806135 103.669035,67.6272393 103.669035,67.6272393" id="Fill-57" fill="#3B434F" mask="url(#mask-2)"></path>
                            <path d="M103.236463,67.2367607 C102.716356,67.6735706 101.896452,68.2266994 100.693828,68.6968834 C101.794884,68.2919755 102.673668,67.8105031 103.250692,67.337865 C103.25609,67.306454 103.255599,67.2706258 103.24186,67.2362699 C103.240388,67.2362699 103.238426,67.2367607 103.236463,67.2367607 M86.2657749,67.3516074 C86.8432896,67.8193374 87.7147136,68.2963926 88.8064469,68.6968834 C87.6489643,68.2443681 86.8462336,67.7152883 86.3236736,67.2873129 C86.2937429,67.294184 86.2657749,67.3049816 86.2505643,67.3197055 C86.2554709,67.3187239 86.2603776,67.3305031 86.2657749,67.3516074 M92.4079403,69.5562699 C93.8971136,69.7462086 95.6026709,69.7462086 97.0923349,69.5562699 C96.3784149,69.6387239 95.5997269,69.6853497 94.7498923,69.6853497 C93.9005483,69.6853497 93.1213696,69.6387239 92.4079403,69.5562699 M94.7498923,70.6860859 C90.5046443,70.6860859 87.0498603,69.3359018 85.5091669,67.9974969 L85.4129963,67.9140613 L85.3693269,67.7947975 C85.3428309,67.7206871 85.1205589,67.061546 85.5567616,66.6257178 C85.9497856,66.232589 86.5032576,66.2968834 86.5650816,66.3057178 L86.7093376,66.3258405 L86.8197376,66.421546 C88.4870229,67.8718528 91.3775403,68.7037546 94.7498923,68.7037546 C98.1222443,68.7037546 101.012762,67.8718528 102.680047,66.421546 L102.747759,66.3626503 L102.831663,66.3317301 C102.942554,66.2900123 103.516143,66.104 103.899844,66.4873129 C104.372356,66.9604417 104.251162,67.5675583 104.105434,67.8517301 L104.062255,67.9356564 L103.990618,67.9974969 C102.449924,69.3359018 98.9951403,70.6860859 94.7498923,70.6860859" id="Fill-58" fill="#3B434F" mask="url(#mask-2)"></path>
                            <path d="M120.413918,41.2031411 C120.413918,41.2031411 130.736073,14.112589 98.9506859,7.94130061 C98.9506859,7.94130061 92.2977365,7.58056442 87.1015765,1.38571779 C87.1015765,1.38571779 83.3891925,6.47626994 85.5363499,10.3687853 C85.5363499,10.3687853 82.8038272,12.7530798 75.4757205,10.8546748 C75.4757205,10.8546748 74.3663232,13.2242454 75.2519765,15.9530798 C75.2519765,15.9530798 66.0338219,19.9398282 70.4267605,37.7734479 C70.4689579,37.9442454 70.5121365,38.1165153 70.5567872,38.2897669 C70.5567872,38.2897669 74.5007659,22.5189693 77.2642005,22.2657178 C77.2642005,22.2657178 92.1534805,30.8159018 104.763614,21.5373742 C104.763614,21.5373742 110.990174,29.8465767 118.625438,30.2774969 C118.625438,30.2774969 120.006174,35.6360245 120.413918,41.2031411" id="Fill-59" fill="#82D4BB" mask="url(#mask-2)"></path>
                            <path d="M78.2671232,17.3117055 C77.3814699,14.5828712 77.4109099,13.9718282 77.4109099,13.9718282 C84.7395072,15.8702331 90.4111232,13.1399264 90.4111232,13.1399264 C88.2639659,9.24692025 87.3444565,3.26262577 87.3444565,3.26262577 C92.5406165,9.45747239 100.886366,11.058454 100.886366,11.058454 C110.701171,12.9637301 116.497417,16.864589 119.826099,21.3455706 C117.006729,15.6385767 111.010291,10.3306012 99.0154539,8.00127607 C99.0154539,8.00127607 92.3625045,7.64103067 87.1658539,1.44618405 C87.1658539,1.44618405 83.4534699,6.5362454 85.6006272,10.4292515 C85.6006272,10.4292515 82.8685952,12.813546 75.5399979,10.9146503 C75.5399979,10.9146503 74.4310912,13.2847117 75.3162539,16.013546 C75.3162539,16.013546 66.0985899,20.0002945 70.4915285,37.8339141 C70.5332352,38.0047117 70.5769045,38.1764908 70.6210645,38.3497423 C70.6210645,38.3497423 70.9110485,37.1944049 71.3855232,35.5099877 C69.8924245,22.2383313 78.2671232,17.3117055 78.2671232,17.3117055" id="Fill-60" fill="#000000" opacity="0.0956739739" mask="url(#mask-2)"></path>
                            <path d="M98.5323925,8.65580368 C98.5323925,8.65580368 92.5492032,8.33040491 87.2387179,2.72795092 C87.2387179,2.72795092 84.1970752,6.77604908 86.3442325,10.6690552 C86.3442325,10.6690552 83.2741312,13.6859877 75.9455339,11.7875828 C75.9455339,11.7875828 75.3660565,13.3066012 75.9455339,16.1493006 C75.9455339,16.1493006 67.7268672,20.3937178 70.5781312,34.8280736 C70.6124779,35.0003436 70.5334805,34.7662331 70.5781312,34.9394847 C70.5781312,34.9394847 74.0162325,21.6212025 77.1756352,21.518135 C77.1756352,21.518135 92.6017045,30.2538405 105.017534,20.5115092 C105.017534,20.5115092 111.583145,29.2516319 119.218409,29.6830429 C119.218409,29.6830429 119.880809,31.5559264 120.672254,37.064638 C120.672254,37.064638 127.368382,14.1522454 98.5323925,8.65580368 M121.119251,41.4268466 C120.80915,42.2690552 119.777769,41.985865 119.777769,41.985865 C119.370025,36.4187485 118.100179,31.0248834 118.100179,31.0248834 C110.364329,30.0501595 104.570537,22.6366626 104.570537,22.6366626 C92.0344939,31.2545767 77.2870165,22.9723681 77.2870165,22.9723681 C74.3263339,25.4278282 71.3607445,38.4069693 71.3607445,38.4069693 C71.3165845,38.2337178 69.8377152,38.5777669 69.7955179,38.4069693 C65.4025792,20.5733497 74.3798165,15.5902822 74.3798165,15.5902822 C73.4946539,12.8614479 74.9391765,9.99813497 74.9391765,9.99813497 C82.2677739,11.8965399 84.5552619,10.2214479 84.5552619,10.2214479 C82.6181099,5.36746012 86.9035925,0.378993865 86.9035925,0.378993865 C92.0997525,6.57384049 99.2031339,7.20157055 99.2031339,7.20157055 C128.437054,13.0616933 123.191827,35.801816 121.119251,41.4268466" id="Fill-61" fill="#394451" mask="url(#mask-2)"></path>
                            <path d="M105.063019,20.1638282 L105.213653,20.3640736 C105.278421,20.450454 111.800363,29.0183067 119.232491,29.4379387 L119.395392,29.4472638 L119.449856,29.6013742 C119.47488,29.6720491 120.022464,31.252908 120.717248,35.7098405 C121.203989,32.9957301 121.826645,26.4367117 118.136832,20.4077546 C114.568213,14.5775706 107.961877,10.7056687 98.5008427,8.89953374 C98.1328427,8.87253988 92.3910613,8.36652761 87.2714453,3.11597546 C86.6841173,4.0273865 84.806336,7.37217178 86.5589973,10.5505767 L86.64928,10.7135215 L86.5163093,10.8440736 C86.3877547,10.9697178 83.3259947,13.8747485 76.114176,12.0833374 C75.989056,12.5814969 75.74912,13.958184 76.1858133,16.1005153 L76.223104,16.2816196 L76.05824,16.3675092 C75.9797333,16.4082454 68.417088,20.5083681 70.636864,33.7810061 C71.5710933,30.4318037 74.3585707,21.364319 77.1671467,21.2730307 L77.2363307,21.2705767 L77.296192,21.3044417 C77.44928,21.3908221 92.7247147,29.8453006 104.866261,20.3184294 L105.063019,20.1638282 Z M120.590165,38.2197791 L120.428736,37.0997791 C119.773205,32.535362 119.201579,30.4632147 119.035733,29.9169571 C111.998101,29.4099632 106.016875,22.1849325 104.973227,20.8563436 C93.0161707,30.0288589 78.2314027,22.3675092 77.1205333,21.7677546 C74.6912427,22.0057914 71.751168,31.3775706 70.8159573,35.0011288 L70.577984,35.9238282 L70.3405013,35.000638 C70.323328,34.932908 70.3184213,34.8735215 70.3267627,34.8224785 C67.7350613,21.5444417 74.521472,16.7346258 75.671104,16.0259141 C75.1406933,13.2568344 75.6922027,11.7633374 75.7162453,11.7000245 L75.794752,11.4948712 L76.00672,11.5498405 C82.259776,13.1694724 85.3681493,11.1321718 86.0349653,10.6094724 C84.0222507,6.67818405 87.0118827,2.62174233 87.0427947,2.58051534 L87.217472,2.3483681 L87.4171733,2.55892025 C92.6000853,8.0273865 98.487104,8.4072638 98.545984,8.41069939 L98.578368,8.41462577 C108.191509,10.246773 114.913643,14.1976933 118.558315,20.1569571 C123.448789,28.1520491 120.933632,37.0448098 120.907136,37.1336442 L120.590165,38.2197791 Z M120.008235,41.7790429 C120.259947,41.8065276 120.723627,41.7927853 120.889472,41.3417423 C121.606827,39.3947485 124.929131,29.2214969 119.868885,20.1711902 C116.284565,13.761865 109.315627,9.47916564 99.1549013,7.44235583 C99.1102507,7.43990184 92.0937173,6.75523926 86.909824,0.765055215 C86.1286827,1.77953374 83.151808,6.04309202 84.7832747,10.130454 L84.85344,10.3071411 L84.6998613,10.4195337 C84.6041813,10.4902086 82.278912,12.1122945 75.0769067,10.2865276 C74.7913387,10.9417423 73.8934187,13.2951166 74.6132267,15.5145031 L74.6755413,15.7064049 L74.499392,15.8050552 C74.4115627,15.8536442 65.7885867,20.9019877 69.9999787,38.2109448 C70.1373653,38.2089816 70.3753387,38.1819877 70.5451093,38.1628466 C70.8027093,38.1333988 71.0132053,38.1083681 71.177088,38.1118037 C71.6108373,36.2683681 74.3296213,25.1061595 77.1303467,22.7832147 L77.2603733,22.6757301 L77.4075733,22.758184 C77.553792,22.840638 92.170752,30.8641963 104.431531,22.4342577 L104.621909,22.3037055 L104.763712,22.4853006 C104.82112,22.5589202 110.587925,29.8310675 118.130944,30.7817423 L118.300224,30.8028466 L118.338987,30.9687362 C118.351744,31.0227239 119.588715,36.321865 120.008235,41.7790429 L120.008235,41.7790429 Z M120.154944,42.2796564 C119.986645,42.2796564 119.832085,42.2556074 119.712853,42.2227239 L119.546027,42.1770798 L119.532779,42.0038282 C119.170667,37.0575706 118.112789,32.1922945 117.898859,31.2460368 C110.909312,30.2772025 105.468309,24.1000245 104.522304,22.9657914 C92.733056,30.9000245 78.9310933,24.1113129 77.3217067,23.2686135 C74.4969387,25.8973252 71.628992,38.3346258 71.6000427,38.4617423 L71.3748267,39.446773 L71.1574613,38.6011288 C71.0190933,38.603092 70.7747413,38.6305767 70.6005547,38.6502086 C69.974464,38.7213742 69.630016,38.7601472 69.5573973,38.4656687 C67.2708907,29.1822331 68.655552,23.410454 70.2197973,20.2035828 C71.67904,17.2126626 73.5224747,15.8487362 74.0896853,15.480638 C73.302656,12.7478773 74.6608213,10.0053006 74.720192,9.8875092 L74.8094933,9.71082209 L75.0003627,9.76039264 C81.0551893,11.3289816 83.6203947,10.4185521 84.2504107,10.1113129 C82.4707627,5.24358282 86.5408427,0.424932515 86.7174827,0.219288344 L86.9058987,0.000392638037 L87.0913707,0.221742331 C92.1638827,6.2683681 99.1549013,6.95106748 99.2250667,6.95744785 C109.558997,9.0276319 116.639808,13.3913129 120.297237,19.931681 C125.462485,29.1694724 122.08032,39.5287362 121.349227,41.5115583 C121.126955,42.1147485 120.595072,42.2796564 120.154944,42.2796564 L120.154944,42.2796564 Z" id="Fill-62" fill="#3B434F" mask="url(#mask-2)"></path>
                            <path d="M83.3253568,42.3216196 C84.5603648,42.3216196 85.5618155,43.3233374 85.5618155,44.5586748 C85.5618155,45.7940123 84.5603648,46.7952393 83.3253568,46.7952393 C82.0903488,46.7952393 81.0888981,45.7940123 81.0888981,44.5586748 C81.0888981,43.3233374 82.0903488,42.3216196 83.3253568,42.3216196" id="Fill-63" fill="#3B434F" mask="url(#mask-2)"></path>
                            <path d="M108.148625,42.3216196 C109.383633,42.3216196 110.385084,43.3233374 110.385084,44.5586748 C110.385084,45.7940123 109.383633,46.7952393 108.148625,46.7952393 C106.913617,46.7952393 105.912166,45.7940123 105.912166,44.5586748 C105.912166,43.3233374 106.913617,42.3216196 108.148625,42.3216196" id="Fill-64" fill="#3B434F" mask="url(#mask-2)"></path>
                            <path d="M70.9157099,56.758184 C67.5732885,56.0278773 65.5237739,54.3464049 64.9384085,47.9120491 C64.7406699,45.7358528 65.2328085,44.094135 66.4015765,43.0330307 C68.1807339,41.4173252 70.8062912,41.8924172 70.9166912,41.9140123 L70.5516352,43.8428466 L70.7341632,42.8784294 L70.5555605,43.8438282 C70.5378965,43.8403926 68.7602112,43.5336442 67.7136192,44.4931534 C67.0306112,45.1189202 66.7548565,46.2094724 66.8937152,47.7343804 C67.4216725,53.5454233 69.0668779,54.3449325 71.3347392,54.8401472 L70.9157099,56.758184 Z" id="Fill-65" fill="#3B434F" mask="url(#mask-2)"></path>
                            <path d="M77.9686997,41.3209816 C77.7748864,41.3209816 77.5820544,41.2453988 77.4377984,41.0947239 C77.1571371,40.8022086 77.1649877,40.3388957 77.4564437,40.0571779 C77.5845077,39.9334969 80.6521557,37.0353374 85.9302571,37.9492025 C86.3306411,38.0184049 86.5990357,38.3992638 86.5298517,38.8002454 C86.4601771,39.2007362 86.0799104,39.470184 85.6790357,39.4 C81.1668651,38.6196319 78.5849771,41.0152147 78.4775211,41.1177914 C78.3347371,41.2537423 78.1517184,41.3209816 77.9686997,41.3209816" id="Fill-66" fill="#3B434F" mask="url(#mask-2)"></path>
                            <path d="M83.9064043,38.0170798 C79.9805803,38.0170798 77.7343083,40.1299632 77.6263616,40.2340123 C77.4340203,40.4200245 77.4286229,40.7306994 77.6150763,40.9250552 C77.7956416,41.1140123 78.1185003,41.1208834 78.3083883,40.9402699 C78.4192789,40.8342577 81.0914496,38.3567117 85.7203989,39.158184 C85.8518976,39.1817423 85.9799616,39.1518037 86.0864363,39.0767117 C86.1938923,39.0011288 86.2660203,38.8877546 86.2881003,38.758184 C86.3101803,38.6291043 86.2812309,38.4990429 86.2056683,38.3920491 C86.1301056,38.2845644 86.0172523,38.2133988 85.8882069,38.1908221 C85.1870443,38.0695951 84.5256256,38.0170798 83.9064043,38.0170798 M77.9683563,41.5665276 C77.6984896,41.5665276 77.4472683,41.4595337 77.2603243,41.2646871 C76.8879083,40.8754847 76.8991936,40.2551166 77.2858389,39.880638 C77.4178283,39.7530307 80.5816469,36.775362 85.9716203,37.7073865 C86.2297109,37.7520491 86.4554176,37.8943804 86.6065429,38.1088589 C86.7581589,38.3233374 86.8165483,38.5839509 86.7714069,38.8421104 C86.7267563,39.1012515 86.5834816,39.3270184 86.3690603,39.478184 C86.1541483,39.6293497 85.8936043,39.6857914 85.6364949,39.6421104 C81.2411029,38.8808834 78.7499883,41.1969571 78.6464576,41.2960982 C78.4624576,41.4703313 78.2220309,41.5665276 77.9683563,41.5665276" id="Fill-67" fill="#3B434F" mask="url(#mask-2)"></path>
                            <path d="M113.085271,41.3226994 C112.901762,41.3226994 112.718253,41.2544785 112.575959,41.1180368 C112.465069,41.0125153 109.883671,38.6188957 105.374445,39.4002454 C104.973079,39.4694479 104.592813,39.2004908 104.523629,38.8 C104.454445,38.3995092 104.722839,38.0186503 105.123223,37.9489571 C110.400834,37.0365644 113.468973,39.9332515 113.597037,40.0569325 C113.888983,40.3396319 113.897325,40.8058896 113.614701,41.0979141 C113.469954,41.2476074 113.278103,41.3226994 113.085271,41.3226994" id="Fill-68" fill="#3B434F" mask="url(#mask-2)"></path>
                            <path d="M107.146929,38.9986748 C110.656177,38.9986748 112.648774,40.8489816 112.744945,40.9402699 C112.935324,41.1223558 113.25622,41.1154847 113.438257,40.9275092 C113.626182,40.7331534 113.620785,40.4214969 113.426481,40.2335215 C113.302342,40.1132761 110.323996,37.2995337 105.165126,38.1908221 C104.898694,38.2369571 104.719601,38.491681 104.765233,38.7586748 C104.811356,39.0251779 105.067484,39.2028466 105.332934,39.158184 C105.975708,39.046773 106.581681,38.9986748 107.146929,38.9986748 M113.085468,41.568 C112.831302,41.568 112.589894,41.4713129 112.406385,41.2951166 C112.302364,41.1969571 109.805852,38.881865 105.416348,39.6421104 C104.883974,39.7343804 104.374172,39.3751166 104.281926,38.8421104 C104.190172,38.3086135 104.548849,37.7996564 105.081713,37.7073865 C110.477084,36.7733988 113.635996,39.7535215 113.767494,39.880638 C114.156102,40.256589 114.167388,40.879411 113.791046,41.2686135 C113.604102,41.4619877 113.353372,41.568 113.085468,41.568" id="Fill-69" fill="#3B434F" mask="url(#mask-2)"></path>
                            <path d="M97.0849259,59.0341104 C96.6649152,59.0341104 96.2758165,58.7617178 96.1467712,58.3386503 C95.9887765,57.8198773 96.2807232,57.2711656 96.7993579,57.1131288 C97.1236885,57.0134969 97.5446805,56.8294479 97.7900139,56.6733742 C97.7370219,55.9582822 97.2232939,54.0618405 96.7105472,52.5315337 C96.5388139,52.0176687 96.8155499,51.4611043 97.3292779,51.2888344 C97.8444779,51.1165644 98.3994219,51.3943558 98.5716459,51.9077301 C100.249235,56.9168098 99.7320725,57.4993865 99.4229525,57.8468712 C98.8213952,58.5241718 97.6084672,58.9192638 97.3714752,58.991411 C97.2762859,59.0203681 97.1796245,59.0341104 97.0849259,59.0341104" id="Fill-70" fill="#3B434F" mask="url(#mask-2)"></path>
                            <path d="M151.154577,149.94984 L27.2165931,149.94984 C26.6748971,149.94984 26.2352597,149.510086 26.2352597,148.968245 C26.2352597,148.426405 26.6748971,147.98665 27.2165931,147.98665 L151.154577,147.98665 C151.696273,147.98665 152.13591,148.426405 152.13591,148.968245 C152.13591,149.510086 151.696273,149.94984 151.154577,149.94984" id="Fill-71" fill="#3B434F" mask="url(#mask-2)"></path>
                            <path d="M180.270639,149.957497 L180.263279,149.957497 L156.198042,149.781791 C155.656346,149.777865 155.220143,149.335166 155.224068,148.792834 C155.227994,148.253448 155.66665,147.818601 156.205402,147.818601 L156.212762,147.818601 L180.277999,147.994307 C180.819695,147.998233 181.255898,148.440933 181.251972,148.983264 C181.248047,149.52265 180.809391,149.957497 180.270639,149.957497" id="Fill-72" fill="#3B434F" mask="url(#mask-2)"></path>
                            <path d="M167.953434,159.591018 L98.6747349,159.591018 C98.1325483,159.591018 97.6934016,159.151264 97.6934016,158.609423 C97.6934016,158.067583 98.1325483,157.627828 98.6747349,157.627828 L167.953434,157.627828 C168.49513,157.627828 168.934767,158.067583 168.934767,158.609423 C168.934767,159.151264 168.49513,159.591018 167.953434,159.591018" id="Fill-73" fill="#3B434F" mask="url(#mask-2)"></path>
                            <path d="M90.6567019,159.591018 L69.2955285,159.591018 C68.7533419,159.591018 68.3141952,159.151264 68.3141952,158.609423 C68.3141952,158.067583 68.7533419,157.627828 69.2955285,157.627828 L90.6567019,157.627828 C91.1983979,157.627828 91.6380352,158.067583 91.6380352,158.609423 C91.6380352,159.151264 91.1983979,159.591018 90.6567019,159.591018" id="Fill-74" fill="#3B434F" mask="url(#mask-2)"></path>
                            <path d="M101.369623,102.019583 C102.169901,102.239951 106.414167,102.309644 109.568173,97.0105031 C112.349271,92.3395828 110.705538,90.3808098 108.310594,87.7987239 C107.990679,88.6684172 107.507373,89.7751656 106.812589,90.8946748 C105.021165,93.781546 102.589421,95.5194601 99.7307968,95.9734479 C100.267586,98.591362 100.968258,101.335411 101.369623,102.019583 L101.369623,102.019583 Z M102.181186,104.041669 C101.293079,104.041669 100.619885,103.875779 100.29261,103.684368 C99.9535595,103.486086 99.0536768,102.95946 97.5944341,95.2873129 L97.3814848,94.1682945 L98.5193408,94.1231411 C105.048642,93.861546 106.900909,85.7432638 106.919063,85.6613006 L107.333186,83.7678037 L108.613826,85.2225276 C108.926871,85.5783558 109.247767,85.9233865 109.564738,86.2644908 C112.046039,88.9349202 114.85805,91.9616687 111.254594,98.0151656 C108.353773,102.888294 104.522157,104.041669 102.181186,104.041669 L102.181186,104.041669 Z" id="Fill-75" fill="#3B434F" mask="url(#mask-2)"></path>
                            <path d="M71.5204565,119.097423 C71.5204565,118.555092 71.0813099,118.115828 70.5391232,118.115828 C69.9969365,118.115828 69.5577899,118.555092 69.5577899,119.097423 C69.5577899,119.639755 69.9969365,120.079018 70.5391232,120.079018 C71.0813099,120.079018 71.5204565,119.639755 71.5204565,119.097423" id="Fill-76" fill="#3B434F" mask="url(#mask-2)"></path>
                            <path d="M120.587123,119.097423 C120.587123,118.555092 120.147977,118.115828 119.60579,118.115828 C119.063603,118.115828 118.624457,118.555092 118.624457,119.097423 C118.624457,119.639755 119.063603,120.079018 119.60579,120.079018 C120.147977,120.079018 120.587123,119.639755 120.587123,119.097423" id="Fill-77" fill="#3B434F" mask="url(#mask-2)"></path>
                            <path d="M81.8742592,96.2450552 C81.8742592,96.2450552 88.6852032,100.956712 90.5703445,99.2158528 L89.6567232,101.760638 C89.6567232,101.760638 86.0130325,103.031313 81.8742592,96.2450552" id="Fill-78" fill="#BFCADB" mask="url(#mask-2)"></path>
                            <path d="M100.678029,100.004957 C100.558306,99.5578405 101.628941,95.5652025 103.74813,94.4344049 L99.7305515,95.9730552 L100.678029,100.004957 Z" id="Fill-79" fill="#BFCADB" mask="url(#mask-2)"></path>
                            <path d="M150.962972,106.586454 C150.962972,106.586454 176.239174,105.967067 176.5007,106.089767 C176.762225,106.212466 177.504604,131.465963 177.504604,131.465963 L173.34375,129.255902 L173.34375,138.696393 L172.417862,152.305718 C172.417862,152.305718 177.685169,152.246331 177.439836,153.318233 C177.194502,154.389644 176.4271,158.558479 175.201414,158.803877 C173.975238,159.048785 141.60007,158.803877 141.60007,158.803877 L119.038726,158.912834 C119.038726,158.912834 116.302278,155.932712 117.362118,154.364613 C118.421958,152.796025 120.01319,152.673325 120.01319,152.673325 L120.257052,134.48584 L119.889052,128.765104 C119.889052,128.765104 115.721329,133.155779 116.088838,132.493202 C116.456838,131.830626 116.579014,106.573693 116.579014,106.573693 L127.817734,106.696393 L128.591025,102.527558 L125.725532,100.811239 C125.725532,100.811239 126.262321,97.868908 126.752497,97.7462086 C127.243164,97.6235092 135.210118,97.7462086 135.210118,97.7462086 L135.455452,101.546945 L134.093361,101.914552 C134.093361,101.914552 132.145905,105.837988 133.248924,105.960687 C134.351942,106.083387 136.185564,106.328294 136.185564,106.328294 C136.185564,106.328294 140.11286,107.432098 141.093702,106.696393 C142.074054,105.960687 146.644614,102.527558 146.644614,102.527558 L150.962972,106.586454 Z" id="Fill-80" fill="#82D4BB" mask="url(#mask-2)"></path>
                            <polygon id="Fill-81" fill="#000000" opacity="0.0956739739" mask="url(#mask-2)" points="150.633882 106.515583 156.66025 106.420368 176.545498 126.426258 176.545498 131.853988"></polygon>
                            <polygon id="Fill-82" fill="#000000" opacity="0.0956739739" mask="url(#mask-2)" points="124.62899 150.650356 120.297385 153.654037 119.888659 128.765202 124.62899 122.267043"></polygon>
                            <polygon id="Fill-83" fill="#000000" opacity="0.0956739739" mask="url(#mask-2)" points="116.876898 131.854037 116.557474 126.707043 137.047714 106.355141 142.186957 106.515632"></polygon>
                            <path d="M176.977431,105.191509 L157.10445,105.191509 C156.526935,105.191509 156.058349,105.660221 156.058349,106.23789 C156.058349,106.815067 156.526935,107.283779 157.10445,107.283779 L175.93133,107.283779 L175.93133,129.867828 L147.384343,101.313227 C147.179245,101.108074 146.910359,101.006479 146.641474,101.006479 C146.372589,101.006479 146.103703,101.108074 145.899095,101.313227 L117.357997,129.866847 L117.357997,107.283779 L128.863639,107.283779 C129.440663,107.283779 129.909741,106.815067 129.909741,106.23789 L129.909741,102.052859 C129.909741,101.47519 129.440663,101.006479 128.863639,101.006479 L127.817538,101.006479 L127.817538,98.9142086 L134.093165,98.9142086 L134.093165,101.006479 L133.047554,101.006479 C132.470039,101.006479 132.001453,101.47519 132.001453,102.052859 L132.001453,106.23789 C132.001453,106.815067 132.470039,107.283779 133.047554,107.283779 L136.185367,107.283779 C136.762391,107.283779 137.230978,106.815067 137.230978,106.23789 C137.230978,105.660221 136.762391,105.191509 136.185367,105.191509 L134.093165,105.191509 L134.093165,103.099239 L135.139266,103.099239 C135.71629,103.099239 136.184877,102.630037 136.184877,102.052859 L136.184877,97.8678282 C136.184877,97.2901595 135.71629,96.8214479 135.139266,96.8214479 L126.771437,96.8214479 C126.194413,96.8214479 125.725826,97.2901595 125.725826,97.8678282 L125.725826,102.052859 C125.725826,102.630037 126.194413,103.098748 126.771437,103.098748 L127.817538,103.098748 L127.817538,105.191509 L116.311895,105.191509 C116.034669,105.191509 115.768237,105.301448 115.572461,105.497767 C115.375703,105.693595 115.266285,105.960589 115.266285,106.23789 L115.27021,132.393472 C115.27021,132.817031 115.525357,133.19789 115.916909,133.360344 C116.046445,133.41335 116.181378,133.439853 116.316311,133.439853 C116.589122,133.439853 116.857026,133.33335 117.055746,133.133104 L146.641474,103.529178 L176.237997,133.133104 C176.437698,133.332859 176.705111,133.439853 176.977431,133.439853 C177.112365,133.439853 177.248279,133.41335 177.377815,133.360344 C177.767895,133.19789 178.023042,132.816049 178.023042,132.393472 L178.023042,106.23789 C178.023533,105.660221 177.554946,105.191509 176.977431,105.191509" id="Fill-84" fill="#3B434F" mask="url(#mask-2)"></path>
                            <path d="M182.652335,159.590282 L164.511407,159.590282 C163.970202,159.590282 163.531055,159.151018 163.531055,158.609669 C163.531055,158.067828 163.970202,157.628564 164.511407,157.628564 L182.652335,157.628564 C183.194031,157.628564 183.632687,158.067828 183.632687,158.609669 C183.632687,159.151018 183.194031,159.590282 182.652335,159.590282" id="Fill-85" fill="#3B434F" mask="url(#mask-2)"></path>
                            <path d="M121.407223,159.590282 L112.336759,159.590282 C111.795063,159.590282 111.356407,159.151018 111.356407,158.609669 C111.356407,158.067828 111.795063,157.628564 112.336759,157.628564 L121.407223,157.628564 C121.948919,157.628564 122.387575,158.067828 122.387575,158.609669 C122.387575,159.151018 121.948919,159.590282 121.407223,159.590282" id="Fill-86" fill="#3B434F" mask="url(#mask-2)"></path>
                            <path d="M16.6135808,84.2466748 C16.4467541,81.3995583 14.0998955,79.1232393 11.2707115,79.1232393 C9.55337813,79.1232393 7.8905088,79.9659387 6.8601088,81.3406626 C6.8365568,81.3279018 6.8115328,81.3195583 6.78749013,81.3082699 C6.7246848,81.2778405 6.6613888,81.2488834 6.5966208,81.2228712 C6.56031147,81.208638 6.5244928,81.1958773 6.48818347,81.1831166 C6.42390613,81.1605399 6.35864747,81.140908 6.29240747,81.1227485 C6.25560747,81.1129325 6.2197888,81.1031166 6.1829888,81.094773 C6.11184213,81.0785767 6.03922347,81.0663067 5.96562347,81.0550184 C5.93373013,81.0506012 5.90232747,81.0442209 5.87043413,81.0407853 C5.76543147,81.0290061 5.6589568,81.0216442 5.55101013,81.0216442 C3.98136747,81.0216442 2.7046528,82.2986994 2.7046528,83.8687607 C2.7046528,83.9094969 2.70710613,83.9497423 2.71005013,83.9894969 C1.39408213,84.7065521 0.490274133,86.209865 0.490274133,87.7141595 C0.490274133,89.9551411 2.3131008,91.778454 4.55299413,91.778454 L6.18347947,91.778454 C6.35864747,91.778454 6.49995947,91.6366135 6.49995947,91.4618896 C6.49995947,91.2866748 6.35864747,91.1453252 6.18347947,91.1453252 L4.55299413,91.1453252 C2.6619648,91.1453252 1.12323413,89.606184 1.12323413,87.7141595 C1.12323413,86.3998037 1.97846613,85.0358773 3.15753813,84.4704785 L3.33712213,84.384589 L3.33712213,84.1853252 C3.33712213,84.1475337 3.33957547,84.1087607 3.3420288,84.0699877 L3.34546347,84.011092 L3.34104747,83.9497423 C3.3390848,83.9232393 3.33712213,83.8962454 3.33712213,83.8687607 C3.33712213,82.6481472 4.33072213,81.6542822 5.55101013,81.6542822 C5.6486528,81.6542822 5.74531413,81.6626258 5.84099413,81.6753865 C5.86601813,81.6788221 5.89055147,81.6827485 5.91459413,81.6866748 C5.99947947,81.700908 6.08240213,81.7190675 6.16434347,81.7431166 C6.1756288,81.7460613 6.18691413,81.7485153 6.1977088,81.7514601 C6.28799147,81.7789448 6.3758208,81.8137914 6.46217813,81.8530552 C6.48425813,81.863362 6.50633813,81.8741595 6.52841813,81.8849571 C6.60447147,81.9227485 6.67856213,81.9639755 6.75069013,82.0101104 C7.36009813,82.4052025 7.76489813,83.089865 7.76489813,83.8687607 C7.76489813,84.0439755 7.9067008,84.1853252 8.08137813,84.1853252 C8.25654613,84.1853252 8.39785813,84.0439755 8.39785813,83.8687607 C8.39785813,82.9975951 8.00336213,82.2177178 7.3856128,81.6950184 C8.2923648,80.5087607 9.78546347,79.7558773 11.2707115,79.7558773 C13.7206101,79.7558773 15.7554048,81.6969816 15.9673728,84.1499877 C15.6445141,84.1269202 15.1602261,84.1151411 14.6759381,84.1892515 C14.5032235,84.2152638 14.3844821,84.3767362 14.4109781,84.5494969 C14.4345301,84.7060613 14.5694635,84.818454 14.7230421,84.818454 C14.7387435,84.818454 14.7549355,84.8169816 14.7711275,84.8145276 C15.4752341,84.7080245 16.2092715,84.8081472 16.2524501,84.8140368 C17.7249408,85.0937914 18.8353195,86.4508466 18.8353195,87.9728098 C18.8353195,89.7220123 17.4123861,91.1453252 15.6636501,91.1453252 L14.4070528,91.1453252 C14.2323755,91.1453252 14.0910635,91.2866748 14.0910635,91.4618896 C14.0910635,91.6366135 14.2323755,91.778454 14.4070528,91.778454 L15.6636501,91.778454 C17.7612501,91.778454 19.4677888,90.0709693 19.4677888,87.9728098 C19.4677888,86.2363681 18.2573141,84.6790675 16.6135808,84.2466748" id="Fill-87" fill="#EBF1FF" mask="url(#mask-2)"></path>
                            <path d="M5.85492907,81.1825767 C5.86228907,81.1835583 5.8691584,81.1845399 5.87700907,81.1850307 L5.87013973,81.0402454 L5.85492907,81.1825767 Z M15.6633557,92.2687117 L14.4072491,92.2687117 C13.9617237,92.2687117 13.6001024,91.9069939 13.6001024,91.4618405 C13.6001024,91.0166871 13.9617237,90.6544785 14.4072491,90.6544785 L15.6633557,90.6544785 C17.1417344,90.6544785 18.3443584,89.4515337 18.3443584,87.9727607 C18.3443584,86.6834356 17.4057131,85.5325153 16.1608917,85.2959509 C16.1564757,85.2959509 15.4769024,85.2041718 14.8439424,85.2998773 L14.7227477,85.3092025 C14.3218731,85.3092025 13.9862571,85.0206135 13.9259051,84.6235583 C13.8935211,84.4100613 13.9455317,84.1970552 14.0735957,84.0233129 C14.2016597,83.8495706 14.3895851,83.7361963 14.6025344,83.7038037 C14.8758357,83.6620859 15.1476651,83.6453988 15.3949611,83.642454 C14.9724971,81.6993865 13.2556544,80.2471166 11.2709077,80.2471166 C10.0795691,80.2471166 8.88283307,80.7820859 8.0536064,81.6645399 C8.58892373,82.2711656 8.88872107,83.0515337 8.88872107,83.8692025 C8.88872107,84.313865 8.52660907,84.6760736 8.0815744,84.6760736 C7.63653973,84.6760736 7.27442773,84.313865 7.27442773,83.8692025 C7.27442773,83.283681 6.97855573,82.7428221 6.48396373,82.4223313 C6.42802773,82.3860123 6.3696384,82.3541104 6.31026773,82.3246626 L6.25825707,82.2996319 C6.19201707,82.2692025 6.12430507,82.2422086 6.0546304,82.2206135 C5.96434773,82.1955828 5.89957973,82.1818405 5.8338304,82.1710429 L5.78034773,82.1626994 C4.73179307,82.0252761 3.8274944,82.8419632 3.8274944,83.8692025 L3.8274944,84.6937423 L3.3697024,84.9131288 C2.3687424,85.392638 1.6136064,86.5970552 1.6136064,87.7141104 C1.6136064,89.3357055 2.9325184,90.6544785 4.5531904,90.6544785 L6.18367573,90.6544785 C6.6287104,90.6544785 6.99033173,91.0166871 6.99033173,91.4618405 C6.99033173,91.9069939 6.6287104,92.2687117 6.18367573,92.2687117 L4.5531904,92.2687117 C2.04244907,92.2687117 -0.000196266668,90.2255215 -0.000196266668,87.7141104 C-0.000196266668,86.1347239 0.880059733,84.5626994 2.21761707,83.7106748 C2.30053973,81.9433129 3.76370773,80.5307975 5.5512064,80.5307975 C5.67730773,80.5307975 5.8014464,80.5391411 5.92411307,80.5523926 L6.0134144,80.5656442 C6.1238144,80.5823313 6.20820907,80.5970552 6.29113173,80.6157055 C6.32940373,80.6245399 6.3681664,80.6348466 6.40692907,80.6456442 C6.49819307,80.670184 6.57473707,80.6937423 6.65029973,80.7202454 C6.67041707,80.7271166 6.69102507,80.7344785 6.71163307,80.7418405 C7.84850773,79.4142331 9.52511573,78.6323926 11.2709077,78.6323926 C14.2443477,78.6323926 16.7305557,80.9092025 17.0735317,83.8755828 C18.7643691,84.478773 19.9581611,86.1479755 19.9581611,87.9727607 C19.9581611,90.3418405 18.0313131,92.2687117 15.6633557,92.2687117 L15.6633557,92.2687117 Z" id="Fill-88" fill="#EBF1FF" mask="url(#mask-2)"></path>
                            <path d="M36.1815637,79.7886626 L36.1845077,79.7356564 L36.1810731,79.6801963 C36.1791104,79.6556564 36.1771477,79.6311166 36.1771477,79.6065767 C36.1771477,78.4998282 37.0780117,77.5992147 38.1839744,77.5992147 C38.2727851,77.5992147 38.3601237,77.6070675 38.4469717,77.6183558 C38.4695424,77.6213006 38.4916224,77.6247362 38.5137024,77.6286626 C38.5902464,77.6414233 38.6658091,77.6581104 38.7398997,77.6792147 C38.7502037,77.6821595 38.7605077,77.6841227 38.7703211,77.6870675 C38.8522624,77.7120982 38.9317504,77.7435092 39.0097664,77.7793374 C39.0303744,77.7881718 39.0500011,77.7984785 39.0701184,77.8082945 C39.1388117,77.8421595 39.2060331,77.8794601 39.2712917,77.9216687 C39.8237824,78.2794601 40.1912917,78.900319 40.1912917,79.6065767 C40.1912917,79.7651043 40.3193557,79.8932025 40.4778411,79.8932025 C40.6363264,79.8932025 40.7643904,79.7651043 40.7643904,79.6065767 C40.7643904,78.8168834 40.4071851,78.1096442 39.8468437,77.6360245 C40.6692011,76.5606871 42.0224597,75.8784785 43.3688491,75.8784785 C45.5896064,75.8784785 47.4335317,77.6379877 47.6263637,79.8613006 C47.3334357,79.8406871 46.8942891,79.8298896 46.4556331,79.896638 C46.2991104,79.9206871 46.1916544,80.0669448 46.2152064,80.2235092 C46.2367957,80.3653497 46.3589717,80.4669448 46.4983211,80.4669448 C46.5125504,80.4669448 46.5272704,80.4659632 46.5414997,80.4635092 C47.1798571,80.3673129 47.8456917,80.4576196 47.8844544,80.4630184 C49.2195584,80.7167607 50.2254251,81.9471902 50.2254251,83.3268221 C50.2254251,84.9120982 48.9359531,86.2024049 47.3506091,86.2024049 L46.2117717,86.2024049 C46.0532864,86.2024049 45.9252224,86.3305031 45.9252224,86.4890307 C45.9252224,86.6480491 46.0532864,86.7761472 46.2117717,86.7761472 L47.3506091,86.7761472 C49.2519424,86.7761472 50.7990144,85.2286626 50.7990144,83.3268221 C50.7990144,81.7523436 49.7018837,80.3408098 48.2117291,79.9491534 C48.0606037,77.3680491 45.9335637,75.3047362 43.3688491,75.3047362 C41.8119637,75.3047362 40.3046357,76.0684172 39.3708971,77.3145521 C39.3493077,77.3032638 39.3267371,77.2959018 39.3046571,77.2855951 C39.2482304,77.2576196 39.1903317,77.2316074 39.1319424,77.2080491 C39.0990677,77.1952883 39.0661931,77.1835092 39.0333184,77.1722209 C38.9754197,77.1516074 38.9160491,77.1334479 38.8556971,77.1172515 C38.8228224,77.1084172 38.7904384,77.099092 38.7570731,77.0917301 C38.6923051,77.0770061 38.6265557,77.0662086 38.5598251,77.0559018 C38.5308757,77.0514847 38.5029077,77.0460859 38.4734677,77.0426503 C38.3782784,77.0323436 38.2821077,77.0254724 38.1839744,77.0254724 C36.7610411,77.0254724 35.6040491,78.1832638 35.6040491,79.6065767 C35.6040491,79.6433865 35.6060117,79.6797055 35.6089557,79.7160245" id="Fill-89" fill="#EBF1FF" mask="url(#mask-2)"></path>
                            <path d="M38.4645376,77.1257914 L38.4758229,77.1272638 L38.4738603,77.0428466 L38.4645376,77.1257914 Z M47.3505109,87.2666503 L46.2116736,87.2666503 C45.7833216,87.2666503 45.4344576,86.918184 45.4344576,86.489227 C45.4344576,86.0607607 45.7833216,85.7118037 46.2116736,85.7118037 L47.3505109,85.7118037 C48.6654976,85.7118037 49.7351509,84.641865 49.7351509,83.3265276 C49.7351509,82.1795337 48.9005269,81.1557301 47.7930923,80.9451779 C47.7886763,80.9456687 47.1807403,80.8641963 46.6145109,80.9491043 L46.4982229,80.9579387 C46.1110869,80.9579387 45.7882283,80.6801472 45.7303296,80.2973252 C45.6665429,79.8722945 45.9589803,79.4757301 46.3824256,79.4114356 C46.6115669,79.376589 46.8397269,79.3608834 47.0502229,79.3559755 C46.6518016,77.643092 45.1277909,76.3689816 43.3687509,76.3689816 C42.3152896,76.3689816 41.2564309,76.8362209 40.5150336,77.6097178 C40.9895083,78.1633374 41.2549589,78.8686135 41.2549589,79.606773 C41.2549589,80.0352393 40.9065856,80.3841963 40.4782336,80.3841963 C40.0489003,80.3841963 39.7005269,80.0352393 39.7005269,79.606773 C39.7005269,79.0919264 39.4399829,78.6158528 39.0047616,78.3336442 C38.9552043,78.3017423 38.9031936,78.2732761 38.8506923,78.2472638 C38.7481429,78.1996564 38.6887723,78.1751166 38.6274389,78.1564663 C38.5474603,78.1343804 38.4915243,78.1221104 38.4341163,78.1127853 L38.3830869,78.1049325 C38.3168469,78.0960982 38.2510976,78.0897178 38.1843669,78.0897178 C37.3482709,78.0897178 36.6682069,78.770454 36.6682069,79.606773 L36.6760576,79.7338896 L36.6711509,79.8192883 L35.7825536,79.7633374 L35.6947243,79.769227 L35.6917803,79.7574479 L35.6932523,79.7368344 L35.6912896,79.7137669 L35.6912896,79.7103313 L35.1191723,79.7481227 C35.1162283,79.7014969 35.1132843,79.6543804 35.1132843,79.606773 C35.1132843,77.9130307 36.4910763,76.5348712 38.1843669,76.5348712 C38.3001643,76.5348712 38.4139989,76.5422331 38.5278336,76.5545031 L38.6097749,76.566773 C38.7118336,76.5824785 38.7898496,76.5957301 38.8654123,76.6133988 C38.9027029,76.6212515 38.9414656,76.6320491 38.9802283,76.6423558 C39.0562816,76.6634601 39.1269376,76.6845644 39.1956309,76.7091043 C39.2044629,76.7120491 39.2128043,76.7149939 39.2216363,76.7179387 C40.2603776,75.519411 41.7838976,74.814135 43.3687509,74.814135 C46.0782123,74.814135 48.3450923,76.8808834 48.6708949,79.5792883 C50.2076629,80.1402699 51.2900736,81.6627239 51.2900736,83.3265276 C51.2900736,85.4992883 49.5226923,87.2666503 47.3505109,87.2666503 L47.3505109,87.2666503 Z" id="Fill-90" fill="#EBF1FF" mask="url(#mask-2)"></path>
                            <path d="M117.837133,157.959067 C117.530466,157.40692 115.968183,155.73919 116.871991,154.364466 C117.775799,152.989742 119.227682,151.701399 120.587319,152.498945 C121.946466,153.296491 123.234466,152.314896 124.338466,151.51735 C125.442466,150.719804 126.301133,150.416 127.282466,150.782626 C128.263799,151.149252 129.981133,152.376245 130.042466,152.805693 C130.103799,153.235141 132.09149,153.950233 132.610615,155.075632 C134.903501,160.044957 118.143799,158.511215 117.837133,157.959067" id="Fill-91" fill="#FFFFFF" mask="url(#mask-2)"></path>
                            <path d="M176.901133,156.609374 C176.901133,156.609374 176.901133,153.296491 175.551799,153.112442 C174.202466,152.928393 173.159799,151.824098 171.994466,153.112442 C170.829133,154.400785 171.749133,151.609129 170.031799,151.225816 C168.314466,150.842503 167.333133,149.73919 165.799799,150.628515 C164.266466,151.51735 164.468621,150.965202 163.293965,152.805693 C162.119799,154.646184 162.725773,153.725939 161.288119,154.891583 C159.850466,156.057227 160.149773,157.652319 161.288119,158.020417 C162.426466,158.388515 175.490466,158.020417 175.490466,158.020417 C175.490466,158.020417 176.946274,157.421153 176.901133,156.609374" id="Fill-92" fill="#FFFFFF" mask="url(#mask-2)"></path>
                            <polygon id="Fill-93" fill="#FFFFFF" mask="url(#mask-2)" points="126.928597 145.562209 134.903893 145.562209 134.903893 133.44 126.928597 133.44"></polygon>
                            <polygon id="Fill-94" fill="#FFFFFF" mask="url(#mask-2)" points="141.40032 153.940123 151.389803 153.940123 151.389803 133.65546 141.40032 133.65546"></polygon>
                            <polygon id="Fill-95" fill="#FFFFFF" mask="url(#mask-2)" points="158.459819 145.562209 166.440021 145.562209 166.440021 133.44 158.459819 133.44"></polygon>
                            <path d="M130.955401,157.503067 L119.449758,157.503067 C118.296201,157.503067 117.358046,156.564663 117.358046,155.410798 C117.358046,154.256442 118.296201,153.318037 119.449758,153.318037 C120.425694,153.318037 121.292702,153.885399 121.60771,154.730552 C121.78435,155.204663 122.274035,155.483926 122.774025,155.39411 C123.272051,155.303804 123.633673,154.87092 123.633673,154.364417 C123.633673,152.633865 125.041395,151.225767 126.771486,151.225767 C128.501577,151.225767 129.909299,152.633865 129.909299,154.364417 C129.909299,154.941595 130.377886,155.410307 130.955401,155.410307 C131.531443,155.410307 132.001011,155.880491 132.001011,156.456687 C132.001011,157.033374 131.531934,157.503067 130.955401,157.503067 M131.924958,153.471166 C131.500041,151.011288 129.350921,149.133497 126.771486,149.133497 C124.712158,149.133497 122.927603,150.330061 122.075315,152.06454 C121.906526,151.944294 121.726942,151.837791 121.54147,151.741595 L121.54147,134.486135 C121.54147,133.908466 121.072883,133.439755 120.495859,133.439755 C119.918345,133.439755 119.449758,133.908466 119.449758,134.486135 L119.449758,151.225767 C117.142643,151.225767 115.266334,153.102577 115.266334,155.410798 C115.266334,157.718528 117.142643,159.595337 119.449758,159.595337 L130.955401,159.595337 C132.685491,159.595337 134.093214,158.187239 134.093214,156.456687 C134.093214,155.064294 133.182046,153.880982 131.924958,153.471166" id="Fill-96" fill="#3B434F" mask="url(#mask-2)"></path>
                            <path d="M173.839569,157.503067 L166.517841,157.503067 L162.333926,157.503067 C161.757884,157.503067 161.288316,157.033374 161.288316,156.456687 C161.288316,155.880491 161.757884,155.410798 162.333926,155.410798 C162.911441,155.410798 163.380028,154.942086 163.380028,154.364417 C163.380028,152.633865 164.78775,151.225767 166.517841,151.225767 C168.247932,151.225767 169.655654,152.633865 169.655654,154.364417 C169.655654,154.87092 170.017766,155.303804 170.515302,155.39411 C171.012348,155.484908 171.504977,155.204663 171.681617,154.730552 C171.996625,153.885399 172.863633,153.318528 173.839569,153.318528 C174.993126,153.318528 175.931281,154.256933 175.931281,155.410798 C175.931281,156.564663 174.993126,157.503067 173.839569,157.503067 M173.839569,151.225767 L173.839569,134.486135 C173.839569,133.908466 173.370982,133.439755 172.793468,133.439755 C172.216444,133.439755 171.747857,133.908466 171.747857,134.486135 L171.747857,151.741595 C171.562876,151.837791 171.382801,151.944294 171.214502,152.06454 C170.361724,150.330061 168.577169,149.133497 166.517841,149.133497 C163.938406,149.133497 161.789286,151.011288 161.364369,153.471166 C160.107281,153.880982 159.196113,155.064294 159.196113,156.456687 C159.196113,156.826258 159.271676,157.174724 159.389926,157.503067 L141.414844,157.503067 C140.83782,157.503067 140.369233,157.971779 140.369233,158.549448 C140.369233,159.126626 140.83782,159.595337 141.414844,159.595337 L162.333926,159.595337 L166.517841,159.595337 L173.839569,159.595337 C176.146684,159.595337 178.023484,157.718528 178.023484,155.410798 C178.023484,153.102577 176.146684,151.225767 173.839569,151.225767" id="Fill-97" fill="#3B434F" mask="url(#mask-2)"></path>
                            <path d="M144.552804,117.746307 C144.552804,116.592442 145.490959,115.654037 146.644516,115.654037 C147.798564,115.654037 148.736719,116.592442 148.736719,117.746307 C148.736719,118.900172 147.798564,119.838577 146.644516,119.838577 C145.490959,119.838577 144.552804,118.900172 144.552804,117.746307 M150.828431,117.746307 C150.828431,115.438086 148.952122,113.561276 146.644516,113.561276 C144.337402,113.561276 142.461092,115.438577 142.461092,117.746307 C142.461092,120.054037 144.337402,121.931337 146.644516,121.931337 C148.952122,121.931337 150.828431,120.054037 150.828431,117.746307" id="Fill-98" fill="#3B434F" mask="url(#mask-2)"></path>
                            <path d="M159.196309,138.67092 L165.471936,138.67092 L165.471936,134.48589 L159.196309,134.48589 L159.196309,138.67092 Z M159.196309,144.948221 L165.471936,144.948221 L165.471936,140.76319 L159.196309,140.76319 L159.196309,144.948221 Z M166.518037,132.39362 L158.150208,132.39362 C157.572693,132.39362 157.104107,132.862331 157.104107,133.439509 L157.104107,144.948221 L156.058496,144.948221 C155.480981,144.948221 155.012395,145.416933 155.012395,145.994601 C155.012395,146.571779 155.480981,147.040491 156.058496,147.040491 L168.609749,147.040491 C169.187264,147.040491 169.655851,146.571779 169.655851,145.994601 C169.655851,145.416933 169.187264,144.948221 168.609749,144.948221 L167.563648,144.948221 L167.563648,133.439509 C167.563648,132.862331 167.095061,132.39362 166.518037,132.39362 L166.518037,132.39362 Z" id="Fill-99" fill="#3B434F" mask="url(#mask-2)"></path>
                            <path d="M156.027044,153.28638 L152.860772,153.28638 L152.860772,133.44 C152.860772,132.889325 152.414756,132.443681 151.864719,132.443681 L141.414991,132.443681 C140.833551,132.443681 140.358095,132.919264 140.358095,133.500368 L140.358095,140.433374 C140.358095,141.008589 140.824719,141.475337 141.400271,141.475337 C141.975332,141.475337 142.441956,141.008589 142.441956,140.433374 L142.441956,134.527607 L150.776911,134.527607 L150.776911,142.864785 L149.813732,142.864785 C149.257316,142.864785 148.772047,143.286871 148.738682,143.842454 C148.702372,144.449571 149.183716,144.949202 149.78282,144.949202 L150.776911,144.949202 L150.776911,153.28638 L142.441956,153.28638 L142.441956,144.887853 C142.441956,144.312147 141.975332,143.84589 141.400271,143.84589 C140.824719,143.84589 140.358095,144.312147 140.358095,144.887853 L140.358095,153.28638 L137.231076,153.28638 C136.656506,153.28638 136.190863,153.752147 136.190863,154.327362 L136.190863,158.517791 C136.190863,159.074847 136.612346,159.560245 137.168271,159.59362 C137.774735,159.629939 138.274234,159.147975 138.274234,158.549202 L138.274234,155.370798 L156.058447,155.370798 C156.65706,155.370798 157.138404,154.871166 157.102095,154.26454 C157.06922,153.708466 156.583951,153.28638 156.027044,153.28638" id="Fill-100" fill="#3B434F" mask="url(#mask-2)"></path>
                            <path d="M128.202368,145.137178 L134.090368,145.137178 L134.090368,140.72 L128.202368,140.72 L128.202368,145.137178 Z M137.199723,144.949202 L136.190912,144.949202 L136.190912,133.44 C136.190912,132.889325 135.744896,132.443681 135.194859,132.443681 L127.181781,132.443681 C126.606229,132.443681 126.139605,132.909939 126.139605,133.485644 L126.139605,133.485644 C126.139605,134.06135 126.606229,134.527607 127.181781,134.527607 L134.107051,134.527607 L134.107051,138.696442 L127.855957,138.696442 L127.855957,137.306994 C127.855957,136.731288 127.389333,136.26454 126.813781,136.26454 C126.23872,136.26454 125.772096,136.731288 125.772096,137.306994 L125.772096,144.949202 L124.710784,144.949202 C124.154368,144.949202 123.669099,145.370798 123.635733,145.926871 C123.599424,146.533988 124.081259,147.03362 124.679872,147.03362 L137.231125,147.03362 C137.829739,147.03362 138.311573,146.533988 138.275264,145.926871 C138.241899,145.370798 137.756629,144.949202 137.199723,144.949202 L137.199723,144.949202 Z" id="Fill-101" fill="#3B434F" mask="url(#mask-2)"></path>
                            <path d="M144.552804,117.746307 C144.552804,116.590479 145.489487,115.654037 146.644516,115.654037 C147.800036,115.654037 148.736719,116.590479 148.736719,117.746307 C148.736719,118.902135 147.800036,119.838577 146.644516,119.838577 C145.489487,119.838577 144.552804,118.902135 144.552804,117.746307" id="Fill-102" fill="#FFFFFF" mask="url(#mask-2)"></path>
                        </g>
                    </g>
                </g>
            </g>
        </g>
    </g>
</svg>